<svg width="264" height="263" viewBox="0 0 264 263" fill="none" xmlns="http://www.w3.org/2000/svg">
<path d="M4.89697 247.703V198.848H28.7662C32.0697 198.848 34.9778 199.499 37.4903 200.802C40.0494 202.058 42.0269 203.827 43.4228 206.106C44.8651 208.386 45.5863 211.015 45.5863 213.993C45.5863 217.11 44.7256 219.856 43.004 222.229C41.2824 224.602 38.9793 226.37 36.0945 227.533L46.9124 247.703H35.6059L26.0443 228.999H15.017V247.703H4.89697ZM15.017 220.693H27.8589C30.1388 220.693 31.9534 220.088 33.3028 218.879C34.6986 217.669 35.3965 216.087 35.3965 214.133C35.3965 212.178 34.6986 210.596 33.3028 209.387C31.9534 208.177 30.1388 207.572 27.8589 207.572H15.017V220.693ZM52.2663 247.703V198.848H62.3863V247.703H52.2663ZM86.4273 247.703L66.6061 198.848H77.5636L92.4993 237.304L107.784 198.848H118.253L98.1525 247.703H86.4273ZM122.4 247.703V198.848H159.949V207.642H132.52V218.809H150.597V227.324H132.52V238.909H160.228V247.703H122.4ZM167.384 247.703V198.848H191.253C194.557 198.848 197.465 199.499 199.977 200.802C202.536 202.058 204.514 203.827 205.91 206.106C207.352 208.386 208.073 211.015 208.073 213.993C208.073 217.11 207.213 219.856 205.491 222.229C203.769 224.602 201.466 226.37 198.582 227.533L209.399 247.703H198.093L188.531 228.999H177.504V247.703H167.384ZM177.504 220.693H190.346C192.626 220.693 194.44 220.088 195.79 218.879C197.186 217.669 197.884 216.087 197.884 214.133C197.884 212.178 197.186 210.596 195.79 209.387C194.44 208.177 192.626 207.572 190.346 207.572H177.504V220.693ZM210.759 247.703L230.859 198.848H242.515L262.406 247.703H251.448L246.493 234.861H226.323L221.298 247.703H210.759ZM229.463 226.765H243.422L236.443 208.759L229.463 226.765Z" fill="url(#paint0_linear_1603_426)"/>
<path fill-rule="evenodd" clip-rule="evenodd" d="M129.155 0.122253C122.281 0.51502 114.466 2.01633 107.832 4.21976C100.235 6.74318 97.3836 8.32865 101.798 7.57421C114.494 5.40641 124.715 5.86362 134.396 9.03381C149.783 14.073 161.581 26.0229 165.161 40.1943C167.467 49.328 166.207 60.901 162.034 68.9004C158.336 75.9906 149.621 83.3827 140.953 86.7811C138.95 87.5666 139.02 87.3983 142.122 83.9779C146.238 79.4406 148.899 73.7213 150.411 66.1639C151.921 58.6179 151.886 56.8861 150.103 50.9309C148.334 45.0243 143.564 39.0979 138.413 36.4061C127.988 30.9582 113.508 31.6801 102.686 38.1865C87.4016 47.3756 78.4725 68.1998 81.6775 87.1807C84.1965 102.097 92.322 114.451 107.097 125.828C119.238 135.177 137.275 139.729 154.279 137.735C172.754 135.568 197.389 124.846 208.248 114.245C212.662 109.936 212.684 109.894 214.066 102.858C214.83 98.9743 215.532 93.3444 215.627 90.3471V90.3471C215.725 87.2575 213.459 84.5993 210.393 84.2077L209.241 84.0606C205.634 83.5996 203.84 83.1696 205.256 83.1059C206.671 83.0422 209.611 82.7693 211.789 82.4993V82.4993C214.006 82.2248 215.615 80.2569 215.445 78.0299L215.309 76.2507C214.521 65.9372 210.664 53.3467 205.36 43.7641L204.797 42.7478C203.526 40.4506 201.107 39.0251 198.482 39.0251V39.0251C196.135 39.0251 194.227 38.6846 194.227 38.2669C194.227 37.8498 195.716 37.5086 197.535 37.5086C201.168 37.5086 201.834 36.3925 199.499 34.2141C198.418 33.2041 196.441 32.9448 189.389 32.8834C177.16 32.778 174.875 31.8522 185.008 31.1083C197.166 30.2159 197.098 30.3054 190.55 23.8589C173.995 7.5598 151.466 -1.15007 129.155 0.122253ZM107.465 10.1613C95.1859 12.0175 84.2818 17.6633 75.1491 26.8933C44.1479 58.2244 46.2714 107.577 79.9165 137.688C99.3298 155.063 121.754 163.27 147.537 162.435C155.368 162.181 156.863 162.268 153.787 162.799C147.706 163.847 130.188 162.95 122.905 161.217C106.271 157.26 92.8543 150.363 79.7989 139.059C66.0971 127.197 57.7173 113.207 53.7763 95.6191C52.3454 89.234 52.1859 86.8903 52.5167 77.125C52.9447 64.4776 54.2365 58.6733 58.9151 48.3719C62.3267 40.86 65.1413 36.4736 70.8713 29.7367C73.2653 26.9214 74.8299 24.6186 74.3483 24.6186C72.5153 24.6186 63.5164 31.5208 58.8489 36.507C50.4065 45.5247 44.3575 56.5244 41.1333 68.7199C39.7039 74.1254 39.465 76.8543 39.4834 87.5522C39.5084 102.296 40.6274 107.468 46.4544 119.777C50.8153 128.989 55.6144 135.642 63.2193 143.019C76.4689 155.871 92.1367 164.293 110.435 168.398C119.006 170.321 139.145 170.344 147.537 168.441C153.776 167.027 165.183 163.186 168.855 161.265C170.748 160.274 170.869 160.045 169.714 159.628C168.745 159.277 169.563 158.759 172.66 157.763C182.454 154.611 194.009 147.846 202.641 140.21C207.448 135.957 215.174 126.725 214.205 126.392C213.852 126.271 211.777 127.413 209.594 128.931C195.181 138.95 174.913 145.177 156.728 145.174C126.096 145.17 98.0505 129.446 84.3031 104.57C76.7755 90.9476 75.8424 73.2489 81.8738 58.4822C85.4921 49.623 92.369 40.7493 99.0093 36.3705C118.64 23.4251 143.608 27.8752 152.166 45.8439C153.979 49.6518 154.154 50.7876 154.146 58.7392C154.138 66.9858 154.008 67.7433 151.75 72.6969C150.437 75.5774 149.566 78.1365 149.815 78.3836C150.647 79.2101 157.295 70.8005 159.548 66.0691C170.055 44.0105 156.621 18.6786 130.644 11.5686C124.734 9.95052 113.407 9.26279 107.465 10.1613ZM73.6535 48.6926C68.1111 54.8866 63.5759 63.0953 61.4003 70.871C60.7584 73.1647 59.9819 79.477 59.6738 84.8984L59.1143 94.7555L59.2503 84.1402C59.3724 74.6182 59.6062 72.8629 61.5201 67.098C64.0391 59.5089 69.2647 51.1129 74.4763 46.2807C76.5314 44.3752 78.3703 42.8163 78.5629 42.8163C78.7548 42.8163 76.5461 45.461 73.6535 48.6926ZM118.014 58.2343C116.14 60.4976 115.768 60.6568 114.47 59.7507C113.673 59.1942 112.2 58.7392 111.198 58.7392C109.996 58.7392 109.624 58.4837 110.104 57.9886C110.556 57.523 111.684 57.4889 113.068 57.8984C114.812 58.414 115.696 58.2494 117.083 57.15C119.867 54.9428 120.312 55.4606 118.014 58.2343ZM182.059 62.8421C181.279 63.4312 180.328 63.7133 179.945 63.4699C179.564 63.2265 179.891 62.7685 180.673 62.4531C182.976 61.5227 183.583 61.6933 182.059 62.8421ZM128.979 64.6156C128.551 65.7795 128.735 65.7863 125.747 64.4905V64.4905C125.237 64.2693 125.412 63.506 125.968 63.5289L126.3 63.5427C128.382 63.6284 129.219 63.9635 128.979 64.6156ZM113.347 67.5409C113.347 68.1679 111.919 68.5228 111.592 67.9768C111.379 67.6227 111.688 67.3323 112.276 67.3323C112.865 67.3323 113.347 67.4264 113.347 67.5409ZM187.167 69.4941C188.133 69.4509 188.328 69.6745 187.8 70.2197C187.272 70.7641 186.387 70.6201 184.933 69.7534C183.776 69.0642 183.492 68.7374 184.3 69.0285C185.109 69.3189 186.4 69.529 187.167 69.4941ZM219.961 104.459C217.321 108.975 206.336 120.26 201.491 123.435C191.306 130.109 178.95 135.287 163.128 139.513C151.005 142.752 155.572 144.014 171.252 141.759C195.215 138.312 214.875 124.486 221.542 106.392C223.352 101.48 222.39 100.304 219.961 104.459ZM167.558 160.043C167.314 160.294 166.679 160.322 166.149 160.103C165.562 159.861 165.736 159.681 166.593 159.645C167.368 159.612 167.802 159.791 167.558 160.043ZM163.345 161.101C162.334 161.435 160.68 161.702 159.669 161.694C158.018 161.681 158.055 161.621 160.037 161.101C161.25 160.783 162.904 160.516 163.713 160.508C164.865 160.497 164.786 160.626 163.345 161.101Z" fill="url(#paint1_linear_1603_426)"/>
<g filter="url(#filter0_b_1603_426)">
<path fill-rule="evenodd" clip-rule="evenodd" d="M107.84 10.1613C95.4936 12.0175 84.5293 17.6633 75.3461 26.8933C44.1737 58.2244 46.3089 107.577 80.1399 137.688C99.6605 155.063 122.209 163.27 148.134 162.435C156.009 162.181 157.512 162.268 154.418 162.799C148.304 163.847 130.689 162.95 123.366 161.217C106.64 157.26 93.1492 150.363 80.0216 139.059C66.2442 127.197 57.818 113.207 53.8552 95.6191C52.4165 89.234 52.2561 86.8903 52.5888 77.125C53.019 64.4776 54.318 58.6733 59.0224 48.3719C62.4529 40.86 65.2831 36.4736 71.0447 29.7367C73.4519 26.9214 75.0252 24.6186 74.541 24.6186C72.6978 24.6186 63.6491 31.5208 58.9559 36.507C50.4669 45.5247 44.3844 56.5244 41.1424 68.7199C39.7052 74.1254 39.4649 76.8543 39.4834 87.5522C39.5085 102.296 40.6338 107.468 46.493 119.777C50.8779 128.989 55.7036 135.642 63.3505 143.019C76.6732 155.871 92.4276 164.293 110.827 168.398C119.446 170.321 139.695 170.344 148.134 168.441C154.407 167.027 165.878 163.186 169.569 161.265C171.473 160.274 171.594 160.045 170.434 159.628C169.459 159.277 170.282 158.759 173.395 157.763C183.244 154.611 194.863 147.846 203.542 140.21C208.376 135.957 216.145 126.725 215.17 126.392C214.816 126.271 212.729 127.413 210.534 128.931C196.041 138.95 175.661 145.177 157.376 145.174C126.574 145.17 98.374 129.446 84.5508 104.57C76.9815 90.9476 76.0433 73.2489 82.108 58.4822C85.7463 49.623 92.6612 40.7493 99.3381 36.3705C119.078 23.4251 144.183 27.8752 152.788 45.8439C154.612 49.6518 154.787 50.7876 154.78 58.7392C154.772 66.9858 154.641 67.7433 152.37 72.6969C151.05 75.5774 150.174 78.1365 150.424 78.3836C151.261 79.2101 157.946 70.8005 160.212 66.0691C170.777 44.0105 157.268 18.6786 131.148 11.5686C125.205 9.95052 113.815 9.26279 107.84 10.1613ZM73.8423 48.6926C68.2692 54.8866 63.709 63.0953 61.5214 70.871C60.8759 73.1647 60.0952 79.477 59.7854 84.8984L59.2228 94.7555L59.3595 84.1402C59.4823 74.6182 59.7174 72.8629 61.6419 67.098C64.1748 59.5089 69.4292 51.1129 74.6696 46.2807C76.736 44.3752 78.5851 42.8163 78.7788 42.8163C78.9718 42.8163 76.7508 45.461 73.8423 48.6926ZM220.958 104.459C218.303 108.975 207.258 120.26 202.386 123.435C192.145 130.109 179.72 135.287 163.811 139.513C151.621 142.752 156.213 144.014 171.98 141.759C196.075 138.312 215.844 124.486 222.548 106.392C224.368 101.48 223.401 100.304 220.958 104.459ZM168.265 160.043C168.02 160.294 167.382 160.322 166.849 160.103C166.259 159.861 166.434 159.681 167.295 159.645C168.074 159.612 168.511 159.791 168.265 160.043ZM164.03 161.101C163.013 161.435 161.35 161.702 160.333 161.694C158.672 161.681 158.71 161.621 160.703 161.101C161.923 160.783 163.586 160.516 164.399 160.508C165.558 160.497 165.478 160.626 164.03 161.101Z" fill="white" fill-opacity="0.25"/>
</g>
<defs>
<filter id="filter0_b_1603_426" x="24.4147" y="-15.0677" width="214.144" height="199.99" filterUnits="userSpaceOnUse" color-interpolation-filters="sRGB">
<feFlood flood-opacity="0" result="BackgroundImageFix"/>
<feGaussianBlur in="BackgroundImage" stdDeviation="7.53385"/>
<feComposite in2="SourceAlpha" operator="in" result="effect1_backgroundBlur_1603_426"/>
<feBlend mode="normal" in="SourceGraphic" in2="effect1_backgroundBlur_1603_426" result="shape"/>
</filter>
<linearGradient id="paint0_linear_1603_426" x1="6.31858" y1="223.344" x2="283.949" y2="230.616" gradientUnits="userSpaceOnUse">
<stop stop-color="#55ADFF"/>
<stop offset="1" stop-color="#9543E4"/>
</linearGradient>
<linearGradient id="paint1_linear_1603_426" x1="115.151" y1="-14.5051" x2="228.419" y2="108.339" gradientUnits="userSpaceOnUse">
<stop stop-color="#55ADFF"/>
<stop offset="1" stop-color="#A528DD"/>
</linearGradient>
</defs>
</svg>
