<svg width="466" height="124" viewBox="0 0 466 124" fill="none" xmlns="http://www.w3.org/2000/svg">
<path d="M127.748 93V29.1388H158.948C163.266 29.1388 167.068 29.9903 170.352 31.6933C173.697 33.3354 176.282 35.6466 178.107 38.6268C179.992 41.607 180.935 45.0433 180.935 48.9358C180.935 53.0107 179.81 56.5991 177.559 59.701C175.309 62.8028 172.298 65.114 168.527 66.6345L182.668 93H167.889L155.39 68.5503H140.976V93H127.748ZM140.976 57.6939H157.762C160.742 57.6939 163.114 56.9032 164.878 55.3219C166.703 53.7406 167.615 51.6727 167.615 49.1183C167.615 46.5638 166.703 44.4959 164.878 42.9146C163.114 41.3333 160.742 40.5426 157.762 40.5426H140.976V57.6939ZM189.666 93V29.1388H202.895V93H189.666ZM234.32 93L208.411 29.1388H222.734L242.257 79.4067L262.237 29.1388H275.921L249.647 93H234.32ZM281.342 93V29.1388H330.424V40.6338H294.571V55.2307H318.199V66.3608H294.571V81.505H330.789V93H281.342ZM340.143 93V29.1388H371.344C375.662 29.1388 379.463 29.9903 382.747 31.6933C386.093 33.3354 388.677 35.6466 390.502 38.6268C392.387 41.607 393.33 45.0433 393.33 48.9358C393.33 53.0107 392.205 56.5991 389.955 59.701C387.704 62.8028 384.694 65.114 380.923 66.6345L395.064 93H380.284L367.786 68.5503H353.371V93H340.143ZM353.371 57.6939H370.158C373.138 57.6939 375.51 56.9032 377.274 55.3219C379.098 53.7406 380.011 51.6727 380.011 49.1183C380.011 46.5638 379.098 44.4959 377.274 42.9146C375.51 41.3333 373.138 40.5426 370.158 40.5426H353.371V57.6939ZM396.84 93L423.115 29.1388H438.35L464.351 93H450.028L443.55 76.2136H417.185L410.616 93H396.84ZM421.29 65.6309H439.536L430.413 42.0935L421.29 65.6309Z" fill="url(#paint0_linear_1603_441)"/>
<path fill-rule="evenodd" clip-rule="evenodd" d="M53.322 10.0729C49.234 10.3065 44.5874 11.1992 40.6428 12.5094C36.1251 14.0099 34.4296 14.9527 37.0547 14.5041C44.604 13.215 50.6817 13.4869 56.438 15.372C65.5875 18.3685 72.6034 25.4742 74.7318 33.9009C76.1033 39.332 75.3539 46.2137 72.8727 50.9703C70.6736 55.1864 65.4913 59.5819 60.337 61.6027C59.1461 62.0698 59.1876 61.9697 61.0326 59.9358C63.4797 57.2378 65.0624 53.8369 65.9613 49.3431C66.8593 44.8561 66.8383 43.8263 65.7781 40.2852C64.7262 36.7729 61.89 33.2489 58.8269 31.6483C52.6277 28.4089 44.0177 28.8381 37.5824 32.707C28.4941 38.1711 23.1846 50.5537 25.0904 61.8403C26.5883 70.7098 31.4199 78.0558 40.2056 84.8211C47.4249 90.3803 58.1501 93.0868 68.261 91.9011C79.2469 90.6129 93.8956 84.2372 100.353 77.9336C102.977 75.3713 102.99 75.3461 103.812 71.1625C104.266 68.8531 104.684 65.5054 104.74 63.7231V63.7231C104.799 61.886 103.451 60.3054 101.628 60.0725L100.943 59.985C98.7981 59.7109 97.7317 59.4552 98.5733 59.4173C99.415 59.3795 101.163 59.2172 102.458 59.0566V59.0566C103.776 58.8934 104.734 57.7232 104.632 56.399L104.551 55.341C104.083 49.2083 101.789 41.7217 98.6354 36.0236L98.3009 35.4192C97.5447 34.0533 96.1066 33.2056 94.5453 33.2056V33.2056C93.1502 33.2056 92.0152 33.0032 92.0152 32.7548C92.0152 32.5068 92.9005 32.3039 93.9826 32.3039C96.1429 32.3039 96.5386 31.6402 95.1504 30.3449C94.5073 29.7443 93.332 29.5901 89.1387 29.5536C81.8666 29.4909 80.5082 28.9404 86.5334 28.4981C93.7631 27.9675 93.7225 28.0207 89.8291 24.1874C79.9849 14.4955 66.5887 9.31638 53.322 10.0729ZM40.4242 16.0424C33.1228 17.1462 26.639 20.5033 21.2084 25.9918C2.77423 44.6221 4.03689 73.9682 24.0432 91.8736C35.5869 102.205 48.921 107.085 64.2522 106.589C68.909 106.438 69.7978 106.489 67.9685 106.805C64.3528 107.428 53.9358 106.895 49.6057 105.864C39.7142 103.511 31.7364 99.4103 23.9733 92.6887C15.8259 85.6349 10.843 77.3164 8.49951 66.858C7.6487 63.0613 7.55382 61.6676 7.75057 55.8609C8.00503 48.3404 8.77321 44.889 11.5552 38.7635C13.5838 34.2967 15.2575 31.6885 18.6647 27.6825C20.0882 26.0084 21.0186 24.6391 20.7322 24.6391C19.6423 24.6391 14.2912 28.7434 11.5158 31.7083C6.49577 37.0705 2.89883 43.6112 0.98166 50.863C0.131721 54.0772 -0.0103678 55.6999 0.000562471 62.0612C0.0154277 70.8284 0.680858 73.9037 4.14576 81.2231C6.73886 86.7007 9.59254 90.6567 14.1146 95.0432C21.9932 102.685 31.3097 107.693 42.1906 110.134C47.2871 111.278 59.2619 111.292 64.2522 110.16C67.962 109.319 74.7453 107.035 76.9283 105.893C78.0541 105.304 78.1258 105.167 77.4394 104.919C76.8632 104.711 77.3498 104.403 79.1909 103.81C85.015 101.936 91.8858 97.9134 97.0186 93.3727C99.8771 90.8438 104.471 85.3545 103.895 85.1565C103.685 85.0844 102.451 85.7638 101.153 86.6665C92.5827 92.6238 80.5305 96.3268 69.7174 96.325C51.5027 96.3223 34.8262 86.9722 26.6516 72.1805C22.1755 64.0802 21.6207 53.556 25.2071 44.7754C27.3586 39.5074 31.4479 34.2309 35.3963 31.6272C47.0694 23.9295 61.9158 26.5756 67.0045 37.2603C68.0831 39.5246 68.1867 40.2 68.1823 44.9282C68.1775 49.8319 68.1001 50.2823 66.7575 53.2278C65.9766 54.9407 65.4585 56.4623 65.6067 56.6093C66.1017 57.1008 70.0545 52.1002 71.3945 49.2868C77.6423 36.1701 69.654 21.107 54.2073 16.8793C50.693 15.9171 43.9573 15.5082 40.4242 16.0424ZM20.3191 38.9542C17.0234 42.6374 14.3267 47.5185 13.033 52.1421C12.6513 53.506 12.1896 57.2595 12.0064 60.4832L11.6737 66.3445L11.7545 60.0323C11.8271 54.3703 11.9662 53.3266 13.1042 49.8986C14.6021 45.3859 17.7094 40.3934 20.8083 37.52C22.0303 36.387 23.1238 35.46 23.2383 35.46C23.3524 35.46 22.0391 37.0326 20.3191 38.9542ZM46.6973 44.6279C45.5829 45.9738 45.3617 46.0685 44.5896 45.5297C44.1156 45.1987 43.2399 44.9282 42.644 44.9282C41.9291 44.9282 41.7083 44.7763 41.9938 44.4819C42.2623 44.205 42.933 44.1847 43.7562 44.4282C44.7929 44.7348 45.3188 44.637 46.1434 43.9832C47.7991 42.6707 48.0636 42.9787 46.6973 44.6279ZM84.7802 47.3679C84.3163 47.7182 83.7506 47.8859 83.5232 47.7412C83.2963 47.5965 83.4909 47.3241 83.9556 47.1366C85.325 46.5834 85.6861 46.6848 84.7802 47.3679ZM53.217 48.4225C52.9626 49.1145 53.0723 49.1186 51.2955 48.3481V48.3481C50.9922 48.2165 51.0962 47.7627 51.4265 47.7763L51.6243 47.7845C52.862 47.8354 53.3596 48.0347 53.217 48.4225ZM43.9219 50.1619C43.9219 50.5348 43.0729 50.7458 42.8783 50.4212C42.752 50.2106 42.9351 50.0379 43.2853 50.0379C43.6356 50.0379 43.9219 50.0938 43.9219 50.1619ZM87.8175 51.3233C88.3915 51.2976 88.5079 51.4307 88.1935 51.7548C87.8796 52.0786 87.3536 51.9929 86.4888 51.4775C85.8011 51.0677 85.6319 50.8734 86.1128 51.0465C86.5937 51.2192 87.361 51.3441 87.8175 51.3233ZM107.318 72.1147C105.748 74.8001 99.216 81.5103 96.3348 83.3981C90.2786 87.3667 82.9312 90.4457 73.5229 92.9588C66.3141 94.8845 69.0301 95.6352 78.3536 94.2943C92.6028 92.2446 104.293 84.023 108.258 73.264C109.334 70.3428 108.762 69.6439 107.318 72.1147ZM76.1571 105.166C76.0119 105.316 75.6346 105.332 75.3194 105.202C74.9705 105.058 75.0741 104.951 75.5834 104.929C76.0443 104.91 76.3022 105.016 76.1571 105.166ZM73.6523 105.795C73.0511 105.994 72.0674 106.153 71.4662 106.148C70.4843 106.14 70.5066 106.105 71.6848 105.795C72.4062 105.606 73.39 105.447 73.8709 105.443C74.556 105.436 74.5088 105.513 73.6523 105.795Z" fill="url(#paint1_linear_1603_441)"/>
<path fill-rule="evenodd" clip-rule="evenodd" d="M40.6476 16.0424C33.3058 17.1462 26.7861 20.5033 21.3255 25.9918C2.78956 44.6221 4.05919 73.9682 24.1761 91.8736C35.7835 102.205 49.1913 107.085 64.6072 106.589C69.2897 106.438 70.1835 106.489 68.3441 106.805C64.7084 107.428 54.2338 106.895 49.8797 105.864C39.9336 103.511 31.9117 99.4103 24.1057 92.6887C15.9133 85.6349 10.9029 77.3164 8.54647 66.858C7.69096 63.0613 7.59556 61.6676 7.79339 55.8609C8.04925 48.3404 8.82168 44.889 11.619 38.7635C13.6589 34.2967 15.3418 31.6885 18.7678 27.6825C20.1992 26.0084 21.1347 24.6391 20.8468 24.6391C19.7508 24.6391 14.3702 28.7434 11.5795 31.7083C6.53166 37.0705 2.91485 43.6112 0.987083 50.863C0.132449 54.0772 -0.0104251 55.6999 0.000565578 62.0612C0.0155129 70.8284 0.68462 73.9037 4.16866 81.2231C6.77609 86.7007 9.64554 90.6567 14.1926 95.0432C22.1147 102.685 31.4827 107.693 42.4237 110.134C47.5484 111.278 59.5893 111.292 64.6072 110.16C68.3375 109.319 75.1583 107.035 77.3533 105.893C78.4854 105.304 78.5575 105.167 77.8673 104.919C77.2878 104.711 77.7771 104.403 79.6284 103.81C85.4847 101.936 92.3934 97.9134 97.5546 93.3727C100.429 90.8438 105.049 85.3545 104.469 85.1565C104.258 85.0844 103.017 85.7638 101.712 86.6665C93.0942 92.6238 80.9754 96.3268 70.1026 96.325C51.7873 96.3223 35.0186 86.9722 26.7989 72.1805C22.298 64.0802 21.7401 53.556 25.3464 44.7754C27.5098 39.5074 31.6216 34.2309 35.5919 31.6272C47.3295 23.9295 62.2579 26.5756 67.3747 37.2603C68.4593 39.5246 68.5634 40.2 68.5591 44.9282C68.5542 49.8319 68.4764 50.2823 67.1263 53.2278C66.3411 54.9407 65.8202 56.4623 65.9692 56.6093C66.4669 57.1008 70.4415 52.1002 71.789 49.2868C78.0713 36.1701 70.0388 21.107 54.5068 16.8793C50.9731 15.9171 44.2002 15.5082 40.6476 16.0424ZM20.4313 38.9542C17.1174 42.6374 14.4058 47.5185 13.105 52.1421C12.7212 53.506 12.2569 57.2595 12.0727 60.4832L11.7382 66.3445L11.8195 60.0323C11.8925 54.3703 12.0323 53.3266 13.1766 49.8986C14.6828 45.3859 17.8072 40.3934 20.9233 37.52C22.152 36.387 23.2515 35.46 23.3667 35.46C23.4815 35.46 22.1608 37.0326 20.4313 38.9542ZM107.91 72.1147C106.332 74.8001 99.7642 81.5103 96.8671 83.3981C90.7773 87.3667 83.3894 90.4457 73.9291 92.9588C66.6805 94.8845 69.4115 95.6352 78.7865 94.2943C93.1144 92.2446 104.87 84.023 108.856 73.264C109.938 70.3428 109.363 69.6439 107.91 72.1147ZM76.5778 105.166C76.4319 105.316 76.0525 105.332 75.7355 105.202C75.3847 105.058 75.4889 104.951 76.001 104.929C76.4644 104.91 76.7238 105.016 76.5778 105.166ZM74.0592 105.795C73.4547 105.994 72.4656 106.153 71.8611 106.148C70.8737 106.14 70.8961 106.105 72.0809 105.795C72.8063 105.606 73.7954 105.447 74.279 105.443C74.9679 105.436 74.9204 105.513 74.0592 105.795Z" fill="url(#paint2_linear_1603_441)"/>
<g filter="url(#filter0_b_1603_441)">
<path fill-rule="evenodd" clip-rule="evenodd" d="M40.8643 16.0422C33.4834 17.1459 26.9289 20.5031 21.4392 25.9915C2.80443 44.6218 4.08084 73.968 24.305 91.8733C35.9743 102.205 49.4535 107.085 64.9517 106.588C69.6591 106.437 70.5576 106.489 68.7084 106.805C65.0533 107.428 54.5229 106.894 50.1457 105.864C40.1465 103.511 32.0819 99.41 24.2342 92.6885C15.9981 85.6346 10.961 77.3161 8.59203 66.8578C7.73196 63.061 7.63605 61.6674 7.83494 55.8606C8.09217 48.3402 8.86871 44.8888 11.681 38.7633C13.7317 34.2965 15.4236 31.6882 18.8678 27.6823C20.3069 26.0082 21.2474 24.6389 20.9579 24.6389C19.8561 24.6389 14.4468 28.7432 11.6412 31.7081C6.56648 37.0702 2.93039 43.611 0.992346 50.8628C0.133155 54.077 -0.0104807 55.6997 0.000568594 62.061C0.0155956 70.8281 0.68827 73.9035 4.19089 81.2229C6.81221 86.7005 9.69696 90.6564 14.2683 95.0429C22.2326 102.685 31.6505 107.693 42.6498 110.134C47.8019 111.277 59.907 111.291 64.9517 110.16C68.7018 109.319 75.559 107.035 77.7657 105.893C78.9038 105.303 78.9763 105.167 78.2824 104.919C77.6999 104.71 78.1918 104.402 80.0529 103.81C85.9404 101.936 92.886 97.9132 98.0747 93.3725C100.964 90.8435 105.609 85.3542 105.026 85.1563C104.814 85.0841 103.567 85.7636 102.254 86.6662C93.5905 92.6236 81.4071 96.3265 70.4763 96.3247C52.0634 96.322 35.2053 86.9719 26.9418 72.1803C22.4169 64.08 21.856 53.5558 25.4815 44.7751C27.6564 39.5072 31.7902 34.2307 35.7816 31.6269C47.5818 23.9292 62.5898 26.5754 67.7339 37.2601C68.8242 39.5243 68.929 40.1997 68.9246 44.928C68.9197 49.8316 68.8415 50.282 67.4842 53.2276C66.6948 54.9404 66.1711 56.4621 66.3209 56.6091C66.8212 57.1005 70.8171 52.1 72.1717 49.2865C78.4875 36.1699 70.4122 21.1068 54.7974 16.879C51.2448 15.9169 44.4358 15.5079 40.8643 16.0422ZM20.5403 38.954C17.2087 42.6371 14.4826 47.5182 13.1748 52.1419C12.789 53.5058 12.3223 57.2592 12.1371 60.4829L11.8007 66.3442L11.8825 60.0321C11.9559 54.3701 12.0964 53.3263 13.2469 49.8984C14.7611 45.3856 17.9021 40.3931 21.0348 37.5198C22.2701 36.3867 23.3755 35.4597 23.4913 35.4597C23.6067 35.4597 22.279 37.0324 20.5403 38.954ZM108.486 72.1145C106.899 74.7998 100.296 81.5101 97.3835 83.3979C91.2613 87.3664 83.834 90.4454 74.3232 92.9586C67.036 94.8842 69.7815 95.6349 79.2065 94.294C93.6108 92.2444 105.429 84.0228 109.436 73.2637C110.524 70.3425 109.946 69.6437 108.486 72.1145ZM76.9861 105.166C76.8394 105.316 76.4579 105.332 76.1393 105.201C75.7866 105.058 75.8913 104.951 76.4062 104.929C76.8721 104.91 77.1328 105.016 76.9861 105.166ZM74.454 105.795C73.8463 105.994 72.8519 106.152 72.2442 106.148C71.2515 106.14 71.2741 106.105 72.4652 105.795C73.1944 105.606 74.1889 105.447 74.675 105.443C75.3676 105.436 75.3199 105.513 74.454 105.795Z" fill="white" fill-opacity="0.25"/>
</g>
<defs>
<filter id="filter0_b_1603_441" x="-11" y="-1" width="132" height="123" filterUnits="userSpaceOnUse" color-interpolation-filters="sRGB">
<feFlood flood-opacity="0" result="BackgroundImageFix"/>
<feGaussianBlur in="BackgroundImage" stdDeviation="5.5"/>
<feComposite in2="SourceAlpha" operator="in" result="effect1_backgroundBlur_1603_441"/>
<feBlend mode="normal" in="SourceGraphic" in2="effect1_backgroundBlur_1603_441" result="shape"/>
</filter>
<linearGradient id="paint0_linear_1603_441" x1="129.611" y1="67.0187" x2="492.79" y2="75.6782" gradientUnits="userSpaceOnUse">
<stop stop-color="#55ADFF"/>
<stop offset="1" stop-color="#9543E4"/>
</linearGradient>
<linearGradient id="paint1_linear_1603_441" x1="44.9945" y1="1.37513" x2="112.347" y2="74.4213" gradientUnits="userSpaceOnUse">
<stop stop-color="#55ADFF"/>
<stop offset="1" stop-color="#A528DD"/>
</linearGradient>
<linearGradient id="paint2_linear_1603_441" x1="45.243" y1="1.37513" x2="112.565" y2="74.7911" gradientUnits="userSpaceOnUse">
<stop stop-color="#55ADFF"/>
<stop offset="1" stop-color="#A528DD"/>
</linearGradient>
</defs>
</svg>
