<svg width="472" height="113" viewBox="0 0 472 113" fill="none" xmlns="http://www.w3.org/2000/svg">
<path d="M135.718 92V28.4697H166.757C171.053 28.4697 174.834 29.3168 178.102 31.0109C181.429 32.6445 184.001 34.9437 185.816 37.9085C187.692 40.8732 188.629 44.2918 188.629 48.1641C188.629 52.2179 187.51 55.7877 185.271 58.8735C183.033 61.9592 180.038 64.2584 176.286 65.7711L190.354 92H175.651L163.217 67.677H148.878V92H135.718ZM148.878 56.8768H165.577C168.542 56.8768 170.901 56.0903 172.656 54.5171C174.471 52.944 175.379 50.8868 175.379 48.3456C175.379 45.8044 174.471 43.7472 172.656 42.1741C170.901 40.601 168.542 39.8144 165.577 39.8144H148.878V56.8768ZM197.316 92V28.4697H210.476V92H197.316ZM241.738 92L215.963 28.4697H230.212L249.634 78.4771L269.51 28.4697H283.124L256.985 92H241.738ZM288.517 92V28.4697H337.344V39.9052H301.676V54.4264H325.183V65.4988H301.676V80.5645H337.707V92H288.517ZM347.013 92V28.4697H378.052C382.348 28.4697 386.129 29.3168 389.396 31.0109C392.724 32.6445 395.296 34.9437 397.111 37.9085C398.987 40.8732 399.924 44.2918 399.924 48.1641C399.924 52.2179 398.805 55.7877 396.566 58.8735C394.328 61.9592 391.333 64.2584 387.581 65.7711L401.649 92H386.946L374.512 67.677H360.173V92H347.013ZM360.173 56.8768H376.872C379.837 56.8768 382.196 56.0903 383.951 54.5171C385.766 52.944 386.674 50.8868 386.674 48.3456C386.674 45.8044 385.766 43.7472 383.951 42.1741C382.196 40.601 379.837 39.8144 376.872 39.8144H360.173V56.8768ZM403.416 92L429.555 28.4697H444.711L470.577 92H456.328L449.884 75.3006H423.655L417.121 92H403.416ZM427.739 64.7727H445.891L436.815 41.3573L427.739 64.7727Z" fill="white"/>
<path fill-rule="evenodd" clip-rule="evenodd" d="M56.2532 6.07629C51.9629 6.32141 47.0862 7.25832 42.9464 8.63341C38.205 10.2082 36.4256 11.1976 39.1805 10.7268C47.1036 9.37395 53.4822 9.65928 59.5234 11.6377C69.1259 14.7825 76.4892 22.2399 78.7229 31.0838C80.1623 36.7839 79.3758 44.0062 76.7718 48.9983C74.4638 53.4231 69.025 58.0362 63.6155 60.157C62.3656 60.6473 62.4092 60.5422 64.3455 58.4076C66.9138 55.5761 68.5748 52.0068 69.5182 47.2906C70.4607 42.5814 70.4387 41.5006 69.326 37.7842C68.222 34.0981 65.2454 30.3996 62.0306 28.7198C55.5245 25.3199 46.4883 25.7704 39.7344 29.8308C30.1962 35.5654 24.6238 48.5611 26.624 60.4064C28.196 69.715 33.2668 77.4246 42.4875 84.5248C50.0641 90.3592 61.3203 93.1998 71.9318 91.9553C83.4615 90.6034 98.8354 83.912 105.612 77.2964C108.367 74.6073 108.381 74.5808 109.243 70.1901C109.719 67.7664 110.158 64.253 110.217 62.3824V62.3824C110.278 60.4543 108.864 58.7955 106.951 58.551L106.232 58.4592C103.981 58.1715 102.861 57.9032 103.745 57.8635C104.628 57.8237 106.463 57.6534 107.822 57.4849V57.4849C109.205 57.3136 110.21 56.0855 110.104 54.6957L110.019 53.5854C109.527 47.1491 107.12 39.2918 103.81 33.3116L103.459 32.6774C102.665 31.2438 101.156 30.3542 99.5173 30.3542V30.3542C98.0531 30.3542 96.8619 30.1417 96.8619 29.881C96.8619 29.6207 97.7911 29.4078 98.9267 29.4078C101.194 29.4078 101.609 28.7113 100.152 27.3518C99.4774 26.7215 98.2439 26.5597 93.8431 26.5214C86.2109 26.4556 84.7853 25.8778 91.1088 25.4136C98.6964 24.8567 98.6537 24.9125 94.5676 20.8895C84.236 10.7178 70.1767 5.28228 56.2532 6.07629ZM42.7169 12.3413C35.0541 13.4997 28.2492 17.023 22.5498 22.7832C3.20307 42.3358 4.52824 73.1347 25.525 91.9264C37.6402 102.77 51.6343 107.891 67.7246 107.37C72.6118 107.211 73.5447 107.266 71.6248 107.597C67.8301 108.251 56.8974 107.691 52.3529 106.61C41.9718 104.14 33.599 99.8363 25.4516 92.782C16.9008 85.3789 11.6712 76.6486 9.21178 65.6725C8.31885 61.6878 8.21928 60.2252 8.42576 54.131C8.69282 46.2382 9.49903 42.6159 12.4187 36.1872C14.5478 31.4993 16.3043 28.7619 19.8802 24.5576C21.3742 22.8007 22.3507 21.3636 22.0501 21.3636C20.9062 21.3636 15.2902 25.671 12.3774 28.7827C7.10885 34.4104 3.33384 41.2749 1.32176 48.8857C0.429746 52.259 0.280623 53.962 0.292094 60.6383C0.307695 69.8394 1.00607 73.067 4.6425 80.7488C7.36397 86.4976 10.3589 90.6493 15.1049 95.253C23.3734 103.274 33.1512 108.529 44.5707 111.091C49.9196 112.291 62.4872 112.306 67.7246 111.118C71.6179 110.236 78.7371 107.839 81.0282 106.64C82.2097 106.021 82.285 105.878 81.5646 105.618C80.9598 105.399 81.4705 105.076 83.4027 104.454C89.5151 102.487 96.7261 98.2653 102.113 93.4998C105.113 90.8457 109.935 85.0846 109.329 84.8769C109.11 84.8012 107.815 85.5143 106.452 86.4616C97.4575 92.7138 84.8087 96.6001 73.4603 96.5982C54.3439 96.5954 36.8418 86.7824 28.2625 71.2585C23.5648 62.7572 22.9825 51.712 26.7465 42.4967C29.0045 36.9679 33.2962 31.4302 37.4401 28.6976C49.6911 20.6188 65.2724 23.3959 70.6131 34.6096C71.7451 36.9859 71.8538 37.6948 71.8492 42.6571C71.8442 47.8035 71.763 48.2762 70.3538 51.3676C69.5343 53.1652 68.9905 54.7622 69.1461 54.9165C69.6655 55.4322 73.814 50.1841 75.2204 47.2314C81.7775 33.4654 73.3937 17.6566 57.1824 13.2196C53.4941 12.2098 46.425 11.7806 42.7169 12.3413ZM21.6165 36.3873C18.1576 40.2528 15.3274 45.3756 13.9697 50.2281C13.5691 51.6595 13.0845 55.5988 12.8923 58.9821L12.5431 65.1336L12.628 58.5089C12.7041 52.5666 12.85 51.4712 14.0444 47.8735C15.6165 43.1374 18.8776 37.8978 22.1299 34.8821C23.4124 33.693 24.56 32.7201 24.6803 32.7201C24.8 32.7201 23.4216 34.3706 21.6165 36.3873ZM49.3006 42.3419C48.131 43.7544 47.8988 43.8538 47.0885 43.2883C46.5911 42.941 45.672 42.6571 45.0466 42.6571C44.2963 42.6571 44.0646 42.4976 44.3642 42.1886C44.646 41.8981 45.3499 41.8768 46.2139 42.1323C47.3018 42.4541 47.8538 42.3514 48.7192 41.6653C50.4569 40.2878 50.7345 40.611 49.3006 42.3419ZM89.2687 45.2175C88.7819 45.5852 88.1881 45.7612 87.9495 45.6093C87.7114 45.4574 87.9156 45.1716 88.4033 44.9748C89.8405 44.3942 90.2195 44.5006 89.2687 45.2175ZM56.1431 46.3243C55.876 47.0507 55.9912 47.0549 54.1264 46.2462V46.2462C53.8081 46.1082 53.9172 45.6318 54.2639 45.6462L54.4714 45.6547C55.7705 45.7082 56.2926 45.9174 56.1431 46.3243ZM46.3878 48.1499C46.3878 48.5412 45.4967 48.7626 45.2925 48.422C45.1599 48.201 45.3522 48.0197 45.7197 48.0197C46.0872 48.0197 46.3878 48.0784 46.3878 48.1499ZM92.4564 49.3688C93.0589 49.3418 93.1809 49.4814 92.851 49.8216C92.5216 50.1614 91.9696 50.0715 91.0619 49.5306C90.3402 49.1005 90.1626 48.8966 90.6673 49.0783C91.1721 49.2595 91.9774 49.3906 92.4564 49.3688ZM112.922 71.1894C111.274 74.0077 104.419 81.0502 101.395 83.0314C95.0393 87.1965 87.3282 90.4279 77.4541 93.0654C69.8885 95.0864 72.7389 95.8743 82.524 94.467C97.4786 92.3159 109.748 83.6873 113.908 72.3956C115.038 69.3298 114.438 68.5964 112.922 71.1894ZM80.2187 105.877C80.0664 106.034 79.6704 106.051 79.3396 105.914C78.9734 105.763 79.0821 105.651 79.6167 105.629C80.1003 105.608 80.3711 105.72 80.2187 105.877ZM77.59 106.538C76.959 106.746 75.9266 106.912 75.2957 106.908C74.2651 106.9 74.2885 106.862 75.5251 106.538C76.2822 106.339 77.3146 106.172 77.8194 106.168C78.5384 106.16 78.4889 106.241 77.59 106.538Z" fill="white"/>
<g filter="url(#filter0_b_1603_436)">
<path fill-rule="evenodd" clip-rule="evenodd" d="M42.9513 12.3413C35.2461 13.4997 28.4037 17.023 22.6728 22.7832C3.21916 42.3358 4.55165 73.1347 25.6644 91.9264C37.8465 102.77 51.918 107.891 68.0971 107.37C73.0114 107.211 73.9494 107.266 72.0189 107.597C68.2032 108.251 57.2101 107.691 52.6405 106.61C42.202 104.14 33.783 99.8363 25.5906 92.782C16.9926 85.3789 11.7341 76.6486 9.26106 65.6725C8.3632 61.6878 8.26308 60.2252 8.4707 54.131C8.73923 46.2382 9.5499 42.6159 12.4857 36.1872C14.6266 31.4993 16.3928 28.7619 19.9884 24.5576C21.4907 22.8007 22.4725 21.3636 22.1703 21.3636C21.0201 21.3636 15.3731 25.671 12.4442 28.7827C7.14651 34.4104 3.35065 41.2749 1.32745 48.8857C0.430509 52.259 0.280563 53.962 0.292097 60.6383C0.307785 69.8394 1.01002 73.067 4.66654 80.7488C7.40304 86.4976 10.4145 90.6493 15.1867 95.253C23.501 103.274 33.3327 108.529 44.8154 111.091C50.1938 112.291 62.8308 112.306 68.0971 111.118C72.012 110.236 79.1705 107.839 81.4742 106.64C82.6623 106.021 82.738 105.878 82.0136 105.618C81.4055 105.399 81.919 105.076 83.8619 104.454C90.0081 102.487 97.2588 98.2653 102.676 93.4998C105.692 90.8457 110.54 85.0846 109.932 84.8769C109.711 84.8012 108.409 85.5143 107.038 86.4616C97.9943 92.7138 85.2756 96.6001 73.8645 96.5982C54.6425 96.5954 37.0437 86.7824 28.4171 71.2585C23.6934 62.7572 23.1079 51.712 26.8926 42.4967C29.1631 36.9679 33.4785 31.4302 37.6453 28.6976C49.964 20.6188 65.6314 23.3959 71.0016 34.6096C72.1398 36.9859 72.2492 37.6948 72.2446 42.6571C72.2395 47.8035 72.1578 48.2762 70.7409 51.3676C69.9168 53.1652 69.3701 54.7622 69.5265 54.9165C70.0488 55.4322 74.2202 50.1841 75.6344 47.2314C82.2277 33.4654 73.7976 17.6566 57.4967 13.2196C53.788 12.2098 46.6798 11.7806 42.9513 12.3413ZM21.7343 36.3873C18.2563 40.2528 15.4105 45.3756 14.0452 50.2281C13.6424 51.6595 13.1552 55.5988 12.9619 58.9821L12.6108 65.1336L12.6961 58.5089C12.7727 52.5666 12.9194 51.4712 14.1204 47.8735C15.7012 43.1374 18.9803 37.8978 22.2506 34.8821C23.5402 33.693 24.6941 32.7201 24.815 32.7201C24.9354 32.7201 23.5494 34.3706 21.7343 36.3873ZM113.544 71.1894C111.887 74.0077 104.995 81.0502 101.954 83.0314C95.5628 87.1965 87.8091 90.4279 77.8804 93.0654C70.273 95.0864 73.1392 95.8743 82.9783 94.467C98.0155 92.3159 110.353 83.6873 114.536 72.3956C115.672 69.3298 115.069 68.5964 113.544 71.1894ZM80.6603 105.877C80.5071 106.034 80.1089 106.051 79.7763 105.914C79.4081 105.763 79.5174 105.651 80.055 105.629C80.5413 105.608 80.8135 105.72 80.6603 105.877ZM78.017 106.538C77.3826 106.746 76.3445 106.912 75.7101 106.908C74.6738 106.9 74.6973 106.862 75.9408 106.538C76.702 106.339 77.7402 106.172 78.2477 106.168C78.9707 106.16 78.9209 106.241 78.017 106.538Z" fill="white" fill-opacity="0.25"/>
</g>
<defs>
<filter id="filter0_b_1603_436" x="-11.2531" y="-5.54455" width="137.923" height="129.089" filterUnits="userSpaceOnUse" color-interpolation-filters="sRGB">
<feFlood flood-opacity="0" result="BackgroundImageFix"/>
<feGaussianBlur in="BackgroundImage" stdDeviation="5.77228"/>
<feComposite in2="SourceAlpha" operator="in" result="effect1_backgroundBlur_1603_436"/>
<feBlend mode="normal" in="SourceGraphic" in2="effect1_backgroundBlur_1603_436" result="shape"/>
</filter>
</defs>
</svg>
