<svg width="192" height="197" viewBox="0 0 192 197" fill="none" xmlns="http://www.w3.org/2000/svg">
<path d="M3.20995 186V150.334H20.6354C23.0471 150.334 25.1701 150.809 27.0044 151.761C28.8726 152.678 30.3162 153.968 31.3352 155.633C32.3882 157.297 32.9147 159.216 32.9147 161.39C32.9147 163.666 32.2863 165.67 31.0295 167.403C29.7727 169.135 28.0913 170.426 25.9853 171.275L33.8828 186H25.6287L18.6483 172.345H10.5979V186H3.20995ZM10.5979 166.282H19.973C21.6375 166.282 22.9622 165.84 23.9473 164.957C24.9663 164.074 25.4758 162.919 25.4758 161.492C25.4758 160.066 24.9663 158.911 23.9473 158.028C22.9622 157.144 21.6375 156.703 19.973 156.703H10.5979V166.282ZM37.7914 186V150.334H45.1794V186H37.7914ZM62.7302 186L48.2599 150.334H56.2593L67.163 178.408L78.3214 150.334H85.9641L71.2901 186H62.7302ZM88.9918 186V150.334H116.404V156.754H96.3798V164.906H109.576V171.122H96.3798V179.58H116.608V186H88.9918ZM121.832 186V150.334H139.257C141.669 150.334 143.792 150.809 145.626 151.761C147.494 152.678 148.938 153.968 149.957 155.633C151.01 157.297 151.536 159.216 151.536 161.39C151.536 163.666 150.908 165.67 149.651 167.403C148.394 169.135 146.713 170.426 144.607 171.275L152.505 186H144.25L137.27 172.345H129.22V186H121.832ZM129.22 166.282H138.595C140.259 166.282 141.584 165.84 142.569 164.957C143.588 164.074 144.098 162.919 144.098 161.492C144.098 160.066 143.588 158.911 142.569 158.028C141.584 157.144 140.259 156.703 138.595 156.703H129.22V166.282ZM153.497 186L168.171 150.334H176.68L191.201 186H183.202L179.584 176.625H164.859L161.191 186H153.497ZM167.152 170.715H177.342L172.247 157.569L167.152 170.715Z" fill="white"/>
<path fill-rule="evenodd" clip-rule="evenodd" d="M93.9231 0.0892496C88.9043 0.375984 83.1994 1.472 78.3566 3.08059C72.8102 4.92277 70.7285 6.08023 73.9513 5.52946C83.2198 3.94688 90.6815 4.28066 97.7487 6.59502C108.982 10.2739 117.595 18.9977 120.208 29.3434C121.892 36.0113 120.972 44.46 117.926 50.2999C115.226 55.4761 108.864 60.8725 102.536 63.3535C101.073 63.927 101.124 63.8041 103.39 61.3071C106.394 57.9947 108.337 53.8193 109.441 48.3022C110.543 42.7933 110.517 41.529 109.216 37.1815C107.924 32.8694 104.442 28.5429 100.682 26.5779C93.0707 22.6007 82.5 23.1276 74.5992 27.8776C63.4413 34.586 56.9227 49.7884 59.2625 63.6452C61.1015 74.5345 67.0334 83.5533 77.8199 91.8592C86.6831 98.6844 99.8507 102.007 112.264 100.552C125.752 98.97 143.736 91.1424 151.664 83.4033C154.886 80.2576 154.902 80.2266 155.911 75.0903C156.469 72.255 156.981 68.145 157.05 65.9568V65.9568C157.122 63.7013 155.468 61.7607 153.229 61.4748L152.389 61.3674C149.755 61.0309 148.446 60.717 149.479 60.6705C150.513 60.624 152.659 60.4247 154.249 60.2277V60.2277C155.867 60.0272 157.042 58.5906 156.918 56.9648L156.819 55.6659C156.243 48.1367 153.428 38.9451 149.555 31.9494L149.145 31.2075C148.216 29.5305 146.451 28.4898 144.534 28.4898V28.4898C142.821 28.4898 141.428 28.2413 141.428 27.9363C141.428 27.6318 142.515 27.3827 143.843 27.3827C146.495 27.3827 146.981 26.5679 145.277 24.9776C144.487 24.2403 143.044 24.051 137.896 24.0061C128.968 23.9292 127.3 23.2533 134.698 22.7103C143.574 22.0588 143.524 22.1241 138.744 17.4179C126.658 5.51894 110.211 -0.839593 93.9231 0.0892496ZM78.0883 7.41814C69.1241 8.77321 61.1638 12.8949 54.4965 19.6331C31.8645 42.506 33.4147 78.5349 57.9769 100.518C72.1494 113.202 88.5199 119.193 107.342 118.584C113.06 118.398 114.151 118.462 111.905 118.849C107.466 119.614 94.6767 118.96 89.3605 117.695C77.2165 114.806 67.422 109.771 57.891 101.519C47.8883 92.8584 41.7706 82.6455 38.8935 69.8056C37.849 65.1442 37.7325 63.4332 37.974 56.3042C38.2864 47.0711 39.2296 42.8337 42.6451 35.3133C45.1357 29.8294 47.1905 26.6271 51.3735 21.7089C53.1213 19.6536 54.2635 17.9725 53.9119 17.9725C52.5738 17.9725 46.0042 23.0114 42.5967 26.6515C36.4335 33.2348 32.0175 41.265 29.6637 50.1681C28.6202 54.1143 28.4458 56.1065 28.4592 63.9165C28.4774 74.6801 29.2944 78.4558 33.5483 87.442C36.7319 94.167 40.2355 99.0237 45.7873 104.409C55.46 113.792 66.8981 119.94 80.2568 122.937C86.514 124.34 101.216 124.358 107.342 122.968C111.897 121.936 120.225 119.132 122.905 117.73C124.287 117.006 124.375 116.839 123.533 116.534C122.825 116.278 123.423 115.9 125.683 115.173C132.833 112.872 141.269 107.933 147.57 102.358C151.08 99.2535 156.72 92.5141 156.012 92.2711C155.755 92.1825 154.24 93.0167 152.646 94.1249C142.124 101.439 127.328 105.985 114.052 105.983C91.6896 105.98 71.2154 94.5002 61.1793 76.3402C55.6838 66.3952 55.0027 53.4745 59.4058 42.6942C62.0473 36.2267 67.0677 29.7486 71.9154 26.5519C86.2467 17.1012 104.474 20.35 110.721 33.4678C112.046 36.2477 112.173 37.0769 112.168 42.8819C112.162 48.9022 112.067 49.4552 110.418 53.0715C109.459 55.1744 108.823 57.0426 109.005 57.223C109.613 57.8264 114.466 51.6871 116.111 48.233C123.782 32.1293 113.974 13.6361 95.0101 8.44551C90.6955 7.26426 82.4259 6.76219 78.0883 7.41814ZM53.4047 35.5475C49.3585 40.0693 46.0477 46.062 44.4594 51.7385C43.9907 53.413 43.4239 58.0212 43.199 61.9791L42.7905 69.1751L42.8898 61.4255C42.9789 54.4742 43.1496 53.1927 44.5468 48.9841C46.3858 43.4437 50.2007 37.3144 54.0053 33.7866C55.5056 32.3956 56.8481 31.2575 56.9887 31.2575C57.1288 31.2575 55.5164 33.1883 53.4047 35.5475ZM85.7899 42.5132C84.4216 44.1655 84.1501 44.2818 83.2021 43.6203C82.6202 43.214 81.5451 42.8819 80.8135 42.8819C79.9358 42.8819 79.6648 42.6953 80.0153 42.3339C80.3449 41.994 81.1683 41.9691 82.179 42.268C83.4517 42.6444 84.0974 42.5243 85.1098 41.7217C87.1426 40.1103 87.4673 40.4884 85.7899 42.5132ZM132.545 45.8771C131.976 46.3072 131.281 46.5131 131.002 46.3354C130.723 46.1577 130.962 45.8234 131.533 45.5931C133.214 44.9139 133.657 45.0385 132.545 45.8771ZM93.7943 47.1718C93.4819 48.0215 93.6166 48.0265 91.4351 47.0805V47.0805C91.0628 46.919 91.1905 46.3618 91.596 46.3785L91.8388 46.3886C93.3584 46.4511 93.9693 46.6958 93.7943 47.1718ZM82.3825 49.3074C82.3825 49.7652 81.34 50.0242 81.1012 49.6257C80.946 49.3672 81.171 49.1552 81.6009 49.1552C82.0309 49.1552 82.3825 49.2238 82.3825 49.3074ZM136.274 50.7333C136.979 50.7018 137.122 50.8651 136.736 51.2631C136.35 51.6605 135.705 51.5553 134.643 50.9226C133.798 50.4195 133.591 50.1809 134.181 50.3934C134.772 50.6055 135.714 50.7588 136.274 50.7333ZM160.215 76.2593C158.287 79.5562 150.268 87.7946 146.731 90.1123C139.296 94.9845 130.275 98.7647 118.724 101.85C109.874 104.214 113.208 105.136 124.655 103.49C142.149 100.973 156.502 90.8795 161.369 77.6703C162.69 74.0839 161.988 73.2259 160.215 76.2593ZM121.958 116.837C121.78 117.021 121.317 117.041 120.93 116.881C120.501 116.704 120.629 116.573 121.254 116.547C121.82 116.523 122.136 116.653 121.958 116.837ZM118.883 117.61C118.145 117.854 116.937 118.048 116.199 118.043C114.994 118.033 115.021 117.99 116.468 117.61C117.353 117.377 118.561 117.183 119.151 117.177C119.993 117.169 119.935 117.263 118.883 117.61Z" fill="white"/>
<g filter="url(#filter0_b_1603_431)">
<path fill-rule="evenodd" clip-rule="evenodd" d="M78.3624 7.41814C69.3488 8.77321 61.3445 12.8949 54.6403 19.6331C31.8833 42.506 33.4421 78.5349 58.14 100.518C72.3908 113.202 88.8517 119.193 107.778 118.584C113.527 118.398 114.624 118.462 112.366 118.849C107.902 119.614 95.0426 118.96 89.697 117.695C77.4859 114.806 67.6373 109.771 58.0537 101.519C47.9956 92.8584 41.8442 82.6455 38.9512 69.8056C37.9009 65.1442 37.7837 63.4332 38.0266 56.3042C38.3407 47.0711 39.2891 42.8337 42.7234 35.3133C45.2278 29.8294 47.2939 26.6271 51.5001 21.7089C53.2575 19.6536 54.4061 17.9725 54.0526 17.9725C52.707 17.9725 46.1011 23.0114 42.6749 26.6515C36.4776 33.2348 32.0371 41.265 29.6704 50.1681C28.6211 54.1143 28.4457 56.1065 28.4592 63.9165C28.4775 74.6801 29.299 78.4558 33.5765 87.442C36.7777 94.167 40.3005 99.0237 45.8831 104.409C55.6092 113.792 67.1105 119.94 80.543 122.937C86.8347 124.34 101.618 124.358 107.778 122.968C112.358 121.936 120.732 119.132 123.427 117.73C124.817 117.006 124.905 116.839 124.058 116.534C123.347 116.278 123.947 115.9 126.22 115.173C133.41 112.872 141.892 107.933 148.229 102.358C151.757 99.2535 157.429 92.5141 156.717 92.2711C156.458 92.1825 154.935 93.0167 153.332 94.1249C142.752 101.439 127.874 105.985 114.525 105.983C92.0389 105.98 71.4516 94.5002 61.3601 76.3402C55.8342 66.3952 55.1493 53.4745 59.5768 42.6942C62.2329 36.2267 67.281 29.7486 72.1554 26.5519C86.566 17.1012 104.894 20.35 111.176 33.4678C112.507 36.2477 112.635 37.0769 112.63 42.8819C112.624 48.9022 112.529 49.4552 110.871 53.0715C109.907 55.1744 109.267 57.0426 109.45 57.223C110.061 57.8264 114.941 51.6871 116.595 48.233C124.308 32.1293 114.447 13.6361 95.3777 8.44551C91.0393 7.26426 82.7241 6.76219 78.3624 7.41814ZM53.5425 35.5475C49.474 40.0693 46.1448 46.062 44.5478 51.7385C44.0766 53.413 43.5066 58.0212 43.2804 61.9791L42.8697 69.1751L42.9695 61.4255C43.0591 54.4742 43.2308 53.1927 44.6357 48.9841C46.4849 43.4437 50.3208 37.3144 54.1465 33.7866C55.6551 32.3956 57.0049 31.2575 57.1464 31.2575C57.2872 31.2575 55.6659 33.1883 53.5425 35.5475ZM160.943 76.2593C159.004 79.5562 150.941 87.7946 147.384 90.1123C139.908 94.9845 130.838 98.7647 119.223 101.85C110.324 104.214 113.677 105.136 125.186 103.49C142.777 100.973 157.209 90.8795 162.103 77.6703C163.432 74.0839 162.726 73.2259 160.943 76.2593ZM122.475 116.837C122.296 117.021 121.83 117.041 121.441 116.881C121.01 116.704 121.138 116.573 121.767 116.547C122.336 116.523 122.654 116.653 122.475 116.837ZM119.383 117.61C118.641 117.854 117.426 118.048 116.684 118.043C115.472 118.033 115.499 117.99 116.954 117.61C117.844 117.377 119.059 117.183 119.653 117.177C120.498 117.169 120.44 117.263 119.383 117.61Z" fill="white" fill-opacity="0.25"/>
</g>
<defs>
<filter id="filter0_b_1603_431" x="17.4585" y="-11" width="156.333" height="146" filterUnits="userSpaceOnUse" color-interpolation-filters="sRGB">
<feFlood flood-opacity="0" result="BackgroundImageFix"/>
<feGaussianBlur in="BackgroundImage" stdDeviation="5.5"/>
<feComposite in2="SourceAlpha" operator="in" result="effect1_backgroundBlur_1603_431"/>
<feBlend mode="normal" in="SourceGraphic" in2="effect1_backgroundBlur_1603_431" result="shape"/>
</filter>
</defs>
</svg>
