<svg width="1338" height="278" viewBox="0 0 1338 278" fill="none" xmlns="http://www.w3.org/2000/svg">
<g filter="url(#filter0_b_2699_882)">
<rect x="0.5" y="1.17871" width="1337" height="276.228" fill="#9775ED" stroke="url(#paint0_linear_2699_882)"/>
</g>
<mask id="mask0_2699_882" style="mask-type:alpha" maskUnits="userSpaceOnUse" x="0" y="0" width="1338" height="278">
<rect y="0.678711" width="1338" height="277.228" fill="#4D7AFF"/>
</mask>
<g mask="url(#mask0_2699_882)">
<g opacity="0.17">
<path fill-rule="evenodd" clip-rule="evenodd" d="M1252.67 -19.6832C1245.67 -17.1211 1238.06 -13.0967 1231.89 -8.7012C1224.82 -3.66719 1222.37 -1.10493 1226.71 -3.27963C1239.17 -9.53186 1249.91 -12.2437 1260.96 -11.9268C1278.52 -11.4227 1294.58 -2.51288 1302.83 11.3072C1308.15 20.2146 1310.55 32.8078 1308.79 42.544C1307.23 51.1737 1300.56 61.6891 1292.67 67.98C1290.84 69.4339 1290.86 69.2346 1292.98 64.6595C1295.79 58.5907 1296.72 51.7301 1295.86 43.2913C1295.01 34.865 1294.42 33.0504 1290.66 27.33C1286.94 21.6564 1280.1 16.8997 1273.89 15.6719C1261.34 13.1867 1246.57 18.472 1237.43 28.7123C1224.54 43.1746 1221.96 67.9161 1231.36 86.9229C1238.75 101.859 1251.13 112.343 1270.09 119.719C1285.67 125.781 1305.82 124.943 1322.8 117.528C1341.26 109.471 1363.35 90.4707 1371.21 75.9028C1374.41 69.9813 1374.42 69.9297 1373.59 62.0812C1373.14 57.7488 1372.07 51.5948 1371.2 48.4056C1370.73 46.669 1370.5 45.8007 1370.05 45.156C1369.37 44.174 1368.32 43.502 1367.15 43.2874C1366.37 43.1466 1365.48 43.2931 1363.71 43.5861L1362.57 43.7741C1358.68 44.4153 1356.69 44.5225 1358.13 44.0131C1359.58 43.5037 1362.54 42.2972 1364.71 41.3321C1364.74 41.3214 1364.75 41.3161 1364.76 41.3114C1366.93 40.3311 1367.97 37.8264 1367.11 35.5959C1367.11 35.5853 1367.11 35.5731 1367.1 35.5485L1366.36 33.6455C1362.24 23.0199 1354.21 10.953 1345.64 2.5091L1344.68 1.56948C1343.35 0.257765 1342.69 -0.39809 1341.88 -0.736117C1341.45 -0.91272 1341 -1.02381 1340.55 -1.06555C1339.67 -1.14546 1338.78 -0.875998 1336.99 -0.337082C1334.56 0.396051 1332.47 0.633612 1332.34 0.193209C1332.2 -0.246395 1333.64 -1.07132 1335.52 -1.63996C1339.29 -2.77515 1339.62 -4.15961 1336.5 -5.72648C1335.06 -6.45316 1332.93 -6.10894 1325.6 -3.97015C1312.89 -0.25982 1310.23 -0.521909 1320.49 -4.47218C1332.8 -9.21208 1332.76 -9.09639 1323.91 -13.8459C1301.53 -25.8542 1275.39 -27.996 1252.67 -19.6832ZM1233.41 -2.32318C1221.28 3.47028 1211.79 12.8289 1205.28 25.4122C1183.18 68.1262 1201.2 119.486 1245.72 140.715C1271.4 152.964 1297.27 154.608 1323.73 145.671C1331.76 142.957 1333.34 142.581 1330.32 144.102C1324.36 147.107 1305.91 151.635 1297.81 152.084C1279.3 153.111 1263.19 150.033 1246.03 142.197C1228.03 133.973 1214.86 121.845 1205.14 104.536C1201.62 98.2528 1200.7 95.8321 1197.91 85.4348C1194.31 71.9691 1193.78 65.4469 1195.33 53.126C1196.46 44.1416 1197.97 38.6383 1201.75 29.7462C1203.33 26.0304 1204.22 23.1141 1203.72 23.2646C1201.82 23.8374 1194.7 33.9251 1191.46 40.6396C1185.6 52.7834 1182.86 66.2687 1183.42 80.1318C1183.67 86.2765 1184.3 89.2277 1187.75 100.499C1192.5 116.033 1195.31 121.135 1205.3 132.29C1212.77 140.638 1219.87 146.151 1230.12 151.551C1247.97 160.959 1266.91 164.941 1287.19 163.55C1296.69 162.899 1317.57 156.631 1325.65 152.002C1331.67 148.562 1342.26 140.949 1345.45 137.777C1347.09 136.141 1347.15 135.862 1345.82 135.783C1344.7 135.716 1345.38 134.914 1348.27 132.896C1357.41 126.513 1367.22 115.771 1373.72 105.025C1377.34 99.0393 1382.39 86.8939 1381.28 86.846C1380.87 86.8282 1379.09 88.6811 1377.31 90.9636C1365.58 106.028 1346.57 118.926 1327.72 124.605C1295.98 134.172 1261.87 126.359 1239.65 104.433C1227.49 92.4255 1220.85 74.0603 1222.37 56.6097C1223.28 46.1403 1227.56 34.6375 1233.04 27.9468C1249.24 8.16664 1276.54 5.05598 1291.17 21.3232C1294.27 24.7704 1294.82 25.9133 1297.36 34.2976C1299.99 42.9931 1300.1 43.8323 1299.34 49.7595C1298.91 53.2063 1298.82 56.1761 1299.16 56.3588C1300.29 56.9699 1304.48 46.028 1305.3 40.3363C1309.13 13.8005 1287.09 -8.7048 1257.88 -8.08257C1251.24 -7.94151 1239.28 -5.12693 1233.41 -2.32318ZM1210.71 48.8588C1206.95 57.12 1204.88 67.1901 1205.12 76.0665C1205.19 78.6849 1206.4 85.5815 1207.82 91.3926L1210.4 101.958L1207.14 90.7257C1204.22 80.6502 1203.9 78.7268 1204.03 72.0518C1204.21 63.2647 1206.94 52.7815 1210.79 46.0592C1212.31 43.4085 1213.72 41.1906 1213.92 41.1304C1214.12 41.0704 1212.67 44.5484 1210.71 48.8588ZM1259.75 45.0554C1258.53 48.0269 1258.19 48.311 1256.56 47.7616C1255.55 47.424 1253.88 47.4046 1252.84 47.7178C1251.6 48.0934 1251.13 47.9401 1251.47 47.2681C1251.79 46.6363 1252.95 46.2479 1254.51 46.2469C1256.48 46.2457 1257.35 45.7958 1258.43 44.2036C1260.61 41.0068 1261.24 41.4137 1259.75 45.0554ZM1327.6 29.9005C1326.98 30.7653 1326.08 31.36 1325.61 31.2229C1325.14 31.0855 1325.33 30.5005 1326.04 29.9238C1328.13 28.2235 1328.81 28.2136 1327.6 29.9005ZM1273.15 48.3561C1273.08 49.7167 1273.28 49.6663 1269.76 49.234C1269.16 49.1593 1269.1 48.3013 1269.69 48.1495L1270.03 48.0621C1272.22 47.502 1273.19 47.5939 1273.15 48.3561ZM1257.89 56.3242C1258.09 56.9852 1256.72 57.8055 1256.21 57.3322C1255.88 57.0254 1256.1 56.623 1256.71 56.4389C1257.32 56.2549 1257.85 56.2035 1257.89 56.3242ZM1335.03 35.3165C1336.01 34.9693 1336.29 35.144 1335.91 35.8838C1335.54 36.6227 1334.58 36.7472 1332.79 36.2881C1331.37 35.9229 1330.97 35.6674 1331.91 35.7216C1332.84 35.775 1334.24 35.5932 1335.03 35.3165ZM1380.22 61.9274C1378.93 67.5129 1371.16 82.8408 1367.15 87.7015C1358.74 97.9192 1347.59 107.238 1332.54 116.638C1321.02 123.839 1326.16 123.743 1341.68 116.467C1365.42 105.345 1381.36 84.6271 1382.47 63.4708C1382.78 57.7266 1381.4 56.7882 1380.22 61.9274ZM1343.71 136.894C1343.54 137.235 1342.89 137.463 1342.27 137.397C1341.59 137.326 1341.71 137.082 1342.59 136.776C1343.38 136.499 1343.89 136.552 1343.71 136.894ZM1339.69 139.326C1338.75 139.993 1337.12 140.792 1336.07 141.1C1334.35 141.602 1334.37 141.527 1336.26 140.36C1337.41 139.645 1339.04 138.847 1339.88 138.586C1341.07 138.214 1341.03 138.375 1339.69 139.326Z" fill="white"/>
<path fill-rule="evenodd" clip-rule="evenodd" d="M1233.8 -2.44053C1221.6 3.37412 1212.04 12.7516 1205.48 25.3507C1183.21 68.1181 1201.24 119.474 1245.95 140.645C1271.75 152.861 1297.75 154.466 1324.35 145.485C1332.43 142.757 1334.01 142.379 1330.98 143.905C1324.98 146.92 1306.43 151.479 1298.29 151.94C1279.68 152.996 1263.49 149.941 1246.26 142.127C1228.18 133.927 1214.97 121.814 1205.23 104.512C1201.69 98.2306 1200.77 95.8101 1197.99 85.4123C1194.38 71.9459 1193.87 65.4215 1195.44 53.0925C1196.59 44.1021 1198.12 38.594 1201.93 29.692C1203.53 25.9721 1204.42 23.0531 1203.92 23.2044C1202.01 23.7803 1194.84 33.8836 1191.57 40.6062C1185.66 52.7646 1182.88 66.2603 1183.43 80.1289C1183.67 86.2761 1184.3 89.2278 1187.75 100.499C1192.5 116.033 1195.32 121.133 1205.34 132.278C1212.83 140.618 1219.97 146.123 1230.25 151.51C1248.18 160.895 1267.21 164.85 1287.59 163.428C1297.14 162.762 1318.14 156.459 1326.27 151.816C1332.32 148.365 1342.98 140.732 1346.19 137.554C1347.85 135.914 1347.9 135.635 1346.56 135.558C1345.44 135.492 1346.13 134.689 1349.03 132.666C1358.23 126.266 1368.1 115.505 1374.65 104.743C1378.3 98.7494 1383.4 86.5906 1382.28 86.5444C1381.87 86.5272 1380.08 88.3836 1378.29 90.6699C1366.48 105.759 1347.35 118.692 1328.4 124.402C1296.47 134.022 1262.21 126.258 1239.91 104.356C1227.7 92.3611 1221.06 73.9975 1222.61 56.5365C1223.54 46.0609 1227.87 34.5462 1233.38 27.8441C1249.69 8.02999 1277.14 4.87624 1291.82 21.1287C1294.93 24.5728 1295.47 25.7153 1298.01 34.0997C1300.65 42.7952 1300.75 43.6346 1299.99 49.5657C1299.54 53.0148 1299.45 55.9861 1299.79 56.1683C1300.92 56.778 1305.16 45.8246 1305.99 40.129C1309.87 13.5751 1287.76 -8.90701 1258.41 -8.23994C1251.73 -8.08867 1239.7 -5.25454 1233.8 -2.44053ZM1210.91 48.7998C1207.12 57.0706 1205.02 67.1485 1205.24 76.0287C1205.31 78.6482 1206.52 85.5461 1207.94 91.3577L1210.51 101.924L1207.25 90.6915C1204.33 80.6158 1204.01 78.692 1204.16 72.0138C1204.35 63.2223 1207.11 52.7301 1210.99 45.9988C1212.52 43.3445 1213.94 41.1234 1214.14 41.0629C1214.34 41.0026 1212.89 44.4845 1210.91 48.7998ZM1381.25 61.6158C1379.95 67.2059 1372.11 82.5528 1368.08 87.4218C1359.61 97.6571 1348.39 106.998 1333.25 116.424C1321.66 123.647 1326.82 123.543 1342.44 116.239C1366.31 105.076 1382.37 84.3243 1383.52 63.1565C1383.83 57.4092 1382.45 56.4725 1381.25 61.6158ZM1344.45 136.673C1344.27 137.015 1343.62 137.243 1343 137.179C1342.31 137.108 1342.43 136.864 1343.31 136.556C1344.11 136.278 1344.62 136.331 1344.45 136.673ZM1340.4 139.112C1339.45 139.781 1337.81 140.583 1336.75 140.892C1335.03 141.397 1335.05 141.322 1336.95 140.152C1338.11 139.435 1339.75 138.634 1340.59 138.371C1341.79 137.997 1341.74 138.158 1340.4 139.112Z" fill="white"/>
<g filter="url(#filter1_b_2699_882)">
<path fill-rule="evenodd" clip-rule="evenodd" d="M1234.18 -2.55441C1221.91 3.28081 1212.29 12.6765 1205.68 25.2909C1183.24 68.1103 1201.27 119.463 1246.17 140.577C1272.08 152.761 1298.2 154.328 1324.95 145.304C1333.07 142.562 1334.67 142.182 1331.61 143.713C1325.58 146.739 1306.94 151.327 1298.75 151.801C1280.06 152.884 1263.79 149.851 1246.49 142.059C1228.33 133.883 1215.07 121.783 1205.31 104.488C1201.76 98.209 1200.84 95.7889 1198.06 85.3904C1194.46 71.9233 1193.95 65.3968 1195.55 53.0599C1196.72 44.0639 1198.26 38.551 1202.11 29.6395C1203.71 25.9155 1204.62 22.9939 1204.11 23.146C1202.19 23.725 1194.97 33.8434 1191.68 40.5737C1185.73 52.7463 1182.91 66.2521 1183.44 80.1261C1183.68 86.2757 1184.3 89.2278 1187.75 100.499C1192.5 116.033 1195.33 121.131 1205.38 132.266C1212.9 140.599 1220.06 146.096 1230.39 151.47C1248.39 160.833 1267.5 164.761 1287.99 163.309C1297.58 162.628 1318.69 156.292 1326.87 151.635C1332.96 148.174 1343.68 140.522 1346.91 137.337C1348.57 135.694 1348.63 135.415 1347.28 135.34C1346.16 135.276 1346.85 134.471 1349.77 132.443C1359.02 126.027 1368.96 115.246 1375.56 104.47C1379.23 98.468 1384.37 86.2963 1383.25 86.2517C1382.84 86.2351 1381.03 88.095 1379.23 90.385C1367.34 105.498 1348.1 118.465 1329.05 124.206C1296.95 133.877 1262.53 126.16 1240.16 104.281C1227.91 92.2987 1221.26 73.9366 1222.85 56.4655C1223.8 45.9838 1228.16 34.4576 1233.71 27.7443C1250.13 7.8974 1277.72 4.70182 1292.44 20.94C1295.56 24.381 1296.11 25.5232 1298.65 33.9076C1301.28 42.6031 1301.39 43.4427 1300.61 49.3776C1300.16 52.8289 1300.06 55.8017 1300.41 55.9835C1301.54 56.5918 1305.81 45.6272 1306.66 39.9279C1310.6 13.3564 1288.41 -9.10323 1258.91 -8.39265C1252.2 -8.23148 1240.11 -5.37837 1234.18 -2.55441ZM1211.1 48.7426C1207.27 57.0226 1205.15 67.1081 1205.36 75.9919C1205.43 78.6125 1206.64 85.5118 1208.05 91.3239L1210.62 101.891L1207.36 90.6584C1204.44 80.5825 1204.12 78.6583 1204.28 71.9769C1204.49 63.1812 1207.27 52.6802 1211.19 45.9402C1212.73 43.2825 1214.16 41.0583 1214.36 40.9974C1214.56 40.9368 1213.09 44.4224 1211.1 48.7426ZM1382.25 61.3135C1380.93 66.908 1373.04 82.2733 1368.98 87.1504C1360.45 97.4028 1349.16 106.764 1333.94 116.217C1322.28 123.46 1327.46 123.348 1343.17 116.018C1367.17 104.816 1383.34 84.0305 1384.53 62.8516C1384.85 57.1012 1383.47 56.1661 1382.25 61.3135ZM1345.16 136.458C1344.98 136.801 1344.33 137.03 1343.7 136.966C1343.01 136.897 1343.13 136.652 1344.02 136.343C1344.82 136.064 1345.33 136.116 1345.16 136.458ZM1341.08 138.905C1340.13 139.576 1338.48 140.379 1337.42 140.691C1335.69 141.199 1335.71 141.124 1337.62 139.95C1338.79 139.231 1340.43 138.427 1341.28 138.163C1342.48 137.787 1342.44 137.948 1341.08 138.905Z" fill="white" fill-opacity="0.25"/>
</g>
</g>
<g style="mix-blend-mode:overlay" filter="url(#filter2_f_2699_882)">
<rect width="537.234" height="460.103" rx="67" transform="matrix(0.921926 -0.387366 0.621503 0.783412 640.501 148.228)" fill="url(#paint1_linear_2699_882)" fill-opacity="0.73"/>
</g>
<g style="mix-blend-mode:overlay" filter="url(#filter3_f_2699_882)">
<rect width="449.4" height="442.361" rx="67" transform="matrix(0.822576 0.568656 -0.793815 0.608159 102.82 178.438)" fill="url(#paint2_linear_2699_882)" fill-opacity="0.62"/>
</g>
<g style="mix-blend-mode:overlay" filter="url(#filter4_f_2699_882)">
<rect width="449.4" height="442.361" rx="67" transform="matrix(0.822576 -0.568656 -0.793815 -0.608159 378.718 133.459)" fill="url(#paint3_linear_2699_882)" fill-opacity="0.62"/>
</g>
</g>
<g style="mix-blend-mode:color-dodge" opacity="0.72">
<path d="M1.3678 218.604C26.6838 229.763 88.6737 242.261 184.711 202.981C304.758 153.882 364.782 190.706 475.029 230.879C563.227 263.017 612.226 244.27 625.701 230.879C645.708 212.28 703.609 183.788 775.147 218.604C846.685 253.42 865.916 233.926 882.944 226.704C903.665 217.917 910.02 219.349 940.299 182.804C978.149 137.124 1086.45 69.256 1184.33 182.805C1262.64 273.643 1317.08 256.193 1336.65 241.837V274.399H882.944L1.36787 275.901L1.3678 246.779V218.604Z" fill="url(#paint4_linear_2699_882)" fill-opacity="0.62"/>
</g>
<defs>
<filter id="filter0_b_2699_882" x="-174" y="-173.321" width="1686" height="625.228" filterUnits="userSpaceOnUse" color-interpolation-filters="sRGB">
<feFlood flood-opacity="0" result="BackgroundImageFix"/>
<feGaussianBlur in="BackgroundImageFix" stdDeviation="87"/>
<feComposite in2="SourceAlpha" operator="in" result="effect1_backgroundBlur_2699_882"/>
<feBlend mode="normal" in="SourceGraphic" in2="effect1_backgroundBlur_2699_882" result="shape"/>
</filter>
<filter id="filter1_b_2699_882" x="1177.87" y="-13.9161" width="212.212" height="183.026" filterUnits="userSpaceOnUse" color-interpolation-filters="sRGB">
<feFlood flood-opacity="0" result="BackgroundImageFix"/>
<feGaussianBlur in="BackgroundImageFix" stdDeviation="2.7535"/>
<feComposite in2="SourceAlpha" operator="in" result="effect1_backgroundBlur_2699_882"/>
<feBlend mode="normal" in="SourceGraphic" in2="effect1_backgroundBlur_2699_882" result="shape"/>
</filter>
<filter id="filter2_f_2699_882" x="611.409" y="-98.0036" width="839.429" height="644.807" filterUnits="userSpaceOnUse" color-interpolation-filters="sRGB">
<feFlood flood-opacity="0" result="BackgroundImageFix"/>
<feBlend mode="normal" in="SourceGraphic" in2="BackgroundImageFix" result="shape"/>
<feGaussianBlur stdDeviation="29" result="effect1_foregroundBlur_2699_882"/>
</filter>
<filter id="filter3_f_2699_882" x="-274.625" y="143.5" width="773.403" height="594.456" filterUnits="userSpaceOnUse" color-interpolation-filters="sRGB">
<feFlood flood-opacity="0" result="BackgroundImageFix"/>
<feBlend mode="normal" in="SourceGraphic" in2="BackgroundImageFix" result="shape"/>
<feGaussianBlur stdDeviation="29" result="effect1_foregroundBlur_2699_882"/>
</filter>
<filter id="filter4_f_2699_882" x="1.27246" y="-426.059" width="773.403" height="594.456" filterUnits="userSpaceOnUse" color-interpolation-filters="sRGB">
<feFlood flood-opacity="0" result="BackgroundImageFix"/>
<feBlend mode="normal" in="SourceGraphic" in2="BackgroundImageFix" result="shape"/>
<feGaussianBlur stdDeviation="29" result="effect1_foregroundBlur_2699_882"/>
</filter>
<linearGradient id="paint0_linear_2699_882" x1="538.318" y1="-105.2" x2="1413.54" y2="730.239" gradientUnits="userSpaceOnUse">
<stop stop-color="white"/>
<stop offset="1" stop-color="white" stop-opacity="0"/>
</linearGradient>
<linearGradient id="paint1_linear_2699_882" x1="-80.4746" y1="-42.676" x2="117.586" y2="223.636" gradientUnits="userSpaceOnUse">
<stop stop-color="#BCF4FF"/>
<stop offset="1" stop-color="#55AEFF"/>
</linearGradient>
<linearGradient id="paint2_linear_2699_882" x1="-67.3175" y1="-41.0304" x2="129.092" y2="188.745" gradientUnits="userSpaceOnUse">
<stop stop-color="white"/>
<stop offset="1" stop-color="#8A7BF1"/>
</linearGradient>
<linearGradient id="paint3_linear_2699_882" x1="-67.3175" y1="-41.0304" x2="129.092" y2="188.745" gradientUnits="userSpaceOnUse">
<stop stop-color="white"/>
<stop offset="1" stop-color="#8A7BF1"/>
</linearGradient>
<linearGradient id="paint4_linear_2699_882" x1="427.868" y1="168.538" x2="427.868" y2="274.399" gradientUnits="userSpaceOnUse">
<stop stop-color="#84BBFE"/>
<stop offset="1" stop-color="#84BBFE" stop-opacity="0"/>
</linearGradient>
</defs>
</svg>
