<svg width="116" height="113" viewBox="0 0 116 113" fill="none" xmlns="http://www.w3.org/2000/svg">
<circle cx="64.1047" cy="64.0156" r="49.2714" transform="rotate(-21.4509 64.1047 64.0156)" fill="url(#paint0_linear_6415_2150)"/>
<path d="M39.0795 40.5624C38.9919 37.4065 42.9004 35.8708 44.9846 38.2422L53.0616 47.4323C53.7114 48.1716 54.6516 48.5902 55.6358 48.5783L67.8901 48.4305C70.9946 48.393 72.4965 52.2154 70.1969 54.3013L61.1197 62.5351C60.3907 63.1964 59.9869 64.1431 60.0142 65.1269L60.3537 77.3573C60.4413 80.5131 56.5328 82.0489 54.4486 79.6775L46.3716 70.4874C45.7218 69.7481 44.7816 69.3295 43.7974 69.3414L31.543 69.4892C28.4385 69.5267 26.9367 65.7043 29.2363 63.6184L38.3135 55.3846C39.0425 54.7233 39.4463 53.7766 39.419 52.7928L39.0795 40.5624Z" fill="#1E0545"/>
<path d="M76.6458 59.2236C76.2166 57.0183 79.1637 55.8604 80.3506 57.7679L85.0734 65.3588C85.5169 66.0715 86.3543 66.4365 87.1783 66.2761L95.9538 64.5683C98.1591 64.1392 99.317 67.0862 97.4095 68.2731L89.8186 72.9959C89.1059 73.4394 88.7409 74.2768 88.9013 75.1008L90.6091 83.8763C91.0383 86.0816 88.0912 87.2395 86.9043 85.332L82.1815 77.7411C81.738 77.0284 80.9006 76.6634 80.0766 76.8238L71.3011 78.5316C69.0958 78.9608 67.9379 76.0137 69.8454 74.8269L77.4363 70.104C78.149 69.6605 78.514 68.8231 78.3536 67.9991L76.6458 59.2236Z" fill="#1E0545"/>
<defs>
<linearGradient id="paint0_linear_6415_2150" x1="23.5092" y1="-24.1958" x2="62.915" y2="67.6307" gradientUnits="userSpaceOnUse">
<stop stop-color="white"/>
<stop offset="1" stop-color="#9E77FF"/>
</linearGradient>
</defs>
</svg>
