<svg width="31" height="23" viewBox="0 0 31 23" fill="none" xmlns="http://www.w3.org/2000/svg">
<path fill-rule="evenodd" clip-rule="evenodd" d="M10.553 0.359007C8.8605 0.728055 6.04321 1.6811 5.53161 2.05778C4.96632 2.47387 3.12517 5.89514 2.3975 7.88172C1.39809 10.6103 1.01606 12.6554 0.942779 15.6704C0.914158 16.8492 0.930617 18.072 0.979367 18.3879L1.06795 18.9622L2.11496 19.6667C3.41253 20.5397 5.93638 21.7953 7.43912 22.3153L8.57125 22.7071L8.74958 22.4653C9.22261 21.8243 10.2206 20.1068 10.1551 20.0462C10.1145 20.0085 9.73589 19.8326 9.31371 19.6551C8.89153 19.4777 8.35875 19.221 8.12958 19.0848L7.71295 18.837L7.99947 18.6498C8.2731 18.471 8.30748 18.4708 8.76426 18.6449C11.8315 19.8143 13.5264 20.1224 16.3715 20.0276C18.7775 19.9475 20.0607 19.6702 22.8436 18.6293C23.3342 18.4458 23.3427 18.4463 23.5663 18.6693L23.7926 18.8949L22.6888 19.4259C22.0817 19.7179 21.5324 19.9568 21.4681 19.9568C21.2604 19.9568 21.3406 20.1688 21.9169 21.1433C22.7029 22.4724 22.8937 22.6969 23.1701 22.6185C24.7615 22.1673 27.3206 20.9846 29.0465 19.9028C30.6358 18.9065 30.5384 19.0594 30.6232 17.4296C30.8742 12.6094 29.4946 7.45862 26.7987 3.15122L26.1322 2.08642L25.2881 1.72971C23.8254 1.11163 20.7118 0.198216 20.0661 0.197693C19.9411 0.197588 19.7559 0.451217 19.4903 0.986597L19.0988 1.77561L18.6786 1.70462C17.4727 1.50107 14.0794 1.49971 12.7951 1.70232L12.3876 1.76662L12.0207 1.00824C11.604 0.146988 11.5781 0.135488 10.553 0.359007ZM11.6197 9.7531C13.4702 10.4122 14.0585 13.0073 12.7163 14.5906C12.5617 14.7731 12.1911 15.0435 11.8928 15.1918C10.9089 15.6807 9.96307 15.5055 9.12993 14.6798C8.51234 14.0678 8.24657 13.4221 8.24657 12.534C8.24657 10.5903 9.97335 9.1668 11.6197 9.7531ZM21.9543 9.98979C23.9379 11.2183 23.6848 14.4045 21.5324 15.3012C20.3454 15.7959 18.811 15.0451 18.3168 13.7279C17.7268 12.1555 18.3534 10.4792 19.7787 9.81729C20.4325 9.51358 21.2961 9.58206 21.9543 9.98979Z" fill="white"/>
</svg>
