<svg width="204" height="48" viewBox="0 0 204 48" fill="none" xmlns="http://www.w3.org/2000/svg">
<ellipse cx="37.0952" cy="7.1728" rx="1.68873" ry="1.59491" fill="url(#paint0_linear_2830_2214)"/>
<path d="M80.9541 29.8708V33.7188H66.7115C66.7115 27.4926 66.7115 21.2398 66.7115 15.0137H80.58V18.8348H70.7999V22.4423H80.0188V26.1031H70.7999V29.8708H80.9541ZM104.877 33.7188L103.514 30.5122H93.9207L92.5579 33.7188H88.0687L96.4593 15.0137H101.002L109.392 33.7188H104.877ZM101.937 26.8246L98.7306 19.2357L95.4973 26.8246H101.937ZM133.977 33.3981V33.7188H129.355L124.571 27.5728H121.552V33.7188H117.383V15.0137C120.43 15.0137 123.235 15.0137 126.255 15.0137C130.771 15.0137 133.176 18.0332 133.176 21.3199C133.149 23.7516 132.428 25.9161 128.847 27.1987L133.977 33.3981ZM126.255 18.5943H121.552V24.0455H126.308C128.232 24.0455 129.061 22.6026 129.061 21.4268C129.034 20.1442 128.206 18.5943 126.255 18.5943ZM146.559 33.7188V18.728H140.867V15.0137C146.319 15.0137 150.915 15.0137 156.393 15.0137V18.728H150.701V33.7188H146.559ZM181.597 33.7455H177.482V26.3436H169.118V33.7455H164.95V15.0404H169.118V22.5224H177.482V15.0404H181.597V33.7455Z" fill="#C9CACA"/>
<path d="M33.3412 18.9977L26.0242 26.1297L31.4953 34.0542C29.4296 37.4441 25.9838 44.4881 28.7264 45.5446C36.743 45.0163 42.4424 38.133 44.9755 31.0028L45.5384 27.4504L45.0762 23.8844L42.0435 18.3373L33.3412 18.9977Z" fill="url(#paint1_linear_2830_2214)"/>
<path d="M3.41408 20.6826C4.5786 16.8979 14.0306 23.0266 18.7732 27.173C25.5288 25.3848 35.2813 24.4835 36.3998 31.1085C37.7029 38.8271 32.4605 44.49 29.8709 45.4506C12.9836 49.4848 -0.713964 34.0986 3.41408 20.6826Z" fill="url(#paint2_linear_2830_2214)"/>
<path d="M3.13249 19.5569C3.60599 17.1395 5.78023 13.0848 6.66977 11.7268C3.74707 18.9839 12.7694 19.8752 18.3608 10.1989C23.416 1.45052 28.0186 3.06913 30.0518 3.06913C31.6784 3.06913 35.0502 5.02133 36.5327 5.99744C36.2362 6.08232 35.7448 6.48125 36.1515 7.39794C36.7615 8.62019 38.0153 8.24673 38.5659 7.90722L40.4721 9.9443L39.9009 10.3264L35.3262 14.2732L33.8641 13.6365L33.4201 12.7454L34.3724 10.3263V8.92576C34.3724 8.67112 34.0555 8.6203 32.0222 8.41659C29.989 8.21288 25.4857 13.5013 23.4101 16.2598C20.4873 20.4613 17.9166 25.4772 11.6899 26.6231C5.46321 27.7689 2.43421 23.1219 3.13249 19.5569Z" fill="url(#paint3_linear_2830_2214)"/>
<path opacity="0.05" d="M15.7825 34.3088C14.2855 34.7104 13.1266 34.4341 11.7483 34.3088L25.0608 26.4724C26.5644 25.3447 34.2079 25.47 36.0874 29.8555C26.4391 24.0916 23.4756 32.2448 15.7825 34.3088Z" fill="black"/>
<path d="M30.528 3.1074C17.6749 0.324168 9.19074 7.85962 6.60429 11.77C6.30749 12.4848 5.73544 14.0061 6.04073 15.2171C6.42233 16.7308 7.63152 18.1183 11.5748 16.983C14.7294 16.0748 18.2882 10.6437 19.6451 8.20492C23.9699 2.65467 26.9663 3.1074 30.528 3.1074Z" fill="url(#paint4_radial_2830_2214)"/>
<path opacity="0.05" d="M43.5684 22.9343C38.5563 20.1275 32.4914 23.6322 30.1524 25.9712L26.9401 25.9712C26.3972 25.8041 26.5141 24.7432 31.3257 21.8362C37.3403 18.2024 40.7539 19.1816 43.5684 22.9343Z" fill="black"/>
<path fill-rule="evenodd" clip-rule="evenodd" d="M3.1328 19.2753C1.86381 24.2243 2.45955 33.6729 12.713 34.282C18.5823 34.282 26.3738 26.7066 30.431 22.7619C30.672 22.5276 30.8999 22.306 31.1133 22.0997C34.2435 19.8578 41.2653 17.0237 44.3108 23.6224C45.4529 25.7797 45.326 27.6832 44.8184 31.3633C46.9542 25.7951 46.0181 20.1811 44.27 15.9818C44.2818 15.9953 44.2931 16.0061 44.3036 16.0141L44.2525 15.9399C44.1882 15.7863 44.1228 15.6345 44.0564 15.4848C43.9706 15.1305 43.9254 14.5957 44.0222 13.8563C44.1159 13.1395 44.7507 12.8246 45.4062 12.4994C46.3237 12.0443 47.2817 11.5691 46.8541 9.9436C46.3229 7.92424 42.2098 8.99802 40.3941 9.93309C40.3884 9.92782 40.3827 9.92258 40.377 9.91736C38.6511 11.0341 36.9507 12.413 36.3162 12.9629C35.5125 13.5128 33.8797 14.3081 33.7782 13.0898C33.6845 12.9023 33.8505 12.3857 34.0524 11.7576C34.3969 10.6855 34.8459 9.28851 34.2858 8.64835C33.382 7.61533 31.7478 7.12558 28.1947 10.0443C26.5278 11.4134 24.47 14.151 22.3881 16.9207C20.0319 20.0551 17.6449 23.2307 15.7586 24.5107C12.9668 27.3025 2.24452 28.5389 3.1328 19.2753Z" fill="url(#paint5_linear_2830_2214)"/>
<g style="mix-blend-mode:saturation">
<rect x="0.474609" y="0.786377" width="46.8865" height="46.8865" fill="#D9D9D9"/>
</g>
<defs>
<linearGradient id="paint0_linear_2830_2214" x1="38.7059" y1="6.54762" x2="29.9304" y2="5.25407" gradientUnits="userSpaceOnUse">
<stop stop-color="#6AE176"/>
<stop offset="0.374317" stop-color="#BFFFBA"/>
<stop offset="0.940618" stop-color="#49BF1F"/>
</linearGradient>
<linearGradient id="paint1_linear_2830_2214" x1="46.5932" y1="16.8845" x2="32.0616" y2="33.6338" gradientUnits="userSpaceOnUse">
<stop stop-color="#F7E275"/>
<stop offset="1" stop-color="#83E430"/>
</linearGradient>
<linearGradient id="paint2_linear_2830_2214" x1="37.6421" y1="25.9588" x2="3.86742" y2="28.5857" gradientUnits="userSpaceOnUse">
<stop stop-color="#00B53D"/>
<stop offset="1" stop-color="#DBC976"/>
</linearGradient>
<linearGradient id="paint3_linear_2830_2214" x1="22.1105" y1="6.3795" x2="28.1013" y2="18.4657" gradientUnits="userSpaceOnUse">
<stop stop-color="#4DE8B0"/>
<stop offset="0.927083" stop-color="#00B856"/>
</linearGradient>
<radialGradient id="paint4_radial_2830_2214" cx="0" cy="0" r="1" gradientUnits="userSpaceOnUse" gradientTransform="translate(15.7725 5.75638) rotate(105.648) scale(11.7898 19.3168)">
<stop stop-color="#E7FFEA"/>
<stop offset="0.927083" stop-color="#90EFB6"/>
</radialGradient>
<linearGradient id="paint5_linear_2830_2214" x1="45.9345" y1="15.8816" x2="5.10691" y2="9.04314" gradientUnits="userSpaceOnUse">
<stop stop-color="#54DF9F"/>
<stop offset="0.374317" stop-color="#CAFFC6"/>
<stop offset="0.940618" stop-color="#85FFB4"/>
</linearGradient>
</defs>
</svg>
