<svg width="78" height="26" viewBox="0 0 78 26" fill="none" xmlns="http://www.w3.org/2000/svg">
<path fill-rule="evenodd" clip-rule="evenodd" d="M5.06698 0.354852C2.99645 1.02434 0.962771 3.1809 0.334504 5.37426C-0.251644 7.41953 -0.0460239 9.52594 0.783475 9.97612C1.89727 10.5809 4.7312 10.3106 7.41566 9.34313C9.05799 8.75109 10.8504 8.34602 12.3383 8.23028L14.6782 8.04807L14.6422 6.54824C14.5357 2.11019 9.57131 -1.10076 5.06698 0.354852ZM26.3751 6.07906C21.7064 8.23087 21.6394 15.316 26.2651 17.7103C27.584 18.3928 30.1845 18.4783 31.5834 17.8854C33.5522 17.0506 34.6827 15.0991 34.8131 12.3098L34.8599 11.3124L32.1544 11.227L29.4489 11.1418V12.3398V13.5381H30.7376C31.868 13.5381 32.0084 13.6088 31.8786 14.1124C31.4293 15.8549 28.433 16.4235 26.9829 15.0412C25.3862 13.5191 25.3806 10.5165 26.9718 8.90215C27.9513 7.90829 30.2497 7.90295 31.3828 8.89176L32.1792 9.58677L33.1415 8.96595C33.6709 8.62438 34.1094 8.23711 34.1164 8.10564C34.1413 7.6234 32.2009 6.09865 31.205 5.81791C29.6343 5.37515 27.6723 5.48109 26.3751 6.07906ZM47.5042 5.88409L46.4012 6.18085L46.4805 12.1594L46.5595 18.1379L47.8026 18.229L49.0456 18.3204V11.9229C49.0456 8.40448 48.9468 5.53955 48.8263 5.55617C48.7058 5.57309 48.1105 5.72058 47.5042 5.88409ZM63.7432 6.03188C63.1667 6.14435 63.0851 6.34229 63.0851 7.6237C63.0851 8.96743 63.0284 9.08673 62.3881 9.08673C61.9122 9.08673 61.6349 9.29891 61.5144 9.75444C61.1991 10.9489 61.3047 11.1641 62.2076 11.1641H63.0851V13.6818C63.0851 16.0315 63.141 16.263 63.9199 17.1473C64.6324 17.9566 64.9611 18.0985 66.1674 18.1166L67.5804 18.1379L67.5997 17.1037C67.6166 16.1808 67.5242 16.0526 66.7412 15.9146C65.8643 15.7597 65.8637 15.7585 65.7783 13.4619C65.695 11.2169 65.7087 11.1641 66.3873 11.1641C66.9261 11.1641 67.1522 10.9314 67.3961 10.1254L67.7102 9.08673H66.7137H65.7175V7.45455C65.7175 5.69506 65.664 5.65648 63.7432 6.03188ZM38.2797 9.28734C36.9898 9.9322 36.1758 11.6021 36.1773 13.6005C36.1784 15.4552 36.886 16.8233 38.294 17.6943C39.8717 18.6703 42.8063 18.4109 44.1505 17.1767C44.6428 16.7248 44.6369 16.6693 44.0268 16.0104C43.2769 15.2003 42.9692 15.1653 41.8399 15.76C40.9405 16.2339 40.1385 16.1149 39.3204 15.3861C38.1767 14.367 38.6573 14.1317 41.8796 14.1317H44.9508L44.9443 13.3156C44.9338 11.9807 43.8969 10.0399 42.8472 9.39061C41.6644 8.6591 39.6287 8.6128 38.2797 9.28734ZM52.6783 9.34966C50.1088 10.9394 50.1287 16.1579 52.7108 17.8744C53.7161 18.543 55.7205 18.5293 56.7469 17.8471C57.3579 17.4408 57.5351 17.4103 57.469 17.7233C57.4044 18.0299 57.7241 18.1379 58.6978 18.1379H60.014L60.0947 13.6123L60.1754 9.08673H58.7144C57.4602 9.08673 57.2807 9.15795 57.4445 9.59093C57.6006 10.004 57.4722 9.97731 56.7319 9.44255C55.6094 8.6315 53.9021 8.59233 52.6783 9.34966ZM70.7603 9.38201C69.3783 10.2367 68.6447 11.6261 68.6439 13.3898C68.6427 16.4218 70.4137 18.2872 73.2924 18.2851C76.2603 18.283 78 16.5289 78 13.5381C78 11.6172 77.3115 10.2649 75.8841 9.38201C74.5893 8.58075 72.0552 8.58075 70.7603 9.38201ZM7.95092 10.448C5.66307 11.2703 4.57735 11.4997 2.96632 11.5006C1.83351 11.5015 0.722637 11.4593 0.497421 11.4071C-0.457264 11.186 0.0247589 12.5799 2.48313 17.1479C6.85028 25.2628 7.2665 26.0021 7.46597 26C7.62655 25.9982 15.67 11.3656 15.9344 10.5943C15.9818 10.456 15.8078 10.1269 15.5477 9.86306C14.6732 8.97574 11.3303 9.23303 7.95092 10.448ZM41.9551 11.6834L42.3897 12.3511H40.5991C39.6143 12.3511 38.8085 12.2615 38.8085 12.152C38.8085 12.0425 39.0323 11.7021 39.3055 11.3955C39.9679 10.6527 41.3848 10.8068 41.9551 11.6834ZM56.6579 11.7042C57.1505 12.1086 57.3152 12.5565 57.3152 13.4907C57.3152 15.0667 56.6135 15.9122 55.3055 15.9122C54.1071 15.9122 53.433 15.0338 53.433 13.472C53.433 11.4697 55.1961 10.5032 56.6579 11.7042ZM74.7847 11.7576C75.5416 12.5256 75.5671 14.4121 74.8326 15.3323C74.1046 16.2446 72.5249 16.2081 71.808 15.2626C70.9844 14.1768 71.2327 12.0935 72.2693 11.3911C72.8835 10.975 74.2029 11.1673 74.7847 11.7576Z" fill="white"/>
</svg>
