<svg width="64" height="65" viewBox="0 0 64 65" fill="none" xmlns="http://www.w3.org/2000/svg">
<circle cx="32.0132" cy="32.337" r="31.3776" stroke="#645B73" stroke-opacity="0.45"/>
<path d="M47.5356 31.8369C47.8118 31.8369 48.0356 32.0608 48.0356 32.3369C48.0356 32.6131 47.8118 32.8369 47.5356 32.8369V31.8369ZM16.1373 32.6905C15.942 32.4952 15.942 32.1786 16.1373 31.9834L19.3193 28.8014C19.5145 28.6061 19.8311 28.6061 20.0264 28.8014C20.2216 28.9966 20.2216 29.3132 20.0264 29.5085L17.198 32.3369L20.0264 35.1653C20.2216 35.3606 20.2216 35.6772 20.0264 35.8724C19.8311 36.0677 19.5145 36.0677 19.3193 35.8724L16.1373 32.6905ZM47.5356 32.8369H16.4908V31.8369H47.5356V32.8369Z" fill="url(#paint0_linear_2901_270)"/>
<defs>
<linearGradient id="paint0_linear_2901_270" x1="18.4092" y1="33.2328" x2="18.7732" y2="29.1129" gradientUnits="userSpaceOnUse">
<stop stop-color="#619AFA"/>
<stop offset="1" stop-color="#8E4FE7"/>
</linearGradient>
</defs>
</svg>
