<svg width="150" height="44" viewBox="0 0 150 44" fill="none" xmlns="http://www.w3.org/2000/svg">
<path fill-rule="evenodd" clip-rule="evenodd" d="M17.5161 0.786377L8.95455 5.93664L25.7432 15.9028V25.9358L34.3047 20.9193L33.9033 10.8194L17.5161 0.786377ZM38.2968 33.4443L38.1174 23.4546L21.2666 33.4443L13.2351 28.4278L13.2988 38.3506L21.5888 43.0529L38.2968 33.4443ZM9.29024 40.853L0.549204 36.0136L0.548584 15.9392L9.03106 10.8577L17.3911 16.0172L9.03103 20.4644L9.29024 40.853Z" fill="#D9D9D9"/>
<path opacity="0.71" d="M53.3848 34.1265V11.7194H56.7656V31.2162H66.9188V34.1265H53.3848ZM77.7558 34.4656C76.1001 34.4656 74.6741 34.1119 73.4779 33.4044C72.289 32.6896 71.3699 31.6866 70.7208 30.3956C70.0789 29.0973 69.7579 27.5765 69.7579 25.8332C69.7579 24.1118 70.0789 22.5947 70.7208 21.2818C71.3699 19.9689 72.2744 18.9441 73.4341 18.2074C74.6011 17.4707 75.9651 17.1023 77.526 17.1023C78.4742 17.1023 79.3933 17.2592 80.2831 17.5728C81.173 17.8864 81.9717 18.3788 82.6792 19.0498C83.3867 19.7209 83.9447 20.5925 84.3532 21.6647C84.7616 22.7296 84.9659 24.0243 84.9659 25.5488V26.7085H71.607V24.2577H81.7602C81.7602 23.397 81.5851 22.6348 81.235 21.9711C80.8849 21.3 80.3926 20.7712 79.758 20.3846C79.1307 19.998 78.394 19.8048 77.5479 19.8048C76.6289 19.8048 75.8265 20.0309 75.1409 20.4831C74.4626 20.928 73.9374 21.5115 73.5654 22.2336C73.2007 22.9485 73.0184 23.7253 73.0184 24.5641V26.4787C73.0184 27.602 73.2153 28.5575 73.6092 29.3453C74.0103 30.133 74.5683 30.7348 75.2831 31.1505C75.9979 31.559 76.8331 31.7632 77.7886 31.7632C78.4086 31.7632 78.9739 31.6757 79.4845 31.5006C79.995 31.3183 80.4363 31.0484 80.8083 30.691C81.1803 30.3336 81.4648 29.8923 81.6617 29.3671L84.758 29.9251C84.51 30.8369 84.0651 31.6356 83.4232 32.3212C82.7886 32.9995 81.9899 33.5284 81.0271 33.9076C80.0716 34.2796 78.9812 34.4656 77.7558 34.4656ZM91.8669 24.1483V34.1265H88.5955V17.3212H91.7356V20.0564H91.9435C92.33 19.1665 92.9354 18.4517 93.7597 17.912C94.5912 17.3722 95.6379 17.1023 96.8997 17.1023C98.0449 17.1023 99.0478 17.343 99.9085 17.8244C100.769 18.2986 101.437 19.0061 101.911 19.947C102.385 20.8879 102.622 22.0513 102.622 23.4372V34.1265H99.3505V23.831C99.3505 22.6129 99.0332 21.6611 98.3986 20.9754C97.7641 20.2825 96.8924 19.936 95.7837 19.936C95.0252 19.936 94.3505 20.1002 93.7597 20.4284C93.1761 20.7566 92.713 21.238 92.3702 21.8726C92.0346 22.4999 91.8669 23.2585 91.8669 24.1483ZM113.3 34.4547C111.944 34.4547 110.733 34.1082 109.668 33.4153C108.61 32.7151 107.779 31.7195 107.173 30.4284C106.575 29.1301 106.276 27.5728 106.276 25.7566C106.276 23.9404 106.579 22.3868 107.184 21.0958C107.797 19.8048 108.636 18.8164 109.701 18.1308C110.766 17.4452 111.973 17.1023 113.322 17.1023C114.365 17.1023 115.204 17.2774 115.839 17.6275C116.48 17.9703 116.976 18.3715 117.326 18.831C117.684 19.2905 117.961 19.6953 118.158 20.0455H118.355V11.7194H121.626V34.1265H118.432V31.5116H118.158C117.961 31.869 117.677 32.2774 117.305 32.737C116.94 33.1965 116.437 33.5977 115.795 33.9405C115.153 34.2833 114.321 34.4547 113.3 34.4547ZM114.022 31.6648C114.963 31.6648 115.758 31.4168 116.407 30.9208C117.064 30.4175 117.56 29.7209 117.895 28.831C118.238 27.9412 118.41 26.9054 118.41 25.7238C118.41 24.5568 118.242 23.5356 117.906 22.6603C117.571 21.7851 117.078 21.1031 116.429 20.6144C115.78 20.1257 114.978 19.8813 114.022 19.8813C113.038 19.8813 112.217 20.1366 111.561 20.6472C110.904 21.1578 110.408 21.8544 110.073 22.7369C109.744 23.6195 109.58 24.6151 109.58 25.7238C109.58 26.8471 109.748 27.8573 110.084 28.7545C110.419 29.6516 110.915 30.3628 111.572 30.8879C112.235 31.4058 113.052 31.6648 114.022 31.6648ZM129.567 11.7194V34.1265H126.295V11.7194H129.567ZM141.211 34.4656C139.555 34.4656 138.129 34.1119 136.933 33.4044C135.744 32.6896 134.825 31.6866 134.176 30.3956C133.534 29.0973 133.213 27.5765 133.213 25.8332C133.213 24.1118 133.534 22.5947 134.176 21.2818C134.825 19.9689 135.729 18.9441 136.889 18.2074C138.056 17.4707 139.42 17.1023 140.981 17.1023C141.929 17.1023 142.848 17.2592 143.738 17.5728C144.628 17.8864 145.426 18.3788 146.134 19.0498C146.842 19.7209 147.4 20.5925 147.808 21.6647C148.216 22.7296 148.421 24.0243 148.421 25.5488V26.7085H135.062V24.2577H145.215C145.215 23.397 145.04 22.6348 144.69 21.9711C144.34 21.3 143.847 20.7712 143.213 20.3846C142.585 19.998 141.849 19.8048 141.003 19.8048C140.084 19.8048 139.281 20.0309 138.596 20.4831C137.917 20.928 137.392 21.5115 137.02 22.2336C136.655 22.9485 136.473 23.7253 136.473 24.5641V26.4787C136.473 27.602 136.67 28.5575 137.064 29.3453C137.465 30.133 138.023 30.7348 138.738 31.1505C139.453 31.559 140.288 31.7632 141.243 31.7632C141.863 31.7632 142.429 31.6757 142.939 31.5006C143.45 31.3183 143.891 31.0484 144.263 30.691C144.635 30.3336 144.92 29.8923 145.117 29.3671L148.213 29.9251C147.965 30.8369 147.52 31.6356 146.878 32.3212C146.243 32.9995 145.445 33.5284 144.482 33.9076C143.526 34.2796 142.436 34.4656 141.211 34.4656Z" fill="#C1C2C2"/>
</svg>
