<svg width="143" height="113" viewBox="0 0 143 113" fill="none" xmlns="http://www.w3.org/2000/svg">
<path fill-rule="evenodd" clip-rule="evenodd" d="M126.387 34.313C122.285 30.1779 117.407 26.8935 112.033 24.6484C106.658 22.4032 100.893 21.2415 95.0687 21.2298C89.2442 21.2182 83.4747 22.3568 78.0913 24.5804C72.708 26.8039 67.8167 30.0687 63.6981 34.1873C59.5796 38.3059 56.315 43.1973 54.0915 48.5807C51.868 53.9641 50.7295 59.7336 50.7413 65.5582C50.7531 71.3827 51.915 77.1475 54.1602 82.5219C56.4055 87.8963 59.6899 92.7744 63.8251 96.8763C67.9271 101.011 72.8052 104.296 78.1796 106.541C83.5541 108.786 89.319 109.948 95.1435 109.959C100.968 109.971 106.737 108.832 112.121 106.609C117.504 104.385 122.396 101.121 126.514 97.0019C130.633 92.8833 133.897 87.992 136.121 82.6085C138.344 77.2251 139.483 71.4556 139.471 65.6311C139.459 59.8066 138.297 54.0417 136.052 48.6673C133.807 43.293 130.522 38.4149 126.387 34.313ZM136.366 64.12H133.415C132.656 44.1497 116.551 28.0447 96.5803 27.2854V24.3338C107.014 24.7051 116.919 29.0161 124.302 36.3985C131.684 43.7809 135.995 53.6863 136.366 64.12ZM95.1056 100.986C75.591 100.986 59.7146 85.1093 59.7146 65.5946C59.7146 46.0799 75.591 30.2035 95.1056 30.2035C114.62 30.2035 130.497 46.0799 130.497 65.5946C130.497 85.1093 114.62 100.986 95.1056 100.986ZM65.9095 36.3985C73.2755 28.992 83.1909 24.6768 93.631 24.3338V27.2854C73.6607 28.0447 57.5557 44.1497 56.7965 64.12H53.8448C54.1877 53.6799 58.503 43.7644 65.9095 36.3985ZM53.8448 67.0692H56.7965C57.5557 87.0396 73.6607 103.145 93.631 103.904V106.855C83.1973 106.484 73.2919 102.173 65.9095 94.7908C58.5271 87.4084 54.2161 77.5029 53.8448 67.0692ZM124.302 94.7908C116.936 102.197 107.02 106.512 96.5803 106.855V103.904C116.551 103.145 132.656 87.0396 133.415 67.0692H136.366C136.024 77.5094 131.708 87.4248 124.302 94.7908ZM79.8116 66.9638L94.5579 72.8623C94.9095 73.0029 95.3017 73.0029 95.6532 72.8623L110.399 66.9638C110.594 66.8861 110.769 66.7678 110.915 66.6169C111.06 66.466 111.171 66.2859 111.241 66.0886C111.311 65.8914 111.339 65.6814 111.321 65.4728C111.304 65.2641 111.243 65.0615 111.141 64.8785L96.3946 38.3352C96.2669 38.1053 96.08 37.9138 95.8534 37.7805C95.6267 37.6471 95.3685 37.5768 95.1056 37.5768C94.8426 37.5768 94.5844 37.6471 94.3578 37.7805C94.1311 37.9138 93.9443 38.1053 93.8166 38.3352L79.0703 64.8785C78.9686 65.0615 78.9071 65.2641 78.8897 65.4728C78.8724 65.6814 78.8998 65.8914 78.9699 66.0886C79.04 66.2859 79.1514 66.466 79.2965 66.6169C79.4416 66.7678 79.6173 66.8861 79.8116 66.9638ZM93.6309 69.3151L84.3299 65.5946L93.6309 61.8741V69.3151ZM96.5802 61.8741L105.881 65.5946L96.5802 69.3151V61.8741ZM96.5802 58.6978V44.7421L106.549 62.6852L96.5802 58.6978ZM93.6309 58.6978L83.6626 62.6852L93.6309 44.7421V58.6978ZM95.1056 75.8035L109.304 70.1239C109.604 70.0039 109.936 69.9858 110.247 70.0724C110.558 70.1591 110.833 70.3456 111.028 70.6033C111.223 70.861 111.328 71.1757 111.326 71.4989C111.325 71.8221 111.218 72.1359 111.021 72.3921L96.2744 91.5623C96.1367 91.7413 95.9597 91.8863 95.757 91.9861C95.5543 92.0859 95.3315 92.1378 95.1056 92.1378C94.8797 92.1378 94.6568 92.0859 94.4542 91.9861C94.2515 91.8863 94.0745 91.7413 93.9368 91.5623L79.1905 72.3921C78.9934 72.1359 78.886 71.8221 78.8848 71.4989C78.8835 71.1757 78.9885 70.861 79.1835 70.6033C79.3786 70.3456 79.6529 70.1591 79.9643 70.0724C80.2756 69.9858 80.6068 70.0039 80.9069 70.1239L95.1056 75.8035ZM93.631 86.3277V78.39L84.8112 74.8625L93.631 86.3277ZM96.5802 78.39V86.3277L105.4 74.8621L96.5802 78.39ZM72.1657 85.9277C71.9079 86.1855 71.7324 86.5139 71.6613 86.8715C71.5901 87.2291 71.6266 87.5997 71.7661 87.9365C71.9057 88.2733 72.1419 88.5612 72.445 88.7638C72.7482 88.9663 73.1046 89.0744 73.4691 89.0744C73.8337 89.0744 74.1901 88.9663 74.4932 88.7638C74.7963 88.5612 75.0326 88.2733 75.1721 87.9365C75.3116 87.5997 75.3481 87.2291 75.277 86.8715C75.2059 86.5139 75.0303 86.1855 74.7725 85.9277C74.4268 85.582 73.958 85.3878 73.4691 85.3878C72.9803 85.3878 72.5114 85.582 72.1657 85.9277ZM118.585 43.9581C118.585 44.9762 117.76 45.8014 116.742 45.8014C115.724 45.8014 114.899 44.9762 114.899 43.9581C114.899 42.9401 115.724 42.1148 116.742 42.1148C117.76 42.1148 118.585 42.9401 118.585 43.9581ZM115.439 85.9277C115.181 86.1855 115.005 86.5139 114.934 86.8715C114.863 87.2291 114.9 87.5997 115.039 87.9365C115.179 88.2733 115.415 88.5612 115.718 88.7638C116.021 88.9663 116.378 89.0744 116.742 89.0744C117.107 89.0744 117.463 88.9663 117.766 88.7638C118.069 88.5612 118.306 88.2733 118.445 87.9365C118.585 87.5997 118.621 87.2291 118.55 86.8715C118.479 86.5139 118.303 86.1855 118.045 85.9277C117.7 85.582 117.231 85.3878 116.742 85.3878C116.253 85.3878 115.784 85.582 115.439 85.9277ZM75.3124 43.9581C75.3124 44.9762 74.4871 45.8014 73.4691 45.8014C72.4511 45.8014 71.6258 44.9762 71.6258 43.9581C71.6258 42.9401 72.4511 42.1148 73.4691 42.1148C74.4871 42.1148 75.3124 42.9401 75.3124 43.9581Z" fill="url(#paint0_linear_2699_947)"/>
<path fill-rule="evenodd" clip-rule="evenodd" d="M61.4816 11.2452C58.186 7.92299 54.2668 5.28429 49.9489 3.48049C45.631 1.6767 40.9994 0.743337 36.3199 0.733958C31.6403 0.724579 27.005 1.63937 22.6799 3.42584C18.3548 5.21231 14.425 7.83529 11.1161 11.1442C7.80725 14.4532 5.18435 18.383 3.39797 22.7082C1.61159 27.0333 0.696896 31.6686 0.706372 36.3482C0.715847 41.0277 1.64931 45.6593 3.45319 49.9772C5.25707 54.295 7.89586 58.2142 11.2181 61.5097C14.5137 64.8319 18.4329 67.4706 22.7509 69.2744C27.0688 71.0782 31.7004 72.0116 36.3799 72.021C40.336 72.0289 44.2605 71.3763 47.9926 70.0949C47.8411 69.2668 47.7129 68.4342 47.6084 67.5983C44.3991 68.7536 41.0027 69.4132 37.5343 69.5272V67.1558C40.9873 67.0245 44.2965 66.3222 47.37 65.1407C47.3123 64.3065 47.278 63.4699 47.2673 62.6319C43.9041 64.0357 40.2157 64.8113 36.3495 64.8113C20.6711 64.8113 7.91565 52.0559 7.91565 36.3775C7.91565 20.699 20.6711 7.94361 36.3495 7.94361C49.0014 7.94361 59.7498 16.2497 63.4281 27.6951C64.0728 27.1614 64.7321 26.6462 65.4051 26.15C61.304 14.5323 50.4208 6.08908 37.5343 5.59915V3.22774C45.9169 3.52607 53.8751 6.98957 59.8063 12.9207C63.1891 16.3036 65.7693 20.3459 67.4172 24.7503C68.1061 24.2986 68.8075 23.866 69.5206 23.453C69.4316 23.2271 69.3403 23.002 69.2466 22.7778C67.4427 18.4599 64.8039 14.5407 61.4816 11.2452ZM71.09 28.5158C70.9325 27.8307 70.7546 27.1502 70.5566 26.4751C69.8276 26.9139 69.1114 27.3756 68.4092 27.8597C68.6098 28.6147 68.7839 29.3778 68.9309 30.1476C69.6368 29.5866 70.3567 29.0425 71.09 28.5158ZM66.8266 31.9061C66.7018 31.0513 66.5417 30.2078 66.3479 29.377C65.646 29.9281 64.9604 30.5029 64.2926 31.1011C64.4654 32.0185 64.5941 32.9514 64.6762 33.8973C65.3753 33.215 66.0924 32.551 66.8266 31.9061ZM12.8928 12.9207C18.8108 6.97026 26.777 3.50328 35.1648 3.22774V5.59915C19.1202 6.20914 6.18119 19.1482 5.57119 35.1927H3.19978C3.47524 26.8049 6.94223 18.8387 12.8928 12.9207ZM3.19978 37.5622H5.57119C6.18119 53.6068 19.1202 66.5458 35.1648 67.1558V69.5272C26.7822 69.2289 18.8239 65.7654 12.8928 59.8342C6.96161 53.903 3.49811 45.9448 3.19978 37.5622ZM24.062 37.4775L35.9095 42.2165C36.1919 42.3294 36.507 42.3294 36.7894 42.2165L48.6369 37.4775C48.7931 37.415 48.9341 37.32 49.0508 37.1988C49.1674 37.0775 49.2568 36.9329 49.3132 36.7744C49.3695 36.6159 49.3915 36.4472 49.3776 36.2796C49.3636 36.1119 49.3142 35.9492 49.2325 35.8021L37.3851 14.4767C37.2825 14.2921 37.1323 14.1382 36.9502 14.031C36.7682 13.9239 36.5607 13.8674 36.3495 13.8674C36.1382 13.8674 35.9308 13.9239 35.7487 14.031C35.5666 14.1382 35.4165 14.2921 35.3138 14.4767L23.4664 35.8021C23.3847 35.9492 23.3353 36.1119 23.3214 36.2796C23.3075 36.4472 23.3294 36.6159 23.3858 36.7744C23.4421 36.9329 23.5316 37.0775 23.6482 37.1988C23.7648 37.32 23.9059 37.415 24.062 37.4775ZM35.1647 39.3666L27.6921 36.3775L35.1647 33.3884V39.3666ZM37.5342 33.3884L45.0068 36.3775L37.5342 39.3666V33.3884ZM37.5342 30.8364V19.6241L45.5429 34.04L37.5342 30.8364ZM35.1647 30.8364L27.156 34.04L35.1647 19.6241V30.8364ZM36.3495 44.5794L47.7569 40.0164C47.998 39.92 48.2641 39.9055 48.5143 39.975C48.7645 40.0446 48.9848 40.1945 49.1415 40.4015C49.2982 40.6086 49.3826 40.8614 49.3815 41.121C49.3805 41.3807 49.2943 41.6329 49.136 41.8387L37.2885 57.2404C37.1779 57.3842 37.0356 57.5007 36.8728 57.5809C36.71 57.6611 36.531 57.7027 36.3495 57.7027C36.168 57.7027 35.9889 57.6611 35.8261 57.5809C35.6633 57.5007 35.5211 57.3842 35.4104 57.2404L23.563 41.8387C23.4047 41.6329 23.3184 41.3807 23.3174 41.121C23.3164 40.8614 23.4007 40.6086 23.5574 40.4015C23.7141 40.1945 23.9345 40.0446 24.1846 39.975C24.4348 39.9055 24.7009 39.92 24.942 40.0164L36.3495 44.5794ZM35.1647 53.0348V46.6575L28.0788 43.8234L35.1647 53.0348ZM37.5342 46.6575V53.0348L44.6202 43.8231L37.5342 46.6575ZM17.9192 52.7134C17.712 52.9206 17.571 53.1844 17.5139 53.4717C17.4567 53.759 17.486 54.0567 17.5981 54.3274C17.7102 54.598 17.9 54.8293 18.1436 54.992C18.3871 55.1547 18.6734 55.2416 18.9663 55.2416C19.2592 55.2416 19.5456 55.1547 19.7891 54.992C20.0326 54.8293 20.2224 54.598 20.3345 54.3274C20.4466 54.0567 20.4759 53.759 20.4188 53.4717C20.3617 53.1844 20.2206 52.9206 20.0135 52.7134C19.7358 52.4357 19.3591 52.2797 18.9663 52.2797C18.5736 52.2797 18.1969 52.4357 17.9192 52.7134ZM55.2136 18.9943C55.2136 19.8122 54.5506 20.4752 53.7327 20.4752C52.9148 20.4752 52.2517 19.8122 52.2517 18.9943C52.2517 18.1764 52.9148 17.5134 53.7327 17.5134C54.5506 17.5134 55.2136 18.1764 55.2136 18.9943ZM20.4473 18.9943C20.4473 19.8122 19.7842 20.4752 18.9663 20.4752C18.1484 20.4752 17.4854 19.8122 17.4854 18.9943C17.4854 18.1764 18.1484 17.5134 18.9663 17.5134C19.7842 17.5134 20.4473 18.1764 20.4473 18.9943Z" fill="url(#paint1_linear_2699_947)"/>
<defs>
<linearGradient id="paint0_linear_2699_947" x1="173.904" y1="109.959" x2="7.0686" y2="-15.3212" gradientUnits="userSpaceOnUse">
<stop stop-color="#9543E4"/>
<stop offset="1" stop-color="#55ADFF"/>
</linearGradient>
<linearGradient id="paint1_linear_2699_947" x1="101.914" y1="72.021" x2="-32.9381" y2="-31.5524" gradientUnits="userSpaceOnUse">
<stop stop-color="#9543E4"/>
<stop offset="1" stop-color="#55ADFF"/>
</linearGradient>
</defs>
</svg>
