<svg width="115" height="123" viewBox="0 0 115 123" fill="none" xmlns="http://www.w3.org/2000/svg">
<path fill-rule="evenodd" clip-rule="evenodd" d="M55.1489 0.300294C52.8427 0.920425 50.5643 2.67708 49.3346 4.78266C48.3455 6.47654 47.9584 9.36819 48.4407 11.4602C49.1695 14.6217 52.3457 17.7738 55.307 18.2742L56.0844 18.4057V25.7577V33.1097H55.4396C54.2419 33.1097 51.4069 33.6975 49.451 34.3515C44.7718 35.9158 40.69 38.745 37.6883 42.5043C36.8362 43.5711 36.2129 44.1907 36.0529 44.1294C35.8566 44.054 21.2838 35.6564 21.123 35.5259C21.1044 35.511 21.2642 34.9825 21.4778 34.352C22.9697 29.9501 21.0277 24.5664 17.0201 21.9946C12.0273 18.7904 5.36153 20.2737 2.09613 25.3153C1.07356 26.8944 0.566012 28.5016 0.450607 30.5258C0.0808523 37.0138 5.30871 42.2403 11.7788 41.8512C14.5681 41.6834 16.6075 40.8001 18.6143 38.8899C19.2161 38.3172 19.8189 37.8916 19.954 37.9438C20.3412 38.0935 34.5343 46.3229 34.7205 46.5055C34.8148 46.5979 34.5534 47.4477 34.1192 48.46C31.2585 55.1297 31.4605 63.1329 34.6495 69.4758L35.4146 70.9978L34.9842 71.274C34.7473 71.426 32.0268 73.0655 28.9386 74.9175L23.3235 78.2846L22.3628 77.4206C18.7407 74.1639 13.2493 74.2941 9.77084 77.7191C4.50585 82.9036 7.146 91.7933 14.4075 93.3314C16.809 93.8401 19.2172 93.353 21.3982 91.9175C24.7214 89.7302 26.2624 85.2317 24.9815 81.4581C24.81 80.9534 24.6975 80.5187 24.7314 80.4925C24.7652 80.4663 27.5005 78.8235 30.8097 76.842L36.8265 73.2389L37.494 74.0847C38.7354 75.657 41.5231 78.2447 43.1144 79.302C46.8899 81.8101 51.3306 83.3805 55.5102 83.6858L56.1801 83.7346L56.2298 92.3567L56.2796 100.979L55.1475 101.213C50.4326 102.187 46.7123 106.845 46.7123 111.775C46.7123 116.59 50.1344 121.032 54.7663 122.229C56.3292 122.633 58.7104 122.633 60.2732 122.229C64.8948 121.035 68.3272 116.579 68.3272 111.775C68.3272 106.845 64.6069 102.187 59.892 101.213L58.7599 100.979L58.8097 92.3631L58.8594 83.7473L60.634 83.5095C67.1451 82.6375 72.8504 79.4557 77.1595 74.2941L78.0102 73.2749L83.8412 76.7602C87.0483 78.6771 89.7742 80.3258 89.8986 80.4238C90.071 80.5595 90.0561 80.7924 89.8356 81.4026C89.4274 82.5321 89.295 84.8685 89.5652 86.169C90.3296 89.8469 93.4365 92.7996 97.1949 93.4203C101.567 94.1425 106.065 91.341 107.396 87.0667C108.138 84.6797 107.741 81.4428 106.458 79.4282C105.09 77.2807 102.558 75.5983 100.047 75.168C97.4475 74.7228 94.504 75.5912 92.5142 77.3899L91.5282 78.2813L85.5287 74.7134C82.2288 72.751 79.502 71.123 79.4689 71.0956C79.4358 71.0682 79.7207 70.4263 80.102 69.6693C83.3666 63.1859 83.5681 55.1418 80.6382 48.2614C80.0666 46.9189 80.0005 46.6274 80.2224 46.4251C80.5033 46.1688 94.3446 38.1538 94.8244 37.9697C95.0028 37.9013 95.5117 38.2541 96.1909 38.9175C99.437 42.0868 104.253 42.7948 108.524 40.73C110.019 40.0071 112.382 37.7226 113.173 36.2343C113.868 34.9272 114.457 32.5716 114.457 31.1C114.457 26.604 111.401 22.3621 107.073 20.8485C104.497 19.9478 101.432 20.1767 98.7631 21.469C97.0726 22.2874 94.8315 24.5287 94.0132 26.2193C92.7544 28.8189 92.498 31.7794 93.3121 34.3084C93.5318 34.9909 93.5988 35.4775 93.488 35.5846C93.2135 35.8497 78.715 44.2108 78.53 44.2108C78.4406 44.2108 78.2237 43.9738 78.048 43.6844C77.5078 42.7943 75.3842 40.4586 74.0745 39.3142C72.6286 38.0508 70.2859 36.4783 68.5571 35.6109C66.1277 34.3917 61.4355 33.1123 59.3858 33.1102L58.7638 33.1097V25.7864V18.4629L60.0204 18.1031C63.8762 16.9987 66.6151 13.3363 66.6082 9.29354C66.5981 3.29013 60.8386 -1.23013 55.1489 0.300294ZM60.3388 3.40306C65.3154 5.85354 65.1979 12.9064 60.141 15.277C59.2275 15.7052 58.7871 15.7881 57.4241 15.7881C56.0664 15.7881 55.6195 15.7046 54.7217 15.2837C49.9903 13.0651 49.4102 6.77187 53.6672 3.8427C55.6629 2.46961 58.1148 2.30807 60.3388 3.40306ZM13.504 23.2616C14.7909 23.6358 16.5912 24.7919 17.3956 25.7605C17.7363 26.1707 18.2913 27.0645 18.6289 27.7465C19.2078 28.9155 19.2428 29.1071 19.2428 31.096C19.2428 33.0733 19.2044 33.2865 18.6287 34.5019C17.822 36.2052 16.3095 37.7178 14.6064 38.5245C13.3916 39.1001 13.1773 39.1387 11.2047 39.1387C9.23822 39.1387 9.01526 39.0989 7.82102 38.5329C5.64804 37.5034 4.07447 35.736 3.35812 33.5204C2.82875 31.8826 3.0121 29.3546 3.77917 27.7161C5.51598 24.0069 9.61276 22.1303 13.504 23.2616ZM107.045 23.6814C108.747 24.4797 110.258 25.9883 111.067 27.6981C111.643 28.9129 111.682 29.1272 111.682 31.1C111.682 33.0727 111.643 33.2871 111.067 34.5019C110.261 36.2052 108.748 37.7178 107.045 38.5245C105.83 39.1001 105.616 39.1387 103.643 39.1387C101.681 39.1387 101.452 39.0981 100.271 38.5381C97.0518 37.0129 95.3737 34.2075 95.5444 30.637C95.709 27.1941 97.7605 24.5101 101.153 23.2991C101.88 23.0396 102.553 22.9707 103.931 23.0149C105.503 23.0654 105.924 23.1554 107.045 23.6814ZM9.95955 26.3868C8.60282 26.8316 7.45298 27.81 6.78141 29.0903C6.27118 30.0636 6.29989 32.1908 6.83711 33.2079C7.78121 34.9955 9.22004 35.8737 11.2047 35.8737C12.7928 35.8737 13.7361 35.4558 14.7954 34.2833C15.4599 33.5478 16.085 32.0047 16.085 31.1C16.085 29.5445 14.7977 27.5038 13.3511 26.7658C12.505 26.334 10.7262 26.1353 9.95955 26.3868ZM102.398 26.3868C101.515 26.6766 100.777 27.1386 100.172 27.7821C99.1692 28.848 98.8689 29.6126 98.8689 31.1C98.8689 32.5871 99.1691 33.3514 100.172 34.4185C101.166 35.4757 102.115 35.8737 103.643 35.8737C104.644 35.8737 105.177 35.7703 105.749 35.4654C106.63 34.9955 107.586 34.037 108.005 33.2029C109.13 30.9668 108.08 27.9344 105.776 26.7585C104.942 26.333 103.16 26.1368 102.398 26.3868ZM12.2636 29.1892C12.5723 29.3489 12.9557 29.7322 13.1153 30.041C13.9746 31.7029 12.7032 33.4883 10.8386 33.2383C8.85583 32.9722 8.2968 30.3233 10.0038 29.2825C10.753 28.8256 11.5008 28.7948 12.2636 29.1892ZM104.702 29.1892C105.011 29.3489 105.394 29.7322 105.554 30.041C106.413 31.7029 105.142 33.4883 103.277 33.2383C101.295 32.9722 100.736 30.3233 102.442 29.2825C103.192 28.8256 103.939 28.7948 104.702 29.1892ZM61.6743 36.0953C73.7781 38.3915 81.8744 50.0959 79.7994 62.298C79.3087 65.1837 77.8622 68.7188 76.1244 71.279C72.9729 75.9221 67.3552 79.5893 61.6942 80.699C59.63 81.1037 55.6128 81.1481 53.5964 80.7886C47.3993 79.6839 41.9527 76.107 38.4722 70.8564C30.8802 59.4027 35.1505 43.9616 47.5678 37.9681C52.0479 35.8057 56.813 35.1729 61.6743 36.0953ZM46.9492 43.8081C45.7318 44.26 45.0734 44.7147 44.1389 45.7494C42.9548 47.0601 42.6084 48.0493 42.5994 50.1441C42.5927 51.7207 42.6591 52.1062 43.0985 53.0435C44.1871 55.3657 46.4929 56.8506 49.0309 56.864C51.9141 56.8789 53.9541 55.6346 55.3412 53.0151C55.7339 52.2735 55.7973 51.8878 55.7973 50.2398C55.7973 48.6773 55.7207 48.1601 55.3803 47.423C54.7887 46.1426 53.3566 44.6899 52.0894 44.0849C50.6322 43.3891 48.4014 43.2689 46.9492 43.8081ZM56.4356 57.3566C43.7749 70.0182 44.0545 69.6942 44.9841 70.6238C45.2089 70.8487 45.6219 71.0066 45.9852 71.0066C46.5475 71.0066 47.6548 69.9558 58.2265 59.3885C64.6192 52.9987 69.9515 47.5239 70.0765 47.2226C70.2709 46.7529 70.2487 46.6012 69.9213 46.1604C69.6685 45.8205 69.3242 45.6252 68.9045 45.5839C68.2961 45.5242 67.7774 46.0142 56.4356 57.3566ZM51.0651 46.533C52.6921 47.3206 53.6232 49.2501 53.2281 51.0152C52.8046 52.9083 51.1505 54.2242 49.1945 54.2242C45.7211 54.2242 43.8777 50.374 46.0116 47.576C47.0803 46.1749 49.3555 45.7052 51.0651 46.533ZM63.7397 60.0844C62.0182 60.61 60.4583 61.9234 59.5836 63.5834C59.0989 64.5036 59.0508 64.7758 59.0508 66.6044C59.0508 68.4331 59.0989 68.7052 59.5836 69.6255C60.7369 71.8143 62.783 73.1386 65.2146 73.2699C71.5687 73.6131 74.8056 65.9156 70.1113 61.625C68.7866 60.414 67.4247 59.9001 65.5985 59.9219C64.8394 59.9309 64.0029 60.0041 63.7397 60.0844ZM67.7152 63.0892C68.942 63.8004 69.5529 64.8514 69.6348 66.3918C69.6907 67.4435 69.6244 67.8026 69.2421 68.5184C67.9274 70.9798 64.3359 71.3821 62.5285 69.2704C60.9932 67.4764 61.149 65.1046 62.9036 63.5601C64.3271 62.307 66.0716 62.1362 67.7152 63.0892ZM18.9879 78.3217C22.055 79.726 23.5771 83.4326 22.3877 86.6008C21.8451 88.0459 20.4298 89.5759 18.9766 90.2881C18.0624 90.7362 17.6618 90.8145 16.2764 90.8154C14.4265 90.8166 13.1157 90.3377 11.7953 89.1782C8.86789 86.6077 8.88435 82.057 11.8305 79.395C13.2628 78.1008 14.4515 77.6843 16.4716 77.7685C17.5167 77.8122 18.2057 77.9636 18.9879 78.3217ZM101.498 78.3768C102.845 79.0411 103.986 80.2374 104.66 81.6914C105.069 82.5744 105.165 83.0649 105.169 84.3128C105.174 85.6651 105.1 85.9991 104.551 87.1153C103.825 88.5904 102.787 89.6025 101.274 90.312C100.376 90.7329 99.9294 90.8164 98.5717 90.8164C97.2119 90.8164 96.7676 90.7331 95.864 90.3095C94.5373 89.6875 93.3934 88.5728 92.7083 87.2342C92.0359 85.9206 91.8608 83.5836 92.3297 82.178C92.7713 80.8537 93.9159 79.4354 95.1335 78.7043C96.5739 77.8394 97.0939 77.7094 98.8588 77.7741C100.083 77.8189 100.612 77.9396 101.498 78.3768ZM59.4269 103.838C63.2155 104.825 65.6536 107.963 65.6536 111.853C65.6536 116.82 61.02 120.723 56.1801 119.833C53.5583 119.351 51.2458 117.6 50.1092 115.236C49.2738 113.499 49.1356 111.093 49.7631 109.207C51.1074 105.167 55.3921 102.787 59.4269 103.838ZM55.2962 107.524C51.8197 109.34 51.8257 114.268 55.3066 116.033C58.9613 117.887 63.117 114.706 62.2284 110.735C61.5387 107.653 58.0996 106.06 55.2962 107.524ZM58.2593 109.742C59.7025 110.345 60.1766 111.969 59.2359 113.087C58.5559 113.895 57.6443 114.169 56.8028 113.817C55.2656 113.174 54.8455 111.561 55.9022 110.358C56.4078 109.782 56.6572 109.647 57.478 109.504C57.5603 109.489 57.9119 109.596 58.2593 109.742Z" fill="url(#paint0_linear_2597_1834)"/>
<defs>
<linearGradient id="paint0_linear_2597_1834" x1="158.706" y1="122.532" x2="-66.5789" y2="-34.8935" gradientUnits="userSpaceOnUse">
<stop stop-color="#9543E4"/>
<stop offset="1" stop-color="#55ADFF"/>
</linearGradient>
</defs>
</svg>
