<svg width="105" height="97" viewBox="0 0 105 97" fill="none" xmlns="http://www.w3.org/2000/svg">
<path fill-rule="evenodd" clip-rule="evenodd" d="M83.258 37.473C81.3934 47.6809 74.2062 56.0304 64.6779 59.5398C63.5796 52.1876 59.9895 45.6497 54.7945 40.8129C59.6105 37.2878 65.5499 35.2065 71.9755 35.2065C75.976 35.2065 79.7881 36.0133 83.258 37.473ZM54.6141 61.3257C57.085 61.3257 59.484 61.0179 61.7748 60.4387C60.842 53.445 57.4268 47.2364 52.4443 42.7278C47.7919 46.9377 44.5061 52.6298 43.3316 59.0593C46.8015 60.5189 50.6136 61.3257 54.6141 61.3257ZM40.5398 57.7045C41.9236 51.1011 45.3356 45.2434 50.0942 40.8129C45.2782 37.2878 39.3387 35.2065 32.9132 35.2065C30.4423 35.2065 28.0434 35.5143 25.7525 36.0936C26.9955 45.4128 32.6463 53.3381 40.5398 57.7045ZM71.9755 32.2065C64.6277 32.2065 57.8562 34.6739 52.4443 38.8252C47.0324 34.6739 40.261 32.2065 32.9132 32.2065C30.3645 32.2065 27.8851 32.5034 25.5077 33.0645C25.4995 32.7796 25.4954 32.4937 25.4954 32.2069C25.4954 16.1251 38.5323 3.08813 54.6141 3.08813C70.696 3.08813 83.7329 16.1251 83.7329 32.2069C83.7329 32.9429 83.7056 33.6726 83.6519 34.3949C80.0329 32.982 76.0947 32.2065 71.9755 32.2065ZM0.794434 64.3253C0.794434 50.2164 9.89157 38.2322 22.5402 33.9185C22.5104 33.3517 22.4954 32.7811 22.4954 32.2069C22.4954 14.4682 36.8754 0.0881348 54.6141 0.0881348C72.3528 0.0881348 86.7329 14.4682 86.7329 32.2069C86.7329 33.3851 86.6695 34.5485 86.5458 35.6939C96.9613 41.0048 104.094 51.8321 104.094 64.3253C104.094 82.064 89.7142 96.4441 71.9755 96.4441C64.6277 96.4441 57.8562 93.9768 52.4443 89.8254C47.0324 93.9768 40.261 96.4441 32.9132 96.4441C15.1745 96.4441 0.794434 82.064 0.794434 64.3253ZM3.79443 64.3253C3.79443 51.7808 11.7269 41.089 22.8495 36.9925C24.408 47.4254 30.9841 56.2187 40.0438 60.8384C39.9201 61.9837 39.8567 63.1471 39.8567 64.3253C39.8567 73.6096 43.7959 81.9738 50.0942 87.8377C45.2782 91.3629 39.3387 93.4441 32.9132 93.4441C16.8314 93.4441 3.79443 80.4072 3.79443 64.3253ZM42.8567 64.3253C42.8567 72.8919 46.556 80.5946 52.4443 85.9228C58.3327 80.5946 62.032 72.8919 62.032 64.3253C62.032 64.0385 62.0278 63.7526 62.0196 63.4678C59.6422 64.0288 57.1629 64.3257 54.6141 64.3257C50.4949 64.3257 46.5567 63.5502 42.9377 62.1373C42.884 62.8596 42.8567 63.5893 42.8567 64.3253ZM65.032 64.3253C65.032 73.6096 61.0928 81.9738 54.7945 87.8377C59.6105 91.3629 65.5499 93.4441 71.9755 93.4441C88.0573 93.4441 101.094 80.4072 101.094 64.3253C101.094 53.3482 95.0202 43.7898 86.0498 38.8277C83.7142 49.973 75.6011 58.9939 64.9872 62.6138C65.0169 63.1805 65.032 63.7512 65.032 64.3253ZM41.3273 17.3137C43.6948 15.2144 47.7702 12.7036 52.2489 11.9767C56.6585 11.261 61.4756 12.2614 65.577 17.204C65.9297 17.629 66.5601 17.6877 66.9851 17.335C67.4102 16.9823 67.4688 16.3519 67.1161 15.9268C62.5082 10.3738 56.9499 9.18757 51.9285 10.0025C46.9762 10.8063 42.5649 13.5432 40.0004 15.8172C39.5872 16.1836 39.5492 16.8156 39.9156 17.2289C40.282 17.6421 40.9141 17.6801 41.3273 17.3137ZM85.8232 76.0615C88.6518 72.5075 89.7112 67.9335 89.1491 64.4872C89.0602 63.9421 89.43 63.4282 89.9751 63.3393C90.5202 63.2504 91.0341 63.6202 91.123 64.1653C91.7805 68.1967 90.5497 73.3345 87.3881 77.307C84.1901 81.3253 79.0201 84.1462 71.883 83.4824C71.3331 83.4312 70.9288 82.944 70.9799 82.3941C71.0311 81.8441 71.5183 81.4398 72.0683 81.491C78.5111 82.0902 83.0312 79.5697 85.8232 76.0615ZM14.8963 66.1206C15.0813 69.2018 16.5232 73.5121 19.5322 76.8806C22.5059 80.2094 27.0194 82.6352 33.4709 82.0352C34.0208 81.984 34.5081 82.3883 34.5592 82.9383C34.6104 83.4882 34.206 83.9754 33.6561 84.0266C26.5277 84.6896 21.406 81.9802 18.0407 78.213C14.7109 74.4855 13.11 69.7391 12.8999 66.2405C12.8668 65.6892 13.2868 65.2155 13.8381 65.1824C14.3894 65.1493 14.8632 65.5693 14.8963 66.1206Z" fill="url(#paint0_linear_2674_73)"/>
<defs>
<linearGradient id="paint0_linear_2674_73" x1="144.182" y1="96.4441" x2="-40.1263" y2="-51.9308" gradientUnits="userSpaceOnUse">
<stop stop-color="#9543E4"/>
<stop offset="1" stop-color="#55ADFF"/>
</linearGradient>
</defs>
</svg>
