<svg width="203" height="32" viewBox="0 0 203 32" fill="none" xmlns="http://www.w3.org/2000/svg">
<path fill-rule="evenodd" clip-rule="evenodd" d="M51.4726 0.199612C50.9911 0.287442 49.7641 0.668986 48.7455 1.04733C47.7271 1.42603 46.4441 1.73575 45.894 1.73575C45.3032 1.73575 44.8067 1.96688 44.6806 2.30113C44.121 3.78144 45.7035 3.8874 49.5127 2.62471C50.9877 2.13578 52.5078 1.73575 52.8909 1.73575C53.2736 1.73575 54.7146 2.13578 56.0925 2.62471C59.2802 3.75548 61.1197 3.74517 64.5059 2.57671C67.4281 1.56827 68.6107 1.62516 71.958 2.93443C73.5888 3.57235 75.4952 3.67512 75.8195 3.14245C76.1847 2.54222 75.277 1.73575 74.236 1.73575C73.7061 1.73575 72.5148 1.39545 71.589 0.979414C69.337 -0.0318747 66.2614 -0.0336532 63.8035 0.975502C61.5193 1.91354 59.0309 1.94626 56.8258 1.06796C54.932 0.313756 52.7704 -0.0372088 51.4726 0.199612ZM51.3424 7.08093C50.7894 7.24912 49.5918 8.02466 48.6814 8.8041C47.7709 9.58391 46.5008 10.3598 45.8589 10.5287C44.5899 10.8626 44.3126 11.2449 44.7867 12.0058C45.3085 12.8432 47.5177 12.1573 49.1405 10.6539C51.9678 8.03426 53.4277 7.92474 55.8499 10.1511C57.4516 11.6228 59.0617 12.4034 60.4974 12.4034C61.5501 12.4034 64.1676 10.8782 65.2535 9.63262C66.6987 7.97416 68.8397 8.32406 71.2927 10.6201C72.934 12.1562 75.1387 12.8546 75.6675 12.0058C76.143 11.2427 75.8548 10.8416 74.6506 10.5916C74.042 10.465 72.8937 9.76561 72.0995 9.03666C68.998 6.19125 66.5839 6.09489 63.6946 8.70063C60.9432 11.1819 59.4704 11.2153 56.9459 8.85211C54.7759 6.821 53.5114 6.42132 51.3424 7.08093ZM51.2107 13.9999C50.4162 14.3505 49.5712 15.3113 48.4093 17.1856C47.1872 19.157 46.4616 19.9653 45.6761 20.2302C45.0045 20.4567 39.2801 20.5559 30.2683 20.4972C22.5055 20.4004 15.2592 20.3855 7.52952 20.5819C1.38915 20.738 0.516515 20.8315 0.419515 21.3464C0.247928 22.2552 4.93716 22.4227 26.976 22.2951C49.352 22.1649 47.3941 22.4956 49.7179 18.4551C51.8403 14.7645 53.1549 14.6354 55.1495 17.9206C55.7273 18.8722 56.6966 20.1804 57.3031 20.8276C58.2314 21.8179 58.6548 22.0042 59.9764 22.0042C61.3561 22.0042 61.6838 21.8424 62.678 20.6707C63.3002 19.9375 64.3046 18.5372 64.9097 17.5594C65.7413 16.216 66.2498 15.7533 66.9918 15.6669C68.2413 15.5211 68.6944 15.9183 70.0408 18.3409C71.6289 21.1984 72.6087 22.0042 74.494 22.0042C75.5033 22.0042 76.4071 21.7475 77.0598 21.2756L78.0676 20.5467L79.073 21.3016C80.0307 22.0206 80.4544 22.0551 88.055 22.0319C95.5495 22.0095 96.1042 21.9626 97.2332 21.2539C98.4003 20.5214 98.449 20.5189 98.9116 21.1629C99.3132 21.7222 100.013 21.8545 103.357 22.0042L107.326 22.182V25.1455C107.326 28.0428 107.3 28.1317 106.182 29.1458C104.374 30.7851 101.938 30.5095 100.293 28.4794C99.4642 27.4571 98.7467 27.6651 98.7467 28.9275C98.7467 30.7545 101.8 32.2586 104.706 31.8629C107.683 31.4571 109.206 29.2781 109.562 24.9193L109.777 22.2762L112.177 22.1589C113.498 22.0945 114.908 21.8189 115.312 21.5466C115.717 21.2738 116.77 19.8653 117.653 18.4163C119.149 15.9617 119.342 15.7814 120.471 15.7814C121.544 15.7814 121.811 15.9862 122.797 17.5594C123.41 18.5372 124.413 19.9375 125.026 20.6707C125.992 21.8246 126.342 22.0042 127.63 22.0042C129.454 22.0042 130.547 21.1992 131.852 18.8942C134.365 14.4537 135.786 14.4835 138.313 19.0297C138.878 20.046 139.696 21.1312 140.132 21.441C141.238 22.2275 143.51 22.1468 144.925 21.2706L146.106 20.5395L146.967 21.3606L147.828 22.182H174.748C201.264 22.182 201.676 22.1713 202.181 21.4708C202.692 20.7621 202.616 20.7589 181.098 20.5819C164.521 20.4453 159.321 20.2988 158.723 19.9514C157.765 19.3956 157.226 18.4249 157.226 17.2543C157.226 15.961 155.648 14.256 154.044 13.8172C151.565 13.1394 150.426 13.639 147.056 16.882C142.599 21.1714 141.593 21.2077 139.253 17.1647C137.713 14.5031 136.203 13.3446 134.658 13.6394C132.978 13.9594 132.13 14.7438 130.617 17.3748C129.585 19.1688 128.929 19.9294 128.269 20.0975C126.991 20.4233 126.434 19.9717 124.884 17.3535C123.23 14.5589 122.129 13.6639 120.341 13.6639C119.2 13.6639 118.795 13.8904 117.711 15.1339C117.007 15.9425 115.958 17.3791 115.38 18.3264L114.33 20.0485L111.966 20.1537L109.602 20.2586V18.2513C109.602 16.4528 109.481 16.121 108.443 15.0667C107.61 14.2208 106.832 13.8207 105.679 13.6451C103.526 13.3172 102.003 14.0831 99.3511 16.8276C96.4001 19.8813 95.7929 20.2213 93.2825 20.2238C90.5977 20.227 89.2919 19.2388 89.2919 17.2045C89.2919 15.5827 88.159 14.3776 86.1066 13.8165C83.6873 13.1551 82.379 13.766 78.7641 17.2447C75.9847 19.919 75.4889 20.2572 74.4895 20.1594C73.5307 20.0652 73.1311 19.6972 71.8642 17.7386C69.656 14.3264 68.8975 13.6639 67.1981 13.6639C65.9581 13.6639 65.5922 13.8623 64.4842 15.1339C63.78 15.9425 62.7309 17.3791 62.1531 18.3264C61.2986 19.7274 60.8938 20.0691 59.983 20.1583C58.9973 20.2554 58.7504 20.0862 57.9103 18.736C55.611 15.0411 55.0921 14.4021 54.0258 13.9494C52.6601 13.3702 52.6366 13.3706 51.2107 13.9999ZM86.9187 16.2259C87.2139 16.5683 87.5315 17.3282 87.624 17.915C87.7164 18.5017 87.91 19.2616 88.0543 19.604C88.2952 20.1761 87.9906 20.2263 84.2808 20.2263C79.8871 20.2263 79.5674 20.0727 80.4141 18.3697C81.5687 16.0474 85.6143 14.714 86.9187 16.2259ZM106.824 15.9717C107.367 16.2672 107.501 16.7259 107.501 18.2954V20.2512L103.912 20.1498C100.582 20.0559 100.315 19.9951 100.218 19.3092C100.148 18.8085 100.626 18.0913 101.699 17.0868C103.02 15.8504 103.522 15.6036 104.715 15.6036C105.502 15.6036 106.451 15.7693 106.824 15.9717ZM154.433 15.9635C154.81 16.1687 155.197 16.8955 155.332 17.6525C155.461 18.3836 155.713 19.2669 155.89 19.6154C156.192 20.2085 155.948 20.2426 152.084 20.1487C147.088 20.0275 146.756 19.6698 149.322 17.1736C150.687 15.8458 151.154 15.6036 152.353 15.6036C153.133 15.6036 154.069 15.7654 154.433 15.9635Z" fill="white"/>
</svg>
