<svg width="153" height="38" viewBox="0 0 153 38" fill="none" xmlns="http://www.w3.org/2000/svg">
<path fill-rule="evenodd" clip-rule="evenodd" d="M18.5809 6.93245V13.2115H19.4213H20.2619L20.9918 10.4564C21.905 7.00985 21.8917 7.21719 21.2079 7.11288C20.5295 7.00934 20.5333 7.07008 21.0193 4.11328C21.6085 0.526778 21.6461 0.653383 19.9905 0.653383H18.5809V6.93245ZM13.6474 1.20747C13.2599 1.3492 12.9426 1.54808 12.9426 1.64957C12.9426 1.75106 13.3462 3.03302 13.8398 4.49848C14.3332 5.96368 14.6505 7.23308 14.5446 7.31919C14.4388 7.4053 14.0349 7.61059 13.6471 7.77538L12.9418 8.07499L11.6314 5.45341C10.9105 4.01153 10.2718 2.7793 10.2121 2.71497C10.0678 2.56017 8.39729 3.4664 8.04541 3.89031C7.83628 4.14224 8.16561 4.7686 9.39477 6.45755C10.2887 7.68619 11.0922 8.79797 11.1801 8.92766C11.2752 9.06836 11.5504 9.05093 11.8608 8.88486C12.337 8.63011 12.511 8.82617 13.8796 11.1604C14.7033 12.5654 15.529 13.7169 15.7146 13.7195C15.8999 13.722 16.2659 13.6095 16.5275 13.4696C16.984 13.2251 16.9732 13.1041 16.2559 10.4582C15.8448 8.94175 15.5078 7.61188 15.507 7.5027C15.5062 7.39352 15.7784 7.20053 16.1118 7.07366L16.7182 6.84301L16.3671 4.7094C16.1741 3.53585 15.9537 2.20085 15.8773 1.74261C15.7594 1.03551 15.6339 0.91275 15.0454 0.929922C14.6641 0.940942 14.0349 1.066 13.6474 1.20747ZM24.2518 1.88126C24.0427 2.2785 22.4253 7.18592 22.4253 7.42299C22.4253 7.47809 22.7989 7.65339 23.2556 7.81254C23.9653 8.05986 24.1362 8.03552 24.4302 7.64545C24.9054 7.01498 27.0902 2.67012 26.9851 2.56504C26.9382 2.51789 26.3559 2.24647 25.6911 1.96148C24.563 1.47786 24.4668 1.47248 24.2518 1.88126ZM27.6271 6.66079C26.2601 8.53912 25.7821 9.02736 25.4912 8.84334C25.2849 8.71289 25.0343 8.60448 24.9341 8.60217C24.8336 8.60012 24.1898 9.54967 23.5032 10.7127C21.4742 14.149 21.5554 13.9025 22.2948 14.3869C22.9378 14.8082 22.9535 14.7995 24.9248 12.927C26.0153 11.8911 28.0029 9.90232 29.3412 8.50786L31.7749 5.97265L30.7736 5.10691C30.2228 4.63098 29.6859 4.24142 29.5803 4.24142C29.475 4.24142 28.5959 5.33014 27.6271 6.66079ZM4.5117 6.94142C4.07422 7.43965 3.71619 7.9494 3.71619 8.07421C3.71619 8.19902 4.76287 9.06939 6.04226 10.0082C7.80911 11.3053 8.3281 11.8183 8.20175 12.1431C8.10999 12.3783 8.01491 12.6751 7.99005 12.8025C7.96519 12.9299 9.14489 13.7277 10.6116 14.5752L13.2786 16.1166L13.7517 15.532L14.225 14.9476L9.96399 10.4915C7.62049 8.04064 5.61375 6.03544 5.50508 6.03544C5.39616 6.03544 4.94919 6.4432 4.5117 6.94142ZM31.0227 10.0243C28.2328 12.0528 28.4388 11.8401 28.8202 12.2996C28.9944 12.5098 29.0957 12.8061 29.0452 12.958C28.9944 13.1098 27.8591 13.8507 26.522 14.6044C24.4374 15.7795 24.1014 16.0599 24.1626 16.5738C24.2018 16.9034 24.3215 17.2606 24.4287 17.3678C24.5355 17.4746 25.881 17.2247 27.4185 16.8124C30.2659 16.0484 30.6265 16.0343 30.6265 16.6865C30.6265 17.142 30.86 17.1358 34.2145 16.5917L36.9056 16.1552L36.8169 15.4041C36.6828 14.2695 36.3176 13.4678 35.9347 13.4678C35.7464 13.4678 34.5685 13.8138 33.3175 14.2367C32.0666 14.6596 30.9056 15.0055 30.7377 15.0055C30.4427 15.0055 29.6872 13.5444 29.8871 13.3609C29.9414 13.3112 31.1652 12.6807 32.6068 11.9601L35.2279 10.6499L34.5308 9.49585C34.1474 8.86128 33.7176 8.34511 33.5756 8.34896C33.4336 8.3528 32.2849 9.1068 31.0227 10.0243ZM1.42343 11.9549C1.11434 12.6736 0.898292 13.2948 0.943142 13.3361C1.01157 13.3983 4.45173 14.5094 6.44822 15.114C6.91467 15.2554 7.04947 15.1365 7.30653 14.3576C7.4744 13.8494 7.57128 13.3968 7.52207 13.352C7.38367 13.2261 2.20126 10.6486 2.08645 10.6486C2.03083 10.6486 1.73251 11.2366 1.42343 11.9549ZM50.8733 19.1108V25.5403L52.2188 25.4626L53.5643 25.3852L53.634 20.434C53.6955 16.0656 53.7517 15.4922 54.1115 15.5645C54.3627 15.6147 55.3209 17.4195 56.6047 20.2595C57.7518 22.7967 58.7834 25.0169 58.8974 25.193C59.0215 25.3847 59.665 25.5134 60.4992 25.5134C61.4529 25.5134 61.8883 25.4121 61.8768 25.193C61.8675 25.0169 60.6256 22.1624 59.1171 18.8499L56.374 12.8271L53.6235 12.7543L50.8733 12.6815V19.1108ZM64.9692 18.7412C63.4891 22.0571 62.241 24.9372 62.1953 25.1417C62.0867 25.629 64.8341 25.6766 65.1445 25.193C65.2577 25.0169 66.2847 22.7967 67.427 20.2595C68.7458 17.3301 69.6564 15.6165 69.9219 15.5645C70.2951 15.4915 70.3476 16.0153 70.4096 20.434L70.4794 25.3852H71.7608H73.0422L73.1107 19.0421L73.1794 12.6989L70.4196 12.7059L67.6602 12.7125L64.9692 18.7412ZM80.2255 13.5319C80.0325 13.9901 78.7782 16.7867 77.4384 19.7469C76.0982 22.707 75.0928 25.2225 75.2038 25.3365C75.3148 25.4508 75.9693 25.5085 76.6585 25.4647L77.9117 25.3852L78.9266 23.2708L79.9418 21.1565H83.2313H86.521L87.5226 23.3349L88.5241 25.5134H89.9455C90.84 25.5134 91.3669 25.405 91.3669 25.2207C91.3669 25.0597 90.1318 22.1765 88.6223 18.8135L85.8779 12.6989H83.2271H80.5766L80.2255 13.5319ZM93.2206 19.0421L93.289 25.3852H94.5705H95.8519L95.9216 20.4517L95.9911 15.5181L96.9468 15.5194L97.9022 15.5207L100.103 20.4529L102.303 25.3852H105.228H108.154L108.222 19.0421L108.291 12.6989H106.881H105.472L105.403 18.9132L105.335 25.1277L102.544 18.9132L99.7526 12.6989H96.4522H93.1519L93.2206 19.0421ZM109.82 14.1085V15.5181H112.889H115.96L116.029 20.4517L116.099 25.3852H117.508H118.918L118.988 20.4517L119.057 15.5181H122.127H125.197V14.1085V12.6989H117.508H109.82V14.1085ZM126.794 19.0421L126.863 25.3852H132.629H138.396L138.473 24.0459L138.55 22.7065L134.116 22.6363L129.682 22.566L129.612 17.6325L129.543 12.6989H128.134H126.726L126.794 19.0421ZM140.121 19.0421L140.19 25.3852H146.469H152.748L152.825 24.0453L152.903 22.7055L147.956 22.6358L143.009 22.566V21.4128V20.2595L147.571 20.1895L152.134 20.1193L152.056 18.7799L151.979 17.4403L147.43 17.3703L142.881 17.3004V16.4092V15.5181H147.879H152.876V14.1085V12.6989H146.465H140.053L140.121 19.0421ZM84.5709 16.7911C84.9256 17.491 85.216 18.1253 85.216 18.2007C85.216 18.2758 84.351 18.3373 83.2938 18.3373C82.2184 18.3373 81.3716 18.2273 81.3716 18.0879C81.3716 17.9506 81.6254 17.3162 81.9352 16.6783C82.4032 15.7149 82.62 15.5181 83.2123 15.5181C83.8105 15.5181 84.0301 15.7239 84.5709 16.7911ZM0.240401 16.3844C0.184017 16.5422 0.107128 17.1904 0.0689409 17.8247L0 18.978L6.18604 19.0467L12.3721 19.1151L12.5435 18.4329C12.6376 18.0577 12.6217 17.6702 12.5082 17.572C12.1396 17.2529 6.81241 15.9876 6.54177 16.155C6.39722 16.2442 6.27907 16.4848 6.27907 16.6896C6.27907 17.0879 6.15862 17.0799 2.22177 16.4149C0.846009 16.1824 0.315237 16.1742 0.240401 16.3844ZM24.6534 19.8109C24.5773 20.1985 24.5927 20.5883 24.6875 20.677C24.9077 20.8827 29.8866 22.1816 30.455 22.1816C30.7118 22.1816 30.8828 21.9768 30.8828 21.669C30.8828 21.0296 31.4566 21.0119 34.5638 21.5555C35.8133 21.7739 36.8669 21.9176 36.9056 21.8751C36.9443 21.8323 37.0573 21.1916 37.157 20.4517L37.3382 19.1062H31.0647H24.7916L24.6534 19.8109ZM9.62133 21.4251C6.918 22.1729 6.55074 22.1486 6.5392 21.2205C6.53459 20.8287 6.77166 20.8228 3.77744 21.2877C-0.144035 21.8964 0.144289 21.7482 0.418006 23.0128C0.547944 23.6127 0.702233 24.2396 0.760666 24.4057C0.834734 24.6169 1.70022 24.4446 3.63699 23.8334C5.16063 23.3523 6.46847 22.9571 6.5433 22.9548C6.68503 22.9502 7.34036 24.542 7.2358 24.6364C7.20299 24.6661 6.05149 25.2894 4.67727 26.0216C3.30305 26.7538 2.17845 27.4606 2.17845 27.5921C2.17845 28.1452 3.54165 29.8659 3.81562 29.6588C3.97247 29.5402 5.10988 28.7185 6.34314 27.8328C8.56414 26.2379 8.82632 25.9485 8.32938 25.6415C7.81424 25.3232 8.11973 25.0556 10.5101 23.7314C11.8508 22.9887 13.0049 22.2882 13.0751 22.1747C13.2409 21.9061 12.7588 20.638 12.5005 20.6636C12.3913 20.6744 11.0955 21.017 9.62133 21.4251ZM23.4058 22.7888C22.9804 23.3749 23.0111 23.4139 27.253 27.6501C29.6047 29.9989 31.6432 31.9206 31.7826 31.9206C32.0702 31.9206 33.4457 30.2732 33.4457 29.929C33.4457 29.7537 30.9125 27.8005 28.9914 26.4939C28.8299 26.3842 28.856 26.1782 29.0631 25.9286C29.2425 25.7125 29.3227 25.4283 29.2415 25.2968C29.1064 25.0782 24.1316 22.1711 23.9245 22.1896C23.8751 22.1942 23.6419 22.4635 23.4058 22.7888ZM29.8543 23.7276C29.6772 24.155 29.5767 24.5454 29.6308 24.5951C29.8074 24.7571 34.9698 27.3074 35.1213 27.3074C35.4081 27.3074 36.3094 24.9434 36.0967 24.7491C35.8043 24.4826 31.1163 22.9505 30.5929 22.9505C30.3635 22.9505 30.0311 23.3001 29.8543 23.7276ZM9.79458 27.7643L5.49893 32.0654L6.34981 32.8901C6.81753 33.3435 7.36804 33.7085 7.57282 33.701C7.77733 33.6933 8.68742 32.6541 9.59468 31.3911C10.7088 29.8403 11.3287 29.1791 11.504 29.3544C12.1066 29.9569 12.6225 29.4817 14.0613 26.9998L15.5644 24.4067L14.9583 23.9405C14.6249 23.6842 14.2932 23.4718 14.2212 23.4687C14.1492 23.4656 12.1573 25.3985 9.79458 27.7643ZM20.5879 24.7535C20.1955 24.9823 20.2212 25.2281 20.8985 27.7331C21.6482 30.5036 21.6607 30.8954 21.0005 30.8954C20.7973 30.8954 20.6312 31.1274 20.6312 31.4108C20.6312 32.081 21.3955 36.8318 21.5413 37.0676C21.6759 37.285 23.7418 36.8529 24.0558 36.5417C24.179 36.4195 23.9245 35.2659 23.4791 33.9289C23.0403 32.612 22.6815 31.3585 22.6815 31.1433C22.6815 30.9277 23.0234 30.6225 23.4412 30.4649C24.1701 30.1896 24.2257 30.2211 24.8192 31.2414C25.1593 31.8265 25.798 33.0229 26.2383 33.9002L27.0392 35.4956L28.1923 34.7992C28.8263 34.4161 29.345 33.9999 29.345 33.874C29.345 33.6859 28.6333 32.6712 25.8303 28.8623C25.7852 28.801 25.6119 28.8877 25.4451 29.0545C24.8738 29.6258 24.586 29.3541 23.1862 26.925C21.8048 24.5272 21.4639 24.2422 20.5879 24.7535ZM16.9235 25.304C16.5678 26.3325 15.5055 30.4146 15.5055 30.7534C15.5055 30.9726 15.6715 31.1517 15.8748 31.1517C16.5365 31.1517 16.5744 31.6361 16.1267 34.3656C15.8837 35.8449 15.7313 37.0953 15.7876 37.1443C15.8438 37.1932 16.4976 37.3108 17.24 37.4054L18.5901 37.5779L18.5215 31.3534L18.4528 25.1289L17.7464 25.0477C17.3302 24.9998 16.9924 25.1051 16.9235 25.304ZM11.5461 32.6636L10.1226 35.5014L10.9784 35.859C13.0033 36.705 12.8165 36.8449 13.8229 33.7313C14.8809 30.4585 14.8776 30.4831 14.2881 30.3137C14.0413 30.2427 13.6438 30.104 13.4044 30.0051C13.0494 29.8587 12.7068 30.349 11.5461 32.6636Z" fill="white"/>
</svg>
