<svg width="161" height="39" viewBox="0 0 161 39" fill="none" xmlns="http://www.w3.org/2000/svg">
<path fill-rule="evenodd" clip-rule="evenodd" d="M19.4646 6.88726V13.459H20.3441H21.2239L21.9878 10.5755C22.9435 6.96826 22.9296 7.18527 22.214 7.07609C21.5039 6.96773 21.508 7.0313 22.0165 3.93668C22.6332 0.183012 22.6726 0.315518 20.9398 0.315518H19.4646V6.88726ZM14.301 0.895432C13.8955 1.04377 13.5634 1.25192 13.5634 1.35814C13.5634 1.46436 13.9859 2.80607 14.5025 4.33983C15.0188 5.87332 15.3509 7.20189 15.2401 7.29202C15.1294 7.38215 14.7066 7.597 14.3008 7.76947L13.5626 8.08304L12.1911 5.33928C11.4366 3.83019 10.7681 2.54052 10.7056 2.4732C10.5546 2.31118 8.80627 3.25965 8.43798 3.70331C8.2191 3.96699 8.56378 4.62255 9.85023 6.39021C10.7858 7.67613 11.6268 8.83973 11.7188 8.97545C11.8183 9.12271 12.1064 9.10448 12.4312 8.93066C12.9296 8.66404 13.1117 8.86924 14.5441 11.3123C15.4062 12.7828 16.2704 13.9879 16.4646 13.9906C16.6586 13.9933 17.0416 13.8756 17.3155 13.7291C17.7932 13.4732 17.7819 13.3466 17.0311 10.5773C16.6009 8.99021 16.2482 7.59835 16.2474 7.48408C16.2465 7.36981 16.5314 7.16782 16.8804 7.03505L17.515 6.79364L17.1475 4.56058C16.9456 3.33234 16.7149 1.93511 16.635 1.45551C16.5116 0.715454 16.3801 0.586974 15.7643 0.604946C15.3651 0.61648 14.7066 0.747367 14.301 0.895432ZM25.3998 1.60062C25.1809 2.01639 23.4881 7.15253 23.4881 7.40065C23.4881 7.45832 23.8792 7.64179 24.3571 7.80836C25.0999 8.06721 25.2788 8.04174 25.5865 7.63348C26.0838 6.97363 28.3705 2.42626 28.2605 2.31628C28.2114 2.26693 27.602 1.98286 26.9062 1.68458C25.7254 1.17843 25.6248 1.17279 25.3998 1.60062ZM28.9324 6.60293C27.5016 8.56881 27.0014 9.0798 26.6969 8.88721C26.481 8.75068 26.2187 8.63722 26.1138 8.6348C26.0087 8.63266 25.3349 9.62646 24.6163 10.8437C22.4926 14.4402 22.5777 14.1821 23.3515 14.6891C24.0245 15.1301 24.0409 15.121 26.1042 13.1613C27.2455 12.0771 29.3256 9.99555 30.7264 8.53609L33.2735 5.88272L32.2255 4.97662C31.6491 4.47851 31.0871 4.07079 30.9766 4.07079C30.8664 4.07079 29.9463 5.21025 28.9324 6.60293ZM4.73957 6.89664C4.2817 7.41809 3.90697 7.9516 3.90697 8.08223C3.90697 8.21286 5.00244 9.12379 6.34146 10.1063C8.19067 11.4639 8.73384 12.0009 8.60161 12.3407C8.50558 12.587 8.40606 12.8976 8.38004 13.0309C8.35403 13.1642 9.58871 13.9992 11.1238 14.8863L13.9151 16.4994L14.4102 15.8876L14.9056 15.276L10.446 10.6122C7.99325 8.04709 5.89298 5.94843 5.77925 5.94843C5.66525 5.94843 5.19745 6.37519 4.73957 6.89664ZM32.4862 10.1232C29.5662 12.2463 29.7819 12.0237 30.181 12.5046C30.3634 12.7246 30.4694 13.0346 30.4166 13.1937C30.3634 13.3525 29.1752 14.128 27.7758 14.9168C25.594 16.1467 25.2423 16.4401 25.3064 16.978C25.3475 17.3229 25.4727 17.6968 25.5849 17.8089C25.6967 17.9208 27.1049 17.6593 28.7141 17.2277C31.6942 16.4281 32.0716 16.4133 32.0716 17.096C32.0716 17.5726 32.3159 17.5662 35.8268 16.9967L38.6433 16.5399L38.5505 15.7537C38.4102 14.5663 38.028 13.7272 37.6272 13.7272C37.4301 13.7272 36.1973 14.0893 34.888 14.5319C33.5788 14.9745 32.3637 15.3366 32.188 15.3366C31.8792 15.3366 31.0885 13.8074 31.2977 13.6154C31.3546 13.5633 32.6354 12.9035 34.1442 12.1492L36.8874 10.778L36.1578 9.57013C35.7566 8.90598 35.3067 8.36576 35.1581 8.36978C35.0095 8.3738 33.8073 9.16295 32.4862 10.1232ZM1.50735 12.1438C1.18386 12.896 0.957739 13.5462 1.00468 13.5893C1.0763 13.6545 4.67681 14.8173 6.76635 15.4501C7.25454 15.5982 7.39563 15.4737 7.66467 14.6585C7.84036 14.1266 7.94175 13.6529 7.89025 13.606C7.7454 13.4743 2.32144 10.7766 2.20127 10.7766C2.14307 10.7766 1.83084 11.392 1.50735 12.1438ZM53.2621 19.6332V26.3624L54.6703 26.2811L56.0785 26.2001L56.1515 21.0181C56.2158 16.446 56.2746 15.846 56.6512 15.9216C56.9141 15.9742 57.917 17.8631 59.2606 20.8354C60.4612 23.4909 61.5408 25.8147 61.6602 25.9989C61.79 26.1996 62.4636 26.3342 63.3367 26.3342C64.3348 26.3342 64.7905 26.2283 64.7784 25.9989C64.7688 25.8147 63.4689 22.8271 61.8901 19.3601L59.0192 13.0566L56.1405 12.9805L53.2621 12.9043V19.6332ZM68.0149 19.2464C66.4659 22.7168 65.1596 25.7312 65.1118 25.9453C64.9981 26.4552 67.8736 26.5051 68.1984 25.9989C68.317 25.8147 69.3918 23.4909 70.5873 20.8354C71.9676 17.7695 72.9207 15.9761 73.1986 15.9216C73.5891 15.8452 73.6441 16.3935 73.709 21.0181L73.782 26.2001H75.1231H76.4643L76.5359 19.5613L76.6078 12.9225L73.7195 12.9298L70.8314 12.9367L68.0149 19.2464ZM83.9824 13.7943C83.7804 14.2739 82.4677 17.2009 81.0653 20.299C79.6627 23.3971 78.6104 26.0298 78.7266 26.1491C78.8427 26.2688 79.5278 26.3291 80.2491 26.2833L81.5608 26.2001L82.623 23.9872L83.6854 21.7742H87.1282H90.5713L91.6195 24.0542L92.6678 26.3342H94.1554C95.0916 26.3342 95.643 26.2208 95.643 26.0279C95.643 25.8594 94.3504 22.8418 92.7705 19.322L89.8983 12.9225H87.1239H84.3498L83.9824 13.7943ZM97.5832 19.5613L97.6548 26.2001H98.996H100.337L100.41 21.0366L100.483 15.8731L101.483 15.8744L102.483 15.8758L104.786 21.0379L107.089 26.2001H110.151H113.212L113.284 19.5613L113.356 12.9225H111.881H110.406L110.334 19.4264L110.262 25.9305L107.341 19.4264L104.42 12.9225H100.965H97.5113L97.5832 19.5613ZM114.956 14.3978V15.8731H118.169H121.382L121.455 21.0366L121.528 26.2001H123.003H124.478L124.551 21.0366L124.624 15.8731H127.837H131.05V14.3978V12.9225H123.003H114.956V14.3978ZM132.722 19.5613L132.793 26.2001H138.829H144.864L144.945 24.7983L145.026 23.3965L140.385 23.323L135.744 23.2495L135.671 18.086L135.598 12.9225H134.124H132.65L132.722 19.5613ZM146.67 19.5613L146.742 26.2001H153.313H159.885L159.966 24.7978L160.047 23.3955L154.87 23.3225L149.692 23.2495V22.0425V20.8354L154.467 20.7622L159.242 20.6887L159.161 19.2869L159.08 17.8848L154.319 17.8116L149.558 17.7384V16.8057V15.8731H154.789H160.019V14.3978V12.9225H153.309H146.598L146.67 19.5613ZM88.5303 17.2054C88.9015 17.938 89.2054 18.6018 89.2054 18.6807C89.2054 18.7593 88.3001 18.8237 87.1937 18.8237C86.0682 18.8237 85.1819 18.7086 85.1819 18.5627C85.1819 18.4189 85.4475 17.755 85.7718 17.0874C86.2616 16.0791 86.4885 15.8731 87.1084 15.8731C87.7344 15.8731 87.9643 16.0885 88.5303 17.2054ZM0.269184 16.7797C0.210172 16.945 0.129699 17.6233 0.0897324 18.2872L0.0175781 19.4943L6.49195 19.5661L12.9663 19.6378L13.1458 18.9237C13.2442 18.531 13.2276 18.1255 13.1087 18.0227C12.723 17.6888 7.14751 16.3645 6.86426 16.5397C6.71297 16.633 6.58931 16.8849 6.58931 17.0992C6.58931 17.516 6.46324 17.5077 2.3429 16.8116C0.90302 16.5684 0.347508 16.5598 0.269184 16.7797ZM25.8201 20.366C25.7404 20.7716 25.7565 21.1796 25.8558 21.2724C26.0862 21.4878 31.2972 22.8472 31.8921 22.8472C32.1609 22.8472 32.3398 22.6329 32.3398 22.3107C32.3398 21.6415 32.9404 21.623 36.1924 22.1919C37.5001 22.4204 38.6028 22.5709 38.6433 22.5264C38.6838 22.4816 38.8021 21.811 38.9064 21.0366L39.0961 19.6284H32.5302H25.9647L25.8201 20.366ZM10.0874 22.0554C7.25802 22.8381 6.87364 22.8126 6.86157 21.8413C6.85674 21.4312 7.10486 21.425 3.97108 21.9116C-0.13317 22.5486 0.168593 22.3936 0.455067 23.7171C0.591062 24.345 0.752542 25.0011 0.813699 25.1749C0.891219 25.3959 1.79704 25.2157 3.82409 24.576C5.41874 24.0725 6.78754 23.6589 6.86586 23.6564C7.0142 23.6516 7.70007 25.3176 7.59063 25.4163C7.5563 25.4474 6.35112 26.0998 4.91285 26.8661C3.47458 27.6325 2.29757 28.3723 2.29757 28.5099C2.29757 29.0887 3.72431 30.8896 4.01105 30.6729C4.17521 30.5487 5.36563 29.6888 6.65637 28.7617C8.98089 27.0925 9.25529 26.7897 8.73519 26.4683C8.19604 26.1352 8.51577 25.8552 11.0176 24.4692C12.4207 23.6918 13.6286 22.9588 13.7021 22.8399C13.8756 22.5588 13.3711 21.2316 13.1007 21.2584C12.9864 21.2697 11.6302 21.6283 10.0874 22.0554ZM24.5143 23.4826C24.0691 24.0961 24.1013 24.1369 28.5408 28.5705C31.0021 31.0289 33.1356 33.0401 33.2816 33.0401C33.5825 33.0401 35.0221 31.3159 35.0221 30.9556C35.0221 30.7722 32.3709 28.7279 30.3602 27.3605C30.1912 27.2457 30.2186 27.03 30.4353 26.7688C30.6231 26.5426 30.707 26.2452 30.622 26.1076C30.4807 25.8788 25.274 22.8362 25.0572 22.8555C25.0055 22.8603 24.7614 23.1422 24.5143 23.4826ZM31.2634 24.4652C31.078 24.9126 30.9729 25.3211 31.0295 25.3731C31.2143 25.5427 36.6173 28.2119 36.7758 28.2119C37.076 28.2119 38.0194 25.7377 37.7967 25.5344C37.4907 25.2554 32.5842 23.6519 32.0364 23.6519C31.7963 23.6519 31.4484 24.0178 31.2634 24.4652ZM10.2687 28.6901L5.77281 33.1916L6.66335 34.0548C7.15287 34.5293 7.72904 34.9113 7.94336 34.9035C8.15741 34.8955 9.10991 33.8078 10.0595 32.4859C11.2255 30.8628 11.8743 30.1708 12.0578 30.3543C12.6884 30.9849 13.2284 30.4876 14.7342 27.89L16.3074 25.176L15.6731 24.6881C15.3241 24.4198 14.977 24.1975 14.9016 24.1943C14.8262 24.191 12.7415 26.2141 10.2687 28.6901ZM21.5651 25.5389C21.1544 25.7784 21.1812 26.0357 21.8902 28.6574C22.6748 31.557 22.6879 31.9671 21.997 31.9671C21.7842 31.9671 21.6104 32.2099 21.6104 32.5066C21.6104 33.208 22.4103 38.1802 22.5629 38.427C22.7037 38.6545 24.866 38.2022 25.1946 37.8766C25.3236 37.7487 25.0572 36.5413 24.591 35.142C24.1318 33.7638 23.7563 32.4518 23.7563 32.2265C23.7563 32.0009 24.1141 31.6815 24.5513 31.5165C25.3142 31.2284 25.3724 31.2614 25.9936 32.3293C26.3496 32.9416 27.018 34.1938 27.4789 35.1119L28.3171 36.7817L29.5239 36.0529C30.1875 35.6519 30.7304 35.2163 30.7304 35.0846C30.7304 34.8877 29.9855 33.8257 27.0518 29.8392C27.0046 29.7751 26.8233 29.8658 26.6487 30.0404C26.0508 30.6383 25.7495 30.354 24.2845 27.8117C22.8387 25.3021 22.4819 25.0038 21.5651 25.5389ZM17.7299 26.1151C17.3576 27.1915 16.2457 31.4639 16.2457 31.8185C16.2457 32.0479 16.4196 32.2354 16.6323 32.2354C17.3248 32.2354 17.3645 32.7423 16.8959 35.599C16.6417 37.1473 16.4821 38.456 16.5411 38.5072C16.5998 38.5585 17.2841 38.6816 18.0612 38.7806L19.4742 38.9611L19.4023 32.4465L19.3304 25.9319L18.5912 25.8468C18.1556 25.7967 17.802 25.9069 17.7299 26.1151ZM12.1018 33.8177L10.612 36.7878L11.5077 37.162C13.627 38.0475 13.4314 38.1939 14.4848 34.9352C15.5921 31.5098 15.5886 31.5356 14.9716 31.3583C14.7133 31.284 14.2973 31.1388 14.0468 31.0353C13.6753 30.8821 13.3166 31.3953 12.1018 33.8177Z" fill="white"/>
</svg>
