<svg width="65" height="65" viewBox="0 0 65 65" fill="none" xmlns="http://www.w3.org/2000/svg">
<circle cx="32.2765" cy="32.337" r="31.3776" stroke="#645B73" stroke-opacity="0.45"/>
<path d="M16.7539 31.8369C16.4778 31.8369 16.2539 32.0608 16.2539 32.3369C16.2539 32.6131 16.4778 32.8369 16.7539 32.8369V31.8369ZM48.1523 32.6905C48.3475 32.4952 48.3475 32.1786 48.1523 31.9834L44.9703 28.8014C44.775 28.6061 44.4584 28.6061 44.2632 28.8014C44.0679 28.9966 44.0679 29.3132 44.2632 29.5085L47.0916 32.3369L44.2632 35.1653C44.0679 35.3606 44.0679 35.6772 44.2632 35.8724C44.4584 36.0677 44.775 36.0677 44.9703 35.8724L48.1523 32.6905ZM16.7539 32.8369H47.7987V31.8369H16.7539V32.8369Z" fill="url(#paint0_linear_2901_271)"/>
<defs>
<linearGradient id="paint0_linear_2901_271" x1="45.8804" y1="33.2328" x2="45.5164" y2="29.1129" gradientUnits="userSpaceOnUse">
<stop stop-color="#619AFA"/>
<stop offset="1" stop-color="#8E4FE7"/>
</linearGradient>
</defs>
</svg>
