<svg width="63" height="63" viewBox="0 0 63 63" fill="none" xmlns="http://www.w3.org/2000/svg">
<circle cx="31.3375" cy="31.6002" r="31.2633" fill="#AE5BFC" fill-opacity="0.48"/>
<path fill-rule="evenodd" clip-rule="evenodd" d="M29.7007 10.344C27.6427 10.5087 25.8974 10.889 23.922 11.6031C19.4781 13.2096 15.4453 16.5556 13.0186 20.6496C11.4694 23.2633 10.5748 25.8564 10.1567 28.9452C10.054 29.7041 10.0384 30.0546 10.0383 31.5955C10.0383 33.1362 10.054 33.487 10.1567 34.2459C10.5903 37.4516 11.5831 40.2465 13.2227 42.8771C14.8672 45.5156 17.2379 47.9044 19.8768 49.582C23.2971 51.7564 27.2491 52.9043 31.3147 52.9043C35.6294 52.9043 39.7397 51.6357 43.352 49.1893C45.118 47.9933 47.0466 46.151 48.369 44.3967C50.7451 41.2446 52.1968 37.4634 52.5509 33.5038C52.9875 28.6225 51.7475 23.7844 49.0146 19.7051C48.2126 18.5082 47.5237 17.6842 46.3241 16.4873C44.5598 14.7271 42.8543 13.5132 40.6218 12.4287C38.15 11.2279 35.5433 10.5289 32.8285 10.3391C31.9774 10.2795 30.4765 10.2819 29.7007 10.344ZM30.6838 12.3938C30.6877 13.7549 30.6777 14.9197 30.6619 14.9355C30.6538 14.9436 30.3388 14.9757 29.9619 15.0069C26.8191 15.2663 23.8995 16.371 21.3508 18.2651C21.0446 18.4926 20.6244 18.83 20.417 19.0148C20.2096 19.1997 20.0186 19.3509 19.9925 19.3509C19.9664 19.3509 19.4084 18.8125 18.7526 18.1545L17.5602 16.9581L17.8518 16.6902C18.2503 16.324 19.2719 15.5129 19.7868 15.1538C22.3942 13.3356 25.5356 12.1053 28.5608 11.7177C29.5171 11.5952 29.7687 11.5721 30.2176 11.5656L30.6814 11.5589L30.6838 12.3938ZM33.3928 11.6389C33.8114 11.6829 34.2374 11.7326 34.3395 11.7494C38.4106 12.4202 41.8073 14.0368 44.8365 16.7453L45.075 16.9586L43.8826 18.1548C43.2268 18.8126 42.6717 19.3509 42.649 19.3509C42.6263 19.3509 42.4141 19.1836 42.1775 18.9792C40.4708 17.5046 38.3534 16.3357 36.195 15.6767C35.1824 15.3675 33.8421 15.1031 32.9346 15.0333C32.7013 15.0154 32.3852 14.9869 32.2321 14.97L31.9538 14.9392V13.249V11.5589H32.2927C32.4791 11.5589 32.9742 11.5949 33.3928 11.6389ZM33.2174 16.3073C41.3389 17.2697 47.3612 24.6418 46.6891 32.7986C46.4421 35.7961 45.4378 38.4507 43.6493 40.8337C41.7985 43.2996 39.1491 45.2362 36.354 46.1661C35.427 46.4746 35.3958 46.484 35.1319 46.5377C35.0022 46.564 34.6601 46.6359 34.3715 46.6975C33.4173 46.9009 32.5757 46.9796 31.3441 46.9806C30.1431 46.9816 29.5524 46.9334 28.5221 46.7507C23.1026 45.7894 18.4843 41.8005 16.7154 36.5529C16.1455 34.8622 15.924 33.4784 15.9217 31.5955C15.9199 30.1222 16.0194 29.2571 16.3452 27.9115C17.0054 25.1844 18.4006 22.7169 20.4212 20.7026C22.0751 19.0538 23.9671 17.8529 26.1221 17.0838C28.3732 16.2806 30.7742 16.0178 33.2174 16.3073ZM17.8911 19.0457C18.5401 19.6942 19.0711 20.2452 19.0711 20.2702C19.0711 20.2952 18.9208 20.4862 18.737 20.6947C16.433 23.3081 15.0434 26.6214 14.7215 30.2699C14.6893 30.634 14.6558 30.9392 14.647 30.948C14.6292 30.9658 13.4157 30.9739 12.0849 30.9651L11.2219 30.9594L11.2504 30.6281C11.4014 28.8659 11.5026 28.1689 11.7834 26.9574C12.4112 24.2489 13.591 21.7507 15.338 19.4304C15.7944 18.8244 16.6135 17.8667 16.6755 17.8667C16.6951 17.8667 17.2421 18.3973 17.8911 19.0457ZM46.3082 18.2245C48.5985 20.8154 50.1717 23.8818 50.9107 27.196C51.1585 28.3069 51.3324 29.5962 51.3704 30.6018L51.3838 30.9597L49.6803 30.9595L47.9769 30.9594L47.9401 30.4956C47.6436 26.7551 46.2644 23.4052 43.909 20.7049C43.7193 20.4875 43.5641 20.2908 43.5641 20.268C43.5641 20.218 45.9074 17.8667 45.9571 17.8667C45.9762 17.8667 46.1342 18.0278 46.3082 18.2245ZM23.0662 21.7837C22.795 21.8534 22.5684 22.0209 22.1137 22.4878C21.5401 23.0767 21.4842 23.1888 21.4844 23.7505C21.4845 24.1219 21.5067 24.243 21.6103 24.4396C21.6865 24.5842 22.229 25.1754 22.9881 25.941C23.715 26.6743 24.2366 27.2412 24.2316 27.2927C24.227 27.3415 24.2061 27.5034 24.1853 27.6524C24.1229 28.1003 24.21 28.2631 24.8774 28.9452C25.2055 29.2804 25.515 29.6362 25.5653 29.7356C25.652 29.9074 25.6518 29.9382 25.5603 30.3452C25.4281 30.9343 25.4261 32.2565 25.5566 32.8077C25.6895 33.3686 25.6494 33.4564 24.9249 34.1929C24.1715 34.9587 24.0642 35.1953 24.2184 35.7506L24.2756 35.9567L23.0045 37.2348C22.2201 38.0235 21.6856 38.6043 21.6087 38.7515C21.5061 38.9475 21.4839 39.0703 21.4838 39.4405C21.4838 39.8328 21.502 39.922 21.6245 40.1296C21.792 40.4137 22.5728 41.1862 22.8352 41.3275C23.1132 41.4771 23.8458 41.4684 24.1341 41.312C24.2507 41.2487 24.9273 40.6146 25.6376 39.9029L26.929 38.6089L27.122 38.6779C27.383 38.7711 27.6759 38.7682 27.9108 38.67C28.0188 38.6249 28.3902 38.31 28.7441 37.9634C29.4778 37.2449 29.5341 37.22 30.1161 37.3583C30.6497 37.485 32.0585 37.4829 32.5258 37.3547C33.073 37.2047 33.1497 37.2394 33.9166 37.9861C34.7318 38.7797 34.8605 38.833 35.5631 38.6686C35.6858 38.6398 35.832 38.768 36.9815 39.9122C37.7471 40.6742 38.3531 41.2338 38.4866 41.3019C38.8001 41.4618 39.2877 41.4923 39.647 41.3746C39.8854 41.2964 40.0211 41.1924 40.4685 40.745C40.9159 40.2977 41.02 40.162 41.0982 39.9236C41.2144 39.569 41.1856 39.0765 41.0311 38.7764C40.9716 38.6607 40.3452 37.9845 39.6393 37.2739L38.3558 35.9819L38.4152 35.7835C38.5821 35.2267 38.464 34.9561 37.7324 34.2194C37.0098 33.4916 36.9584 33.3843 37.0794 32.8567C37.1996 32.3331 37.2027 30.8713 37.0847 30.3586C36.9581 29.8087 37.0005 29.7164 37.7088 28.9982C38.47 28.2264 38.5657 28.0148 38.4123 27.4412L38.3498 27.2079L39.6341 25.9295C41.057 24.5132 41.1769 24.3477 41.1779 23.7997C41.1788 23.2625 41.063 23.0415 40.468 22.446C40.0208 21.9984 39.8855 21.8947 39.647 21.8165C39.2832 21.6973 38.8003 21.7291 38.4776 21.8937C38.333 21.9675 37.7631 22.4922 36.9696 23.282C35.9413 24.3055 35.6732 24.5457 35.5867 24.5208C35.3145 24.4424 34.976 24.4312 34.7842 24.4943C34.6402 24.5416 34.3777 24.7569 33.9137 25.2084C33.1496 25.9516 33.0875 25.9792 32.5047 25.8358C31.9874 25.7085 30.6415 25.7085 30.1035 25.8358C29.8717 25.8907 29.6446 25.9141 29.5484 25.8929C29.4379 25.8687 29.1805 25.6561 28.7457 25.2298C27.94 24.44 27.7434 24.3502 27.1477 24.5002L26.9069 24.5608L25.6 23.2597C24.8812 22.5441 24.2098 21.9169 24.108 21.866C23.9022 21.763 23.3243 21.7173 23.0662 21.7837ZM24.7964 24.1988C25.4672 24.8681 26.0161 25.4291 26.0161 25.4456C26.0161 25.4621 25.8187 25.6719 25.5774 25.9119L25.1388 26.3482L23.9074 25.113C23.1548 24.358 22.6762 23.8382 22.6762 23.7757C22.6762 23.6372 23.3652 22.9475 23.4843 22.9669C23.5351 22.9751 24.1256 23.5295 24.7964 24.1988ZM39.5999 23.3118C39.7974 23.5078 39.9591 23.7118 39.9591 23.765C39.9591 23.8209 39.4286 24.3917 38.7074 25.1119L37.4556 26.3619L36.9997 25.906L36.5437 25.4501L37.7997 24.2028C38.4904 23.5167 39.0973 22.9554 39.1482 22.9554C39.199 22.9554 39.4024 23.1157 39.5999 23.3118ZM27.9162 26.1538L28.3027 26.5428L28.0552 26.7037C27.5037 27.0625 26.7776 27.7863 26.4183 28.3357L26.2596 28.5782L25.86 28.1786L25.4604 27.7791L26.4667 26.772C27.0202 26.218 27.4857 25.7648 27.5013 25.7648C27.5169 25.7648 27.7036 25.9398 27.9162 26.1538ZM36.1685 26.772L37.1748 27.7791L36.7749 28.179L36.3749 28.5789L36.1657 28.2721C35.8851 27.8608 35.0226 26.9963 34.6416 26.7445L34.3341 26.5413L34.7198 26.153C34.932 25.9395 35.1183 25.7648 35.1339 25.7648C35.1495 25.7648 35.6151 26.218 36.1685 26.772ZM31.8837 26.9867C33.4971 27.2039 34.7744 28.128 35.5264 29.6222C35.9548 30.4734 36.0811 31.7525 35.8312 32.7087C35.3307 34.6236 33.799 35.9609 31.8212 36.2098C30.92 36.3233 29.9532 36.1317 29.091 35.6689C26.9128 34.4999 26.0409 31.7319 27.1563 29.5271C27.8447 28.1664 29.1125 27.2388 30.6001 27.0076C31.1495 26.9222 31.3769 26.9185 31.8837 26.9867ZM30.6019 28.393C29.3928 28.6784 28.421 29.6255 28.1318 30.8004C28.0394 31.1757 28.0396 32.0166 28.1322 32.3906C28.501 33.8817 29.9661 34.9646 31.4816 34.8664C33.1694 34.7571 34.4746 33.4635 34.5862 31.7895C34.7281 29.6601 32.6693 27.905 30.6019 28.393ZM32.1489 29.7409C33.7198 30.4571 33.7591 32.6439 32.2151 33.4262C31.6983 33.688 30.98 33.6977 30.4527 33.4498C29.6459 33.0706 29.1369 32.1049 29.3008 31.2642C29.5629 29.92 30.9338 29.1868 32.1489 29.7409ZM51.0038 32.2315L51.3838 32.2314L51.3704 32.5893C51.2019 37.0581 49.2995 41.6653 46.2214 45.0593L45.9569 45.3508L44.7605 44.1586C44.1025 43.5029 43.5641 42.9473 43.5641 42.9239C43.5641 42.9006 43.7193 42.7036 43.909 42.4861C46.2667 39.7831 47.6433 36.4399 47.9401 32.6964L47.9768 32.2335L49.2297 32.2189C49.9187 32.2108 50.5143 32.2104 50.5532 32.2179C50.592 32.2255 50.7948 32.2316 51.0038 32.2315ZM14.671 32.2979C14.6712 32.3343 14.7067 32.7219 14.75 33.1592C14.8697 34.3656 14.9987 35.0761 15.2813 36.0849C15.9498 38.4717 17.1462 40.6914 18.7371 42.4964C18.9208 42.7048 19.0711 42.8959 19.0711 42.9209C19.0711 42.9459 18.5354 43.5016 17.8807 44.1558L16.6903 45.3451L16.574 45.2419C16.3103 45.0081 15.3727 43.8332 14.7149 42.9125C14.1971 42.1877 13.3249 40.5978 12.8827 39.5731C12.0369 37.6127 11.4283 35.1478 11.3055 33.1857C11.2882 32.9088 11.2615 32.5808 11.2462 32.4569L11.2184 32.2316H12.9447C14.2902 32.2316 14.6709 32.2462 14.671 32.2979ZM26.5605 35.059C26.8677 35.4796 27.5271 36.1248 27.9335 36.4024L28.2999 36.6527L27.9001 37.0524L27.5003 37.4522L26.4806 36.4327L25.4609 35.4132L25.8578 35.0127C26.1943 34.6732 26.2627 34.6254 26.3077 34.6988C26.3369 34.7465 26.4506 34.9085 26.5605 35.059ZM36.1551 36.4322L35.135 37.4522L34.734 37.0513L34.3331 36.6504L34.6356 36.4496C35.0679 36.1626 35.8315 35.4089 36.1249 34.9797L36.3756 34.6128L36.7754 35.0126L37.1752 35.4123L36.1551 36.4322ZM25.6348 37.2835L26.0728 37.7237L24.8276 38.9665C24.1427 39.6499 23.5425 40.2174 23.4937 40.2276C23.3767 40.2519 22.6762 39.5582 22.6762 39.4181C22.6762 39.3521 23.1324 38.8556 23.9073 38.0782C24.5844 37.3989 25.1515 36.8432 25.1676 36.8432C25.1836 36.8432 25.3938 37.0413 25.6348 37.2835ZM39.9591 39.4272C39.9591 39.553 39.2695 40.2356 39.1425 40.2356C39.0371 40.2356 36.6191 37.8751 36.6191 37.7723C36.6191 37.7435 36.8131 37.5251 37.0502 37.2868L37.4813 36.8535L38.7202 38.0953C39.4016 38.7783 39.9591 39.3776 39.9591 39.4272ZM20.466 44.2164C22.1173 45.6474 24.1315 46.7804 26.2017 47.4426C27.2247 47.7698 28.7469 48.0834 29.6742 48.1578C29.8928 48.1754 30.2089 48.2033 30.3766 48.2199L30.6814 48.2501V49.968V51.6859L30.2971 51.6564C29.0637 51.5617 28.4465 51.485 27.5005 51.3086C24.1115 50.6769 20.7662 49.0494 18.1551 46.7618C17.8408 46.4865 17.5906 46.2403 17.5991 46.2149C17.623 46.1429 19.9404 43.8402 19.9889 43.8401C20.0125 43.8401 20.2272 44.0094 20.466 44.2164ZM43.8826 45.0355L45.075 46.2308L44.7834 46.4946C41.5987 49.3758 37.5257 51.1743 33.2792 51.5744C32.973 51.6033 32.5495 51.6401 32.3382 51.6564L31.9538 51.6859V49.9628C31.9538 48.6603 31.9693 48.2397 32.0173 48.2397C32.0521 48.2397 32.3563 48.2146 32.6932 48.184C35.9272 47.8901 38.7727 46.8041 41.311 44.8949C41.69 44.6097 42.1314 44.2568 42.2917 44.1106C42.4521 43.9644 42.6074 43.8437 42.6368 43.8424C42.6662 43.8411 43.2268 44.378 43.8826 45.0355Z" fill="white"/>
</svg>
