<svg width="118" height="134" viewBox="0 0 118 134" fill="none" xmlns="http://www.w3.org/2000/svg">
<path opacity="0.94" fill-rule="evenodd" clip-rule="evenodd" d="M1.78671 2.85284C2.66397 3.89135 6.7581 8.86706 10.8842 13.9104C15.0103 18.9537 20.5046 25.6691 23.0937 28.8336C47.0303 58.0898 48.7959 60.3283 48.7959 61.4175C48.7959 64.2127 42.6152 65.997 39.6549 64.0562C38.7306 63.45 34.1768 56.7399 24.5373 41.7797C17.7118 31.1867 17.7165 31.1975 27.3743 48.5279C35.0814 62.3575 35.9669 64.1299 35.7006 65.1918C35.5838 65.6575 35.0386 66.5673 34.4895 67.2138C32.2886 69.8029 31.5687 71.7282 30.6275 77.5418C29.4537 84.7912 28.147 87.3558 21.0006 96.4374C17.4247 100.982 16.1906 103.406 15.7158 106.82C15.084 111.366 16.1992 116.104 19.0258 120.885C21.7291 125.457 22.9035 127.714 22.9118 128.351C22.9222 129.135 23.6011 129.146 26.7515 128.415C32.1495 127.162 37.5349 124.517 40.4689 121.677C42.663 119.554 43.1492 118.445 43.1902 115.473C43.2369 112.098 42.3683 110.797 37.7196 107.274C32.0848 103.004 31.0383 101.446 31.048 97.3364C31.0541 94.8088 31.1957 94.3237 33.3071 89.6051C35.5633 84.5636 36.1121 82.5272 36.8668 76.3925C37.0555 74.8613 37.4803 73.195 37.8113 72.6894C38.5868 71.5049 40.4553 70.37 41.6326 70.3682C43.1305 70.366 47.5546 69.088 48.8527 68.2829C51.7839 66.4641 53.4679 63.7531 53.4679 60.8537C53.4679 59.3369 53.2825 59.0194 50.6827 56.0847C46.7848 51.6847 16.7548 18.6171 7.89233 8.96595C0.850146 1.29723 -1.60554 -1.16132 1.78671 2.85284ZM51.4913 33.5029C55.529 34.5479 56.972 35.1624 60.026 37.1384C63.4377 39.3452 66.9967 43.0214 72.1773 49.6901C78.2017 57.4451 81.3229 60.4995 85.1565 62.391C89.8059 64.6855 93.1248 65.3997 102.165 66.0516C112.59 66.8035 114.517 67.4095 117.767 70.9583L118.811 72.0984C119.112 72.4269 119.654 72.1546 119.571 71.717V71.717C119.155 69.5347 118.363 67.4447 116.903 64.6819C115.491 62.0087 112.227 57.4213 111.736 57.4213C111.563 57.4213 111.323 58.0363 111.203 58.7878C110.9 60.6811 108.917 64.5287 107.9 65.1954C106.759 65.9437 105.617 65.7079 104.753 64.5453V64.5453C104.308 63.9477 104.219 63.1577 104.519 62.4759L104.874 61.6685C105.566 60.0917 105.705 59.1945 105.667 56.5224C105.594 51.3374 105.679 51.4654 100.67 48.9328C92.9901 45.0495 84.5491 43.6917 76.1093 44.9822V44.9822C74.1978 45.2745 72.2652 44.604 70.9455 43.1906L70.4504 42.6603C64.3836 36.1628 57.2045 32.5741 50.4132 32.6438V32.6438C50.0793 32.6473 50.0213 33.1226 50.3445 33.2062L51.4913 33.5029ZM47.7239 38.7652C47.7483 49.1122 54.5296 59.521 61.9053 60.5326C63.9865 60.8181 64.3419 60.1176 63.0826 58.2135C61.3277 55.5601 60.5683 53.6467 59.3579 48.8274C57.957 43.2483 56.8059 40.6168 55.1567 39.2208C53.7497 38.0302 50.7025 36.5958 48.9882 36.3174V36.3174C48.3227 36.2093 47.7192 36.7239 47.7207 37.3981L47.7239 38.7652ZM107.407 37.3488C107.188 37.9773 106.845 39.9414 106.644 41.7128C106.444 43.4842 106.202 45.0592 106.107 45.2131C106.012 45.3667 104.075 44.8593 101.803 44.0851C99.5302 43.3112 97.4691 42.6837 97.2222 42.6905C96.9757 42.6974 98.3234 43.5075 100.217 44.4914C106.816 47.9194 107.798 49.4031 107.87 56.0639C107.895 58.2937 107.801 60.6038 107.661 61.1971C107.468 62.0202 107.578 61.9127 108.126 60.7429C108.587 59.7605 108.99 57.7266 109.249 55.0793C109.566 51.8451 109.77 50.9486 110.188 50.9486C110.79 50.9486 112.31 52.0321 115.451 54.7003C118.261 57.088 117.289 55.7183 112.425 50.4391C108.227 45.8816 107.964 45.2645 107.935 39.8915C107.924 37.8644 107.891 36.2056 107.86 36.2056C107.83 36.2053 107.626 36.7198 107.407 37.3488ZM82.0428 65.6809C81.9191 66.0703 81.9903 67.6479 82.2009 69.1869C83.2909 77.1595 89.0145 82.1341 103.848 88.0017C111.208 90.9133 117.526 94.2457 119.963 96.5018C122.492 98.8431 124.266 102.032 124.267 104.237C124.267 106.278 124.803 106.158 125.807 103.892C127.118 100.932 127.485 99.3742 127.737 95.6912C128.276 87.828 124.884 80.9076 118.346 76.532C113.636 73.3798 110.048 72.2737 98.3399 70.3646C89.4156 68.9093 86.7831 68.0902 83.7703 65.8308C82.386 64.7927 82.326 64.7876 82.0428 65.6809ZM55.4446 71.4322C54.4045 71.8677 52.5777 73.953 52.0405 75.318C51.3652 77.0347 51.7738 79.3527 52.9267 80.3448C54.8311 81.9842 60.7966 81.0856 63.0625 78.8183C64.5216 77.3584 64.5827 76.2127 63.3166 74.0512C62.6744 72.9548 61.9182 72.2467 60.8907 71.78C59.3443 71.0773 56.6967 70.9083 55.4446 71.4322ZM59.9294 72.3406C62.3132 73.574 61.1078 76.1203 58.14 76.1203C55.1103 76.1203 53.9254 73.4334 56.467 72.3269C57.9423 71.6847 58.6672 71.6876 59.9294 72.3406ZM91.4339 87.8769C92.1793 90.2995 92.1796 94.5948 91.4346 96.797C90.217 100.396 87.3164 103.307 83.4279 104.833C82.4665 105.21 78.8496 106.035 75.3905 106.666C71.9314 107.297 67.8883 108.218 66.4059 108.714C63.8194 109.579 59.741 111.644 60.0361 111.939C60.1141 112.017 60.9727 111.84 61.9441 111.545C64.2783 110.836 70.3016 110.016 75.2108 109.741C82.8827 109.309 87.2611 107.805 90.6008 104.453C93.5776 101.466 94.2583 99.7331 94.2583 95.1425C94.2583 91.4933 94.2048 91.2258 93.0005 88.8758C91.4652 85.8797 90.6619 85.3673 91.4339 87.8769ZM97.4723 89.8183C97.3386 90.0344 97.1474 91.5314 97.0472 93.1446C96.7205 98.4011 98.0301 101.771 103.867 110.691C109.532 119.351 110.539 121.207 111.543 124.845C112.445 128.113 112.071 131.825 110.465 135.543C109.794 137.096 109.957 137.175 111.689 136.131C116.95 132.96 120.546 128.287 122.327 122.31C123.323 118.967 123.24 112.245 122.165 109.203C119.942 102.911 116.58 99.7111 105.877 93.7012C102.65 91.8885 99.6894 90.1848 99.2994 89.9154C98.4434 89.3235 97.799 89.2894 97.4723 89.8183ZM24.6272 107.994C26.1984 109.723 25.0969 112.799 22.9068 112.799C21.5386 112.799 21.0056 111.837 21.5598 110.368C21.9023 109.461 21.8703 109.18 21.3672 108.677C20.5542 107.864 20.6078 107.444 21.5724 107.06C22.6671 106.624 23.6583 106.927 24.6272 107.994ZM59.9617 116.786C55.0054 117.759 48.4872 120.792 43.9036 124.258C40.4837 126.844 39.946 127.542 41.3749 127.542C43.2736 127.542 47.6297 128.676 49.8004 129.736C51.3767 130.505 53.2584 131.982 56.0063 134.608C61.2893 139.656 64.0702 140.843 67.7507 139.62C72.987 137.879 74.243 130.916 69.7827 128.357C67.157 126.851 63.9311 127.575 62.9658 129.887C62.4372 131.152 62.6959 132.6 63.5444 133.125C63.8574 133.318 63.8628 133.198 63.5667 132.644C62.0857 129.875 65.4298 127.54 68.5582 129.158C70.8141 130.326 71.3938 132.906 69.8991 135.125C68.4109 137.335 65.8122 137.88 63.1779 136.535C60.3304 135.082 59.0223 132.085 60.1047 129.493C61.2961 126.64 63.2526 125.385 66.5101 125.385C69.295 125.385 71.4071 126.244 73.7435 128.328C75.5864 129.971 76.1165 130.809 78.8482 136.389C82.2753 143.391 83.8088 145.333 87.1065 146.844C88.7924 147.616 89.4943 147.734 91.6783 147.616C94.383 147.47 97.3311 146.377 99.11 144.861V144.861C99.2997 144.7 99.1267 144.395 98.8907 144.475L97.8522 144.827C95.2111 145.724 91.2222 145.814 89.3505 145.02C87.7092 144.323 86.0032 142.286 85.2787 140.16C84.9743 139.265 84.4007 136.631 84.0043 134.307C83.1508 129.303 82.2789 126.344 81.0282 124.208C79.0408 120.815 74.6283 117.884 70.0436 116.912C67.4326 116.358 62.458 116.296 59.9617 116.786Z" fill="url(#paint0_linear_2674_85)"/>
<defs>
<linearGradient id="paint0_linear_2674_85" x1="5.18296" y1="0.946363" x2="166.647" y2="16.4313" gradientUnits="userSpaceOnUse">
<stop stop-color="#55ADFF"/>
<stop offset="1" stop-color="#A528DD"/>
</linearGradient>
</defs>
</svg>
